<?xml version="1.0" standalone="no"?>
<!DOCTYPE svg PUBLIC "-//W3C//DTD SVG 1.1//EN" "http://www.w3.org/Graphics/SVG/1.1/DTD/svg11.dtd" >
<svg xmlns="http://www.w3.org/2000/svg">
<metadata></metadata>
<defs>
<font id="nanumbarungothicultralight" horiz-adv-x="1826" >
<font-face units-per-em="2048" ascent="1638" descent="-410" />
<missing-glyph horiz-adv-x="500" />
<glyph horiz-adv-x="0" />
<glyph horiz-adv-x="682" />
<glyph />
<glyph />
<glyph />
<glyph />
<glyph />
<glyph />
<glyph />
<glyph />
<glyph />
<glyph />
<glyph unicode="&#x9;" />
<glyph unicode="&#xa;" />
<glyph />
<glyph />
<glyph unicode="&#xd;" horiz-adv-x="458" />
<glyph />
<glyph />
<glyph />
<glyph />
<glyph />
<glyph />
<glyph />
<glyph />
<glyph />
<glyph />
<glyph />
<glyph />
<glyph />
<glyph />
<glyph />
<glyph />
<glyph />
<glyph />
<glyph unicode="!" horiz-adv-x="913" d="M303 20q0 37 26.5 63t63.5 26t63.5 -26t26.5 -63t-26.5 -62.5t-63.5 -25.5t-63.5 26t-26.5 62zM342 1497h107l-25 -1147h-66z" />
<glyph unicode="&#x22;" horiz-adv-x="608" d="M141 1624h101l-2 -459h-50zM362 1624h103l-47 -459h-45z" />
<glyph unicode="#" horiz-adv-x="1193" d="M57 455l13 63h237l70 496h-234l11 65h235l51 371h80l-49 -371h328l51 371h80l-49 -371h252l-11 -65h-245l-74 -496h252l-13 -63h-247l-72 -506h-80l72 506h-338l-72 -506h-80l72 506h-240zM377 514h352l76 502h-352z" />
<glyph unicode="$" horiz-adv-x="1193" d="M150 109v96q0 4 6 5t10 -3q70 -74 169 -116t232 -42h17v664l-84 35q-74 29 -134.5 62.5t-103.5 76.5t-66.5 99t-23.5 128q0 80 30.5 140.5t86 103.5t130.5 67.5t165 30.5v162h69v-160q92 -4 184.5 -31.5t161.5 -76.5v-90q0 -16 -12 -5q-68 55 -149.5 90t-184.5 39v-606 l49 -20q184 -76 273.5 -164t91.5 -221q0 -80 -28.5 -147.5t-82 -120t-130 -85t-173.5 -43.5v-235h-69v229h-21q-135 0 -244.5 38t-168.5 100zM264 1118q0 -66 24.5 -111.5t65.5 -79.5t93.5 -59.5t109.5 -48.5l27 -12v573q-70 -6 -128.5 -25.5t-101.5 -52t-66.5 -79 t-23.5 -105.5zM653 55q147 20 231.5 104.5t84.5 207.5q0 63 -25.5 110t-69 83t-100.5 65.5t-121 58.5v-629z" />
<glyph unicode="%" d="M174 1096q0 76 19.5 145.5t58.5 123.5t96 86t133 32t133.5 -32t96.5 -86t58 -124t19 -145q0 -78 -19 -146.5t-58 -122t-96.5 -84t-133.5 -30.5t-133 30.5t-96 84t-58.5 122t-19.5 146.5zM262 1094q0 -61 10.5 -118.5t36 -103t67.5 -73t105 -27.5t105.5 27.5t68 73 t35.5 102.5t10 119q0 61 -10 120.5t-35.5 105.5t-68 74.5t-105.5 28.5t-105 -28.5t-67.5 -74.5t-36 -105.5t-10.5 -120.5zM424 -92l864 1587h86l-858 -1587h-92zM1034 311q0 76 19.5 145.5t58.5 124t96 86t133 31.5t133.5 -31.5t96.5 -86t58.5 -124t19.5 -145.5 q0 -78 -19.5 -146.5t-58.5 -121.5t-96.5 -84t-133.5 -31t-133 31t-96 84t-58.5 121.5t-19.5 146.5zM1122 309q0 -61 10.5 -118.5t36 -102.5t67.5 -72.5t105 -27.5t105.5 27.5t68 72.5t36 102.5t10.5 118.5t-10.5 120.5t-36 106t-68 75t-105.5 28.5t-105 -28.5t-67.5 -75 t-36 -105.5t-10.5 -121z" />
<glyph unicode="&#x26;" d="M283 293q0 82 26.5 150.5t76.5 131t124 123t168 125.5q-41 43 -81 89t-71.5 92.5t-51 94.5t-19.5 97q0 57 22.5 110.5t65.5 95.5t102.5 66.5t132.5 24.5q78 0 139.5 -21.5t104.5 -57.5t65.5 -84t22.5 -101q0 -63 -29.5 -118.5t-76 -107t-102.5 -96.5t-109 -86l477 -534 q47 88 60 159.5t13 141.5q0 43 -7 81.5t-19 75.5q-6 12 6 13h84q25 -135 2 -267.5t-86 -254.5q66 -70 141.5 -149t141.5 -150h-107l-219 241q-39 -59 -94.5 -110.5t-120 -88t-135 -57t-137.5 -20.5q-117 0 -211.5 28.5t-161 79.5t-102 123t-35.5 160zM391 301 q0 -72 27.5 -130t78 -101t121 -66.5t158.5 -23.5q63 0 129 16t126.5 48t111.5 78t88 103l-494 551h-2q-82 -53 -145.5 -107.5t-107.5 -111.5t-67.5 -119.5t-23.5 -136.5zM545 1206q0 -49 18.5 -94t47 -87t65.5 -83t72 -80h2q51 37 99 76t85 81t59.5 91t22.5 109 q0 41 -13.5 79.5t-42 69.5t-73.5 49.5t-109 18.5q-115 0 -174 -69t-59 -161z" />
<glyph unicode="'" horiz-adv-x="608" d="M256 1624h98l-28 -459h-41z" />
<glyph unicode="(" horiz-adv-x="913" d="M344 649q0 131 33 266.5t88 260t128 233.5t150 188h41q-76 -100 -138 -214.5t-106 -237.5t-69 -248t-25 -248t25 -248t69 -247.5t106.5 -237.5t137.5 -215h-41q-78 80 -150.5 188.5t-127.5 233.5t-88 260t-33 266z" />
<glyph unicode=")" horiz-adv-x="913" d="M141 -299q76 100 138.5 215t106.5 237.5t68.5 247.5t24.5 248t-24.5 248t-68.5 248t-106.5 237.5t-138.5 214.5h41q78 -80 151 -188.5t128 -233t88 -260t33 -266.5t-33 -266t-88 -260t-128 -233.5t-151 -188.5h-41z" />
<glyph unicode="*" horiz-adv-x="913" d="M96 709v69l316 -14l-174 301l59 33l156 -310l157 310l60 -33l-174 -299l315 14v-69l-315 14l172 -301l-58 -35l-153 311l-160 -319l-57 35l172 307z" />
<glyph unicode="+" horiz-adv-x="1193" d="M133 709v79h422v447h82v-447h424v-79h-424v-439h-82v439h-422z" />
<glyph unicode="," horiz-adv-x="608" d="M162 -240q63 29 96 75t43 97q4 29 -25 29q-39 0 -68.5 28.5t-29.5 69.5t30 67t68 26q39 0 69 -29t30 -88q0 -92 -44 -177t-151 -128z" />
<glyph unicode="-" horiz-adv-x="1193" d="M182 709v79h830v-79h-830z" />
<glyph unicode="." horiz-adv-x="608" d="M176 37q0 41 28.5 69.5t69.5 28.5t70 -28.5t29 -69.5t-29 -69.5t-70 -28.5t-69.5 28.5t-28.5 69.5z" />
<glyph unicode="/" horiz-adv-x="913" d="M119 -301l600 1905h80l-588 -1905h-92z" />
<glyph unicode="0" horiz-adv-x="1193" d="M109 709q0 205 35.5 354t100 245.5t153.5 142.5t198 46q106 0 196.5 -46t155 -142.5t100 -245.5t35.5 -354q0 -207 -35.5 -355.5t-100 -246t-155 -143.5t-196.5 -46q-109 0 -198 46t-153.5 143.5t-100 246t-35.5 355.5zM197 709q0 -356 106.5 -535.5t292.5 -179.5 t292.5 179.5t106.5 535.5t-106.5 534t-292.5 178t-292.5 -178t-106.5 -534z" />
<glyph unicode="1" horiz-adv-x="1193" d="M270 1180v69q37 14 78 37t82 52.5t78 62.5t65 67h121v-1529h-86v1439h-2q-31 -31 -71.5 -61.5t-84.5 -58t-87.5 -50t-77.5 -37.5q-15 -7 -15 9z" />
<glyph unicode="2" horiz-adv-x="1193" d="M123 16l508 574q84 92 142 165.5t94 136t52.5 120t16.5 116.5q0 141 -89 217t-251 76q-111 0 -203 -48t-192 -144q-4 -4 -9.5 -3t-5.5 9v100q37 29 81 57.5t94.5 52t108.5 38t122 14.5q197 0 316.5 -93t119.5 -274q0 -135 -89 -275t-232 -300l-469 -537v-2h811v-77h-926 v77z" />
<glyph unicode="3" horiz-adv-x="1193" d="M133 68v98q0 8 6 9t11 -5q82 -86 192.5 -131t239.5 -45q80 0 151.5 24.5t124.5 69.5t85 109.5t32 146.5q0 86 -33 153.5t-89 113.5t-134 71t-166 25h-64v71h35q47 0 117 13.5t135.5 51.5t111.5 103.5t46 169.5q0 141 -95.5 223t-256.5 82q-53 0 -100.5 -7t-92.5 -25.5 t-91 -49t-99 -75.5q-16 -12 -17 6v92q27 25 70 48.5t95 43t110.5 31.5t117.5 12q213 0 330 -101.5t117 -265.5q0 -137 -77 -242.5t-230 -139.5v-5q68 -10 131 -40.5t111.5 -81t78 -120t29.5 -157.5q0 -90 -34 -168t-97.5 -135t-153 -90t-202.5 -33q-68 0 -133.5 11.5 t-124 32t-106.5 48t-81 58.5z" />
<glyph unicode="4" horiz-adv-x="1193" d="M57 307v72l725 1089h117v-1083h246v-78h-246v-368h-86v368h-756zM160 381h657v864l4 154l-80 -137l-581 -875v-6z" />
<glyph unicode="5" horiz-adv-x="1193" d="M139 27v79q0 6 4.5 8.5t8.5 -1.5q86 -63 187 -91t216 -28q92 2 171 34.5t137.5 87t91 127t32.5 158.5q0 100 -37 172t-101.5 118t-152.5 66.5t-190 20.5q-80 0 -166 -13t-139 -28l41 727h745v-78h-665l-35 -567h2q59 12 134 21.5t136 9.5q119 0 214 -29.5t163 -86 t104.5 -136.5t36.5 -178q0 -109 -35.5 -201t-104.5 -158.5t-168 -104.5t-224 -38q-129 0 -230.5 28.5t-175.5 80.5z" />
<glyph unicode="6" horiz-adv-x="1193" d="M131 633q0 141 35 294.5t108.5 279.5t190.5 208t283 82q86 0 153.5 -17.5t124.5 -43.5v-80q0 -8 -5 -9t-9 3q-111 72 -262 71q-125 0 -222.5 -61.5t-165 -168t-105.5 -249.5t-42 -307h4q66 152 175.5 221.5t246.5 69.5q96 0 177 -36t140.5 -102.5t92 -157.5t32.5 -198 q0 -115 -33.5 -209t-95 -161.5t-148.5 -105.5t-194 -38q-123 0 -213 50t-149.5 143.5t-89 225.5t-29.5 296zM236 440q0 -86 27.5 -165.5t78.5 -142t119.5 -100.5t152.5 -38q98 0 170 38t119 98t69.5 137t22.5 155q0 84 -23.5 163t-69.5 139t-115.5 97t-161.5 37 q-78 0 -145.5 -35t-120 -93t-85 -133t-38.5 -157z" />
<glyph unicode="7" horiz-adv-x="1193" d="M109 1386v78h950v-92l-633 -1433h-96l649 1447h-870z" />
<glyph unicode="8" horiz-adv-x="1193" d="M92 332q0 141 82 249.5t262 161.5v5q-152 43 -228.5 142t-76.5 222q0 82 33 152.5t93 122t145.5 81t191.5 29.5t191 -29.5t145.5 -81t93.5 -122t33 -152.5q0 -123 -77 -222t-228 -142v-5q180 -53 262 -161.5t82 -249.5q0 -88 -36 -164t-101.5 -131t-157.5 -87t-207 -32 t-207 32t-157.5 87t-101.5 131t-36 164zM180 344q0 -84 35 -149.5t92.5 -109.5t132 -67.5t154.5 -23.5t154.5 23.5t132 67.5t92.5 109.5t35 149.5q0 80 -37 146.5t-95.5 115.5t-133 76t-148.5 27t-148.5 -27t-133 -76t-95.5 -115.5t-37 -146.5zM217 1108q0 -80 33 -139.5 t87 -100.5t121.5 -61.5t135.5 -20.5t135.5 20.5t121.5 61.5t87 100.5t33 139.5q0 72 -30 130t-82 100t-120.5 64.5t-144.5 22.5q-78 0 -145.5 -22.5t-120 -64.5t-82 -100t-29.5 -130z" />
<glyph unicode="9" horiz-adv-x="1193" d="M117 989q0 109 33.5 202t96 160.5t149.5 106.5t192 39q152 0 247 -60.5t148 -159.5t72.5 -225t19.5 -255q0 -170 -33.5 -329t-106.5 -280.5t-187.5 -195.5t-276.5 -74q-86 0 -162 19.5t-123 42.5v75q0 10 11 6q39 -25 112.5 -46t159.5 -21q248 0 388 210t144 605h-2 q-49 -156 -157.5 -234.5t-272.5 -78.5q-98 0 -181 36.5t-143.5 103t-94 157t-33.5 196.5zM205 993q0 -84 23.5 -160.5t71.5 -136t118.5 -95.5t163.5 -36q92 0 164.5 36t123 97.5t76 141.5t25.5 166q0 84 -25.5 159.5t-74 132t-119 90t-158.5 33.5q-96 0 -169 -37.5t-122 -98 t-73.5 -137.5t-24.5 -155z" />
<glyph unicode=":" horiz-adv-x="608" d="M217 272q0 41 28.5 70t69.5 29t70 -29t29 -70t-29 -69.5t-70 -28.5t-69.5 28.5t-28.5 69.5zM217 1130q0 41 28.5 70t69.5 29t70 -29t29 -70t-29 -69.5t-70 -28.5t-69.5 28.5t-28.5 69.5z" />
<glyph unicode=";" horiz-adv-x="608" d="M199 -20q63 29 96 74.5t43 97.5q4 28 -25 28q-39 0 -68.5 29t-29.5 70t29.5 66.5t68.5 25.5t69 -29t30 -88q0 -92 -44 -177t-151 -128zM217 1130q0 41 28.5 70t69.5 29t70 -29t29 -70t-29 -69.5t-70 -28.5t-69.5 28.5t-28.5 69.5z" />
<glyph unicode="&#x3c;" horiz-adv-x="913" d="M203 668l504 934h90l-502 -934l518 -969h-90z" />
<glyph unicode="=" horiz-adv-x="1193" d="M178 457v80h834v-80h-834zM178 901v80h834v-80h-834z" />
<glyph unicode="&#x3e;" horiz-adv-x="913" d="M102 -301l521 969l-502 934h90l504 -934l-522 -969h-91z" />
<glyph unicode="?" horiz-adv-x="1370" d="M174 1311v90q80 59 166 91t184 32q96 0 175 -22.5t135.5 -64.5t87 -103.5t30.5 -139.5q0 -59 -24.5 -117.5t-62.5 -113t-82 -102.5t-83 -85q-33 -33 -59.5 -61.5t-44.5 -59t-27.5 -66.5t-9.5 -81q0 -43 4 -87t10 -73h-71q-10 33 -19.5 74t-9.5 82q0 53 13.5 99t39 87 t61.5 82t83 84q72 66 126 153t54 185q0 117 -89 184.5t-235 67.5q-193 0 -338 -141q-4 -4 -9 -3t-5 9zM442 20q0 37 27 63t63 26q37 0 64 -26t27 -63t-27 -62.5t-64 -25.5t-63.5 26t-26.5 62z" />
<glyph unicode="@" horiz-adv-x="2154" d="M178 594q0 207 69.5 383t194.5 304t297 200.5t377 72.5q209 0 375 -60t282.5 -168.5t179 -259.5t62.5 -329q0 -147 -41 -261t-107.5 -191.5t-149.5 -117.5t-165 -40q-66 0 -110.5 18.5t-72.5 49t-40 73.5t-12 92h-2q-57 -109 -135 -172t-211 -63q-78 0 -138.5 29.5 t-102.5 84t-64.5 128t-22.5 163.5q0 137 42 248t108.5 187.5t149.5 118.5t167 44t157.5 -41t96.5 -135l27 150h88l-80 -721q-4 -41 0 -77t22.5 -62.5t54 -42t91.5 -15.5q61 0 123.5 36t113.5 103.5t83 166t32 223.5q0 188 -56.5 332.5t-161 242.5t-250.5 149.5t-325 51.5 q-180 0 -334.5 -66.5t-267 -184.5t-177 -281.5t-64.5 -358.5q0 -188 55 -337.5t162.5 -256t264.5 -163t361 -56.5q199 0 347.5 58.5t242.5 136.5q4 6 10.5 5t6.5 -10v-102q-55 -37 -125 -65.5t-149 -50t-165 -33t-172 -11.5q-244 0 -421 64.5t-292.5 181.5t-172 278.5 t-56.5 356.5zM750 524q0 -154 66.5 -238.5t178.5 -84.5q76 0 140.5 40t110.5 111.5t71.5 174t25.5 227.5q0 160 -53 232.5t-182 72.5q-76 0 -141.5 -45t-113.5 -120t-75.5 -171t-27.5 -199z" />
<glyph unicode="A" horiz-adv-x="1318" d="M35 -61l559 1529h117l561 -1529h-101l-167 475h-703l-168 -475h-98zM326 489h653l-281 773l-45 135l-47 -135z" />
<glyph unicode="B" horiz-adv-x="1284" d="M195 -61v1525h493q106 0 186 -27.5t133.5 -73.5t81 -107.5t27.5 -129.5q0 -147 -74.5 -230t-224.5 -124v-2q80 -12 148.5 -43t119 -79t80 -113.5t29.5 -147.5q0 -92 -32 -174t-95 -143.5t-158.5 -96t-222.5 -34.5h-491zM281 14h385q111 0 193.5 28t138 78t83 118.5 t27.5 150.5q0 160 -131.5 250t-358.5 90h-337v-715zM281 803h317q197 0 314.5 77.5t117.5 223.5q0 137 -90 211t-270 74h-389v-586z" />
<glyph unicode="C" horiz-adv-x="1308" d="M88 696q0 180 55.5 324.5t151.5 247t226 158t280 55.5q135 0 240.5 -32t183.5 -101v-88q0 -10 -5.5 -12.5t-11.5 3.5q-98 92 -193 122t-208 30q-137 0 -253 -50t-199 -142.5t-129 -221.5t-46 -284q0 -174 45 -306.5t126 -220.5t194.5 -133t253.5 -45q160 0 261 49 t167 123q4 6 10 5t6 -9v-96q-74 -68 -192.5 -111t-270.5 -43q-158 0 -284.5 54.5t-218 155.5t-140.5 244.5t-49 323.5z" />
<glyph unicode="D" horiz-adv-x="1476" d="M195 -61v1525h385q197 0 345 -54t246.5 -152.5t147.5 -237.5t49 -307q0 -184 -56.5 -328.5t-158.5 -243t-247.5 -150.5t-325.5 -52h-385zM281 14h260q174 0 311 45t231.5 134.5t144.5 219.5t50 300q0 324 -179 501t-544 177h-274v-1377z" />
<glyph unicode="E" horiz-adv-x="1220" d="M203 -61v1525h909v-78h-823v-585h766v-76h-766v-709h825v-77h-911z" />
<glyph unicode="F" horiz-adv-x="1134" d="M203 -61v1525h856v-80h-770v-579h739v-76h-739v-790h-86z" />
<glyph unicode="G" horiz-adv-x="1454" d="M109 705q0 186 57 330.5t157.5 243.5t237.5 150.5t297 51.5q141 0 247.5 -35t194.5 -94v-109q0 -8 -5 -9t-9 3q-66 72 -170 118t-246 46q-145 0 -268 -44t-213 -130t-141 -215t-51 -299q0 -195 56 -330t149.5 -220t214 -124t251.5 -39q127 0 217.5 35t143.5 88v500h-408 v71h494v-639q-55 -33 -106.5 -58.5t-104.5 -42.5t-113.5 -26.5t-136.5 -9.5q-162 0 -299 49t-236.5 147.5t-154.5 246t-55 344.5z" />
<glyph unicode="H" horiz-adv-x="1470" d="M197 -61v1525h86v-653h899v653h86v-1525h-86v794h-899v-794h-86z" />
<glyph unicode="I" horiz-adv-x="505" d="M219 -61v1525h86v-1525h-86z" />
<glyph unicode="J" horiz-adv-x="839" d="M53 2q18 -10 60.5 -20.5t97.5 -10.5q186 0 268 96.5t82 305.5v1091h86v-1075q0 -137 -28.5 -230t-81 -150.5t-129 -82t-170.5 -24.5q-68 0 -109 9t-76 19v72z" />
<glyph unicode="K" horiz-adv-x="1282" d="M197 -61v1525h86v-829h4l796 829h113l-588 -612v-4l635 -909h-110l-582 852h-4l-264 -271v-581h-86z" />
<glyph unicode="L" horiz-adv-x="1083" d="M203 -61v1525h86v-1446h745v-79h-831z" />
<glyph unicode="M" horiz-adv-x="1810" d="M203 -61v1525h133l516 -1296l55 -150l56 150l516 1296h133v-1525h-82v1241l2 206l-68 -188l-503 -1259h-107l-504 1259l-67 188l2 -206v-1241h-82z" />
<glyph unicode="N" horiz-adv-x="1454" d="M203 -61v1525h127l731 -1257l104 -193l-2 209v1241h86v-1525h-129l-729 1257l-106 193l4 -207v-1243h-86z" />
<glyph unicode="O" horiz-adv-x="1540" d="M117 705q0 172 42 314t122.5 244.5t202.5 160t282 57.5t281.5 -57.5t204.5 -161t125 -246t42 -314.5t-42 -315t-125 -247.5t-204.5 -163t-281.5 -58.5t-282 58.5t-202.5 163t-122.5 248.5t-42 317zM207 702q0 -150 36 -278.5t105.5 -223t174 -147.5t243.5 -53 q137 0 242.5 53t176 147.5t107.5 223.5t37 278q0 152 -37 280t-107.5 222t-176 146.5t-242.5 52.5q-139 0 -243.5 -52.5t-174 -146.5t-105.5 -222t-36 -280z" />
<glyph unicode="P" horiz-adv-x="1200" d="M203 -61v1525h364q117 0 217.5 -27.5t174 -83t115.5 -139t42 -196.5q0 -229 -150.5 -350t-443.5 -121h-233v-608h-86zM287 625h209q115 0 213 17t169.5 61.5t111.5 120t40 194.5q0 94 -38 163.5t-104.5 115.5t-159.5 67.5t-204 21.5h-237v-761z" />
<glyph unicode="Q" horiz-adv-x="1540" d="M117 705q0 172 42 314t122.5 244.5t202.5 160t282 57.5t281.5 -57.5t204.5 -161t125 -246t42 -314.5q0 -188 -56 -344.5t-161 -263.5l211 -229h-100l-164 180q-78 -59 -173 -93t-210 -34q-160 0 -282 58.5t-202.5 163t-122.5 248.5t-42 317zM207 702q0 -150 36 -278.5 t105.5 -223t174 -147.5t243.5 -53q197 0 330 104l-191 215h92l152 -165q90 92 135 232t45 316q0 152 -37 280t-107.5 222t-176 146.5t-242.5 52.5q-139 0 -243.5 -52.5t-174 -146.5t-105.5 -222t-36 -280z" />
<glyph unicode="R" horiz-adv-x="1249" d="M203 -61v1525h420q250 0 377.5 -112.5t127.5 -309.5q0 -154 -84 -267.5t-266 -166.5v-2l389 -667h-112l-363 653h-403v-653h-86zM287 668h309q100 0 182 22.5t140.5 68.5t91 116.5t32.5 164.5q0 92 -31.5 158t-88 108t-133 62.5t-168.5 20.5h-334v-721z" />
<glyph unicode="S" horiz-adv-x="1212" d="M129 63v103q0 6 6 7t10 -5q72 -78 173.5 -122t236.5 -44q94 0 170 23.5t129 66.5t82 104.5t29 135.5q0 70 -27 120t-71 89t-103 69.5t-125 61.5l-152 65q-76 31 -137 67t-105 83t-68.5 105.5t-24.5 135.5q0 90 35.5 158t99 112t149.5 66.5t187 22.5q98 0 199.5 -30 t174.5 -85v-96q0 -16 -12 -4q-72 59 -159 98t-195 39q-80 0 -150.5 -17.5t-123 -52t-82 -86t-29.5 -120.5q0 -70 25.5 -119t66.5 -86t95 -63.5t112 -51.5l149 -63q188 -82 278.5 -175.5t92.5 -234.5q0 -94 -36 -172t-101.5 -133t-161.5 -86t-215 -31q-139 0 -250 39.5 t-172 105.5z" />
<glyph unicode="T" horiz-adv-x="1271" d="M35 1384v80h1194v-80h-553v-1445h-86v1445h-555z" />
<glyph unicode="U" horiz-adv-x="1425" d="M178 549v915h86v-909q0 -127 19.5 -223t72.5 -170q53 -72 146.5 -115t210.5 -43t209 43t145 115q55 74 74.5 170t19.5 223v909h86v-917q0 -145 -21.5 -243.5t-74.5 -178.5q-66 -94 -174 -149.5t-262 -55.5h-4q-156 0 -264.5 54.5t-174.5 150.5q-53 78 -73.5 177 t-20.5 247z" />
<glyph unicode="V" horiz-adv-x="1300" d="M35 1464h90l463 -1247l65 -194l66 194l455 1247h90l-553 -1525h-115z" />
<glyph unicode="W" horiz-adv-x="1968" d="M63 1464h95l348 -1241l47 -192l43 192l328 1243h118l328 -1243l43 -192l47 192l346 1241h97l-435 -1525h-108l-332 1251l-45 196l-45 -196l-332 -1251h-108z" />
<glyph unicode="X" horiz-adv-x="1263" d="M72 -61l508 759v2l-484 764h105l432 -694h4l428 694h104l-483 -764v-2l508 -759h-109l-448 694h-4l-453 -694h-108z" />
<glyph unicode="Y" horiz-adv-x="1251" d="M49 1464h101l481 -776h4l477 776h100l-536 -860v-665h-86v665z" />
<glyph unicode="Z" horiz-adv-x="1216" d="M94 12l910 1374v3h-863v75h971v-73l-911 -1375v-2h929v-75h-1036v73z" />
<glyph unicode="[" horiz-adv-x="913" d="M453 -297v1890h358v-55h-264v-1780h264v-55h-358z" />
<glyph unicode="\" horiz-adv-x="1968" d="M86 733v55h264l-166 629h84l162 -629h350l156 631h104l154 -631h352l162 629h86l-168 -629h262v-55h-276l-199 -749h-94l-186 749h-289l-185 -749h-96l-198 749h-279zM444 733l127 -483l41 -180l37 180l119 483h-324zM858 788h262l-92 371l-39 184l-39 -184zM1208 733 l119 -483l39 -180l41 180l125 483h-324z" />
<glyph unicode="]" horiz-adv-x="913" d="M102 -242h269v1784h-269v55h363v-1894h-363v55z" />
<glyph unicode="^" horiz-adv-x="888" d="M41 1221l340 403h119l348 -403h-100l-302 358h-6l-303 -358h-96z" />
<glyph unicode="_" horiz-adv-x="913" d="M25 -227h864v-56h-864v56z" />
<glyph unicode="`" horiz-adv-x="608" d="M172 1624h113l164 -459h-46z" />
<glyph unicode="a" horiz-adv-x="1146" d="M76 211q0 160 107.5 249t283.5 115l391 54v57q0 158 -64.5 232.5t-232.5 74.5q-55 0 -101 -10t-88 -28.5t-83 -45t-86 -59.5q-6 -4 -12.5 -3t-6.5 11v96q72 47 169.5 83t211.5 36q98 0 170 -19.5t119 -62.5t69.5 -112.5t22.5 -171.5v-768h-84l-16 196q-39 -61 -88 -103 t-104.5 -66.5t-115 -35t-118.5 -10.5q-174 0 -259 81t-85 210zM162 221q0 -115 72.5 -169t189.5 -54q88 0 168 27.5t140.5 77t96 117t35.5 147.5v194l-407 -57q-66 -10 -120 -37t-93 -66t-60.5 -85t-21.5 -95z" />
<glyph unicode="b" horiz-adv-x="1204" d="M180 -61v1636h84v-778h4q25 45 63 92t89 84t113.5 60.5t136.5 23.5q98 0 180 -36t141.5 -104.5t92 -171t32.5 -237.5q0 -139 -37 -247.5t-100.5 -185.5t-148.5 -117t-179 -40q-57 0 -113.5 13.5t-105.5 38t-88 60.5t-63 79h-5l-10 -170h-86zM262 344q0 -74 32 -136.5 t84 -107.5t121.5 -70.5t147.5 -25.5q76 0 144.5 35t119 99.5t80 157.5t29.5 210t-27.5 205t-76 147.5t-116 89t-147.5 29.5q-68 0 -137.5 -32t-125.5 -88t-92 -134t-36 -168v-211z" />
<glyph unicode="c" horiz-adv-x="1003" d="M96 481q0 123 38 227.5t109.5 182.5t174 122t229.5 44q84 0 161 -26.5t138 -63.5v-93q0 -8 -5 -9t-9 3q-63 53 -130 83t-153 30q-111 0 -195.5 -40t-143 -108.5t-88 -158.5t-29.5 -191q0 -109 30.5 -197.5t90 -153t148.5 -100.5t204 -36q76 0 155.5 28.5t124.5 81.5 q4 4 9.5 4.5t5.5 -6.5v-94q-49 -41 -134.5 -66.5t-175.5 -25.5q-127 0 -230.5 37t-175 108.5t-110.5 176t-39 241.5z" />
<glyph unicode="d" horiz-adv-x="1204" d="M90 471q0 135 36 242.5t98.5 184.5t146.5 118t180 41q143 0 240.5 -63.5t144.5 -162.5h4v744h84v-1636h-80l-10 196h-4q-59 -104 -159.5 -160.5t-231.5 -56.5q-96 0 -178 33t-141.5 100.5t-94.5 172t-35 247.5zM184 465q0 -121 28 -209t77 -144.5t115.5 -84t144.5 -27.5 q84 0 155.5 26.5t125 73.5t83 110.5t29.5 137.5v234q0 76 -27.5 146.5t-77 125.5t-118 89t-148.5 34q-82 0 -152.5 -36t-122.5 -103.5t-82 -161.5t-30 -211z" />
<glyph unicode="e" horiz-adv-x="1144" d="M94 481q0 129 38 235.5t105.5 181.5t160.5 117t206 42q111 0 196 -36t143 -99.5t88 -153.5t30 -197v-59h-864v-53q6 -213 118.5 -335t329.5 -124q113 0 206 31.5t157 93.5q4 6 9 5t5 -9v-88q-70 -59 -179.5 -87t-219.5 -28q-123 0 -221.5 42t-166 117t-104.5 178t-37 226 zM199 584h757q0 201 -93 302t-263 101q-78 0 -145.5 -28.5t-120.5 -81t-88 -124t-47 -159.5v-10z" />
<glyph unicode="f" horiz-adv-x="696" d="M47 954v80h197v207q0 104 24.5 174t67.5 112t102.5 59.5t128.5 17.5q51 0 81 -8.5t52 -22.5v-64q0 -4 -3 -6t-7 2q-23 14 -52.5 23.5t-64.5 9.5q-55 0 -101 -14.5t-78 -48t-50 -92t-18 -144.5v-205h321v-80h-319v-1015h-84v1015h-197z" />
<glyph unicode="g" horiz-adv-x="1204" d="M84 500q0 135 34 238.5t93 174t143 107.5t187 37q143 0 234 -63.5t145 -153.5h4l8 194h86v-1024q0 -160 -32 -269.5t-97.5 -177t-164.5 -98t-232 -30.5q-109 0 -189 22.5t-143 53.5v88q0 8 4 9t8 -3q78 -53 152.5 -78t167.5 -25q233 0 338.5 122t105.5 396v148h-2 q-70 -104 -170 -159.5t-236 -55.5q-96 0 -177 31.5t-140 98.5t-93 170t-34 247zM178 494q0 -121 27.5 -208t76 -142.5t114 -82t143.5 -26.5q84 0 156.5 26.5t125.5 72.5t84 109.5t31 137.5v215q0 76 -28.5 144.5t-79 120.5t-119 84t-148.5 32q-84 0 -153.5 -32t-120.5 -93 t-80 -151.5t-29 -206.5z" />
<glyph unicode="h" horiz-adv-x="1212" d="M176 -61v1636h84v-791h2q27 55 72 105.5t100 87.5t117.5 58.5t126.5 21.5q180 0 282.5 -109.5t102.5 -353.5v-655h-84v649q0 104 -21.5 179t-60.5 123t-94 69.5t-121 21.5q-76 0 -151.5 -35t-135 -94t-97.5 -136t-38 -159v-618h-84z" />
<glyph unicode="i" horiz-adv-x="499" d="M166 1425q0 35 23.5 58.5t58.5 23.5t58.5 -23.5t23.5 -58.5t-23.5 -58.5t-58.5 -23.5t-58.5 24t-23.5 58zM205 -61v1095h84v-1095h-84z" />
<glyph unicode="j" horiz-adv-x="616" d="M41 -500q18 -1 36 -1q45 0 84 7q54 11 92 45.5t59.5 100t21.5 174.5v1208h84v-1194q0 -129 -24.5 -211t-72 -128t-117.5 -61q-56 -12 -125 -12q-19 0 -38 1v71zM283 1425q0 35 23.5 58.5t58.5 23.5t58 -23.5t23 -58.5t-23.5 -58.5t-57.5 -23.5q-35 0 -58.5 24t-23.5 58z " />
<glyph unicode="k" horiz-adv-x="1085" d="M180 -61v1636h84v-1096h4l586 555h111l-463 -438v-4l528 -653h-106l-475 602h-5l-180 -170v-432h-84z" />
<glyph unicode="l" horiz-adv-x="499" d="M201 -61v1636h84v-1636h-84z" />
<glyph unicode="m" d="M184 -61v1095h76l12 -272q63 139 155.5 217t209.5 78q121 0 204 -69.5t124 -242.5q66 154 161 233t211 79q160 0 249 -117t89 -346v-655h-82v649q0 104 -19.5 179t-53 121t-82.5 67.5t-107 21.5q-68 0 -132 -36t-115.5 -96.5t-82 -138t-30.5 -159.5v-608h-82v649 q0 211 -72 300t-186 89q-68 0 -133.5 -36t-116.5 -96.5t-83 -138t-32 -159.5v-608h-82z" />
<glyph unicode="n" horiz-adv-x="1212" d="M176 -61v1095h84l10 -231h2q29 53 73 99t98.5 81t113.5 54.5t121 19.5q180 0 282.5 -109.5t102.5 -353.5v-655h-84v649q0 104 -21.5 179t-60.5 123t-94 69.5t-121 21.5q-76 0 -151.5 -35t-135 -94t-97.5 -136t-38 -159v-618h-84z" />
<glyph unicode="o" horiz-adv-x="1181" d="M96 489q0 129 34 233.5t98.5 178.5t155.5 115t206 41t207 -41t156.5 -115t99 -178.5t34.5 -233.5t-34.5 -233t-99 -180t-156.5 -117t-207 -41t-206 41t-155.5 117t-98.5 180t-34 233zM184 489q0 -113 30 -203.5t83 -155t128 -99.5t165 -35t165.5 35t130 99.5t84 155 t29.5 203.5t-29.5 203t-84 153.5t-130 98.5t-165.5 35t-165 -35t-128 -98.5t-83 -153.5t-30 -203z" />
<glyph unicode="p" horiz-adv-x="1204" d="M178 -567v1601h80l8 -221h2q25 45 65 89t92 79t114.5 55.5t134.5 20.5q207 0 329.5 -139.5t122.5 -409.5q0 -143 -36.5 -253t-100 -184.5t-148.5 -112.5t-179 -38q-125 2 -235 51t-163 152h-2v-690h-84zM262 344q0 -74 32 -136.5t86 -107.5t123.5 -69.5t147.5 -24.5 q76 0 145.5 33t122 96.5t83 156.5t30.5 214q0 117 -28.5 205t-79 147.5t-119 89t-148.5 29.5q-76 0 -147.5 -32t-126.5 -88t-88 -134t-33 -168v-211z" />
<glyph unicode="q" horiz-adv-x="1204" d="M74 475q0 135 33.5 241.5t95 181.5t147 115t185.5 40q72 0 132 -19.5t109 -51.5t87 -75t65 -90h2l6 217h80v-1599h-84v694h-4q-121 -209 -406 -209q-96 0 -178 33t-141.5 101.5t-94 173t-34.5 247.5zM168 469q0 -121 27.5 -209t77 -145.5t116 -85t143.5 -27.5 q84 0 157 26.5t127 75t86 112t32 136.5v223q0 76 -28.5 148t-80 129t-121 92t-149.5 35q-84 0 -154.5 -37t-123 -102.5t-81 -159.5t-28.5 -211z" />
<glyph unicode="r" horiz-adv-x="784" d="M176 -57v1091h78l8 -205h4q51 104 149.5 166t229.5 62q41 -2 73 -9.5t48 -15.5v-88q0 -10 -5 -11t-9 3q-18 10 -51 20.5t-74 10.5q-72 0 -137.5 -32t-116.5 -85t-81 -127t-30 -156v-624h-86z" />
<glyph unicode="s" horiz-adv-x="972" d="M94 16v103q0 6 4 8t8 -2q92 -72 183.5 -99.5t181.5 -27.5q135 0 223 52t88 173q0 68 -60 120t-163 89l-131 47q-154 55 -223.5 127t-69.5 176q0 117 93.5 196t273.5 79q92 0 179 -25.5t155 -66.5v-97q0 -10 -5.5 -9t-9.5 5q-66 55 -145.5 88t-188.5 33q-49 0 -95 -13.5 t-81 -39t-55 -60t-20 -77.5q0 -84 58 -136.5t142 -85.5l137 -51q72 -27 129.5 -55.5t97.5 -64t60.5 -82t20.5 -107.5q0 -139 -113 -216t-297 -77q-100 0 -202.5 24.5t-174.5 71.5z" />
<glyph unicode="t" horiz-adv-x="731" d="M20 961v73h218v281h84v-281h327v-73h-327v-764q0 -102 35.5 -154.5t138.5 -52.5q123 0 184 51q12 8 12 -4v-72q-33 -23 -84 -34t-104 -11q-129 0 -197.5 59.5t-68.5 213.5v768h-218z" />
<glyph unicode="u" horiz-adv-x="1212" d="M156 373v661h84v-653q0 -104 23.5 -178t65.5 -120t99 -66.5t123 -20.5q76 0 146.5 33.5t126 91t88 133.5t32.5 160v620h84v-1095h-72l-10 239h-2q-25 -51 -62.5 -98t-88 -82t-113 -56.5t-137.5 -21.5q-88 0 -158 24.5t-123 80.5q-51 55 -78.5 142t-27.5 206z" />
<glyph unicode="v" horiz-adv-x="1085" d="M53 1034h97l329 -868l64 -158l59 158l330 868h94l-428 -1095h-115z" />
<glyph unicode="w" horiz-adv-x="1613" d="M66 1034h84l264 -907l30 -121l31 121l283 907h94l283 -907l30 -121l31 121l264 907h84l-327 -1095h-101l-285 919l-26 107l-27 -107l-284 -919h-101z" />
<glyph unicode="x" horiz-adv-x="1081" d="M59 -61l430 555v2l-405 538h96l359 -479h2l358 479h96l-405 -538v-2l430 -555h-100l-379 501h-2l-379 -501h-101z" />
<glyph unicode="y" horiz-adv-x="1085" d="M37 1034h90l362 -841l74 -183l66 183l313 841h92l-485 -1265q-33 -86 -66.5 -150.5t-77 -107.5t-100.5 -64.5t-135 -21.5q-59 0 -98 16v70q0 10 10 6q18 -8 44 -12.5t48 -4.5q41 0 78 9.5t70.5 35t64.5 70.5t59 115l72 190v2z" />
<glyph unicode="z" horiz-adv-x="968" d="M72 6l680 946v2h-650v80h752v-67l-680 -949v-2h715v-77h-817v67z" />
<glyph unicode="{" horiz-adv-x="913" d="M315 668v34q57 4 98.5 28t67 59.5t36.5 82t11 99.5v409q0 68 15.5 111t40 68.5t57.5 36t68 10.5h108v-54h-67q-61 0 -98.5 -41t-37.5 -133v-430q0 -104 -45 -166.5t-135 -95.5v-2q90 -33 135 -96.5t45 -165.5v-500q0 -92 37 -133t99 -41h67v-53h-108q-35 0 -68 10 t-57.5 36t-40 69t-15.5 110v475q0 53 -11 101.5t-36.5 84t-66.5 59.5t-99 28z" />
<glyph unicode="|" horiz-adv-x="913" d="M426 -297v1894h57v-1894h-57z" />
<glyph unicode="}" horiz-adv-x="913" d="M96 -252h68q61 0 96 41t35 133v500q0 102 47 165.5t137 96.5v2q-90 33 -137 95.5t-47 166.5v430q0 92 -35 133t-96 41h-68v54h109q35 0 67.5 -10.5t57 -36t40 -68.5t15.5 -111v-409q0 -53 11.5 -99.5t37 -82t66.5 -59t98 -28.5v-34q-57 -4 -98 -28t-66.5 -59.5t-37 -83.5 t-11.5 -102v-475q0 -68 -15.5 -110.5t-40 -68.5t-57 -36t-67.5 -10h-109v53z" />
<glyph unicode="~" horiz-adv-x="1370" d="M246 641v100q14 23 35.5 47.5t50 44t63.5 32t74 12.5q55 0 101.5 -19.5t93.5 -58.5q57 -47 110 -81t127 -34q29 0 58.5 13.5t56 36t49 51t39.5 59.5q4 8 9 7t5 -9v-101q-14 -23 -35.5 -47t-50 -44.5t-63.5 -33t-74 -12.5q-55 0 -101 19.5t-94 58.5q-29 25 -56.5 45.5 t-55 35.5t-58 24.5t-67.5 9.5q-29 0 -58.5 -13.5t-56 -36t-50.5 -50t-38 -58.5q-4 -8 -9 -7t-5 9z" />
<glyph />
<glyph />
<glyph />
<glyph />
<glyph />
<glyph />
<glyph unicode="&#x85;" />
<glyph />
<glyph />
<glyph />
<glyph />
<glyph />
<glyph />
<glyph />
<glyph />
<glyph />
<glyph />
<glyph />
<glyph />
<glyph />
<glyph />
<glyph />
<glyph />
<glyph />
<glyph />
<glyph />
<glyph />
<glyph />
<glyph />
<glyph />
<glyph />
<glyph />
<glyph />
<glyph unicode="&#xa1;" d="M817 1368q0 41 27.5 68.5t73.5 27.5q45 0 72.5 -27.5t27.5 -68.5t-27.5 -69.5t-72.5 -28.5q-47 0 -74 28.5t-27 69.5zM846 -254q8 47 10 96t4 97l27 1067h53l31 -1067q2 -47 5 -96.5t7 -96.5h-137z" />
<glyph unicode="&#xa2;" d="M211 -119l248 291q-68 94 -104 213t-36 248q0 147 40 280.5t117 235.5t187.5 162.5t249.5 60.5q135 0 237.5 -50t172.5 -136l225 262l54 -45l-234 -277q31 -49 54.5 -106t35.5 -119h-76q-10 45 -25.5 87t-39.5 83l-766 -899q66 -78 153 -124t191 -46q96 0 179 32 t146.5 90t104.5 141t51 184h76q-12 -106 -58 -199.5t-118 -163.5t-170 -111t-215 -41t-214 49.5t-173 135.5l-242 -283zM395 621q0 -109 30 -208.5t83 -181.5l770 902q-59 78 -148.5 127t-211.5 49q-131 0 -228.5 -56.5t-163 -151.5t-98.5 -219t-33 -261z" />
<glyph unicode="&#xa3;" d="M231 10q0 82 60.5 132.5t165.5 50.5q74 0 150.5 -40t148.5 -94q31 55 50 117t19 121q0 84 -27.5 157.5t-76.5 151.5h-445v68h400q-49 82 -93 179t-44 189t32.5 166t90 124t134 78t165.5 28q180 0 305 -105.5t153 -316.5l-63 -15q-37 190 -138.5 279.5t-259.5 89.5 q-78 0 -141 -25.5t-108 -68.5t-70 -102.5t-25 -126.5q0 -86 45.5 -185.5t100.5 -187.5h567v-68h-524q43 -72 67.5 -152.5t24.5 -148.5q0 -63 -22.5 -140t-61.5 -142q35 -27 76 -54.5t85 -51t90 -38t89 -14.5q129 0 226.5 90t133.5 264l70 -12q-43 -195 -158.5 -301.5 t-275.5 -106.5q-47 0 -98.5 16.5t-99.5 41t-93 54.5t-80 54q-59 -76 -133 -119t-151 -43q-121 0 -191 59.5t-70 147.5zM293 14q0 -70 56.5 -109.5t146.5 -39.5q63 0 122.5 39t104.5 98q-70 49 -134.5 88t-131.5 39q-78 0 -121 -29.5t-43 -85.5z" />
<glyph unicode="&#xa4;" d="M162 -80l246 246q-76 78 -126.5 199.5t-50.5 255.5q0 63 14.5 127.5t39 123t57.5 110.5t70 91l-250 250l49 51l252 -250q39 37 90 68t109.5 54.5t122 35.5t128.5 12q129 0 246 -48t203 -124l250 250l51 -49l-248 -252q37 -41 70 -93t57.5 -110.5t38.5 -122t14 -124.5 q0 -66 -13 -130.5t-37.5 -124t-57.5 -111.5t-70 -91l248 -246l-51 -49l-246 248q-82 -76 -204 -126t-251 -50q-63 0 -128.5 13t-126 37.5t-112.5 57.5t-91 70l-242 -250zM313 621q0 -129 46.5 -240t127 -191.5t190 -127t236.5 -46.5q125 0 234.5 46.5t190.5 127t128 191.5 t47 240q0 127 -45 236.5t-125.5 190t-190.5 127t-239 46.5t-238.5 -46.5t-190.5 -126t-126 -189t-45 -238.5z" />
<glyph unicode="&#xa5;" d="M328 1364h86l483 -649l492 649h88l-535 -698h467v-64h-477v-262h477v-64h-477v-434h-74v434h-479v64h479v262h-479v64h471z" />
<glyph unicode="&#xa7;" horiz-adv-x="913" d="M109 655q0 98 68.5 157.5t176.5 59.5q23 0 43.5 -3t24.5 -5q-150 111 -217.5 196t-67.5 167q0 55 23.5 102t64.5 82t96.5 54.5t118.5 19.5q68 0 127.5 -21.5t103.5 -58.5t68.5 -85t24.5 -99q0 -35 -22.5 -58.5t-51.5 -23.5t-52.5 19.5t-23.5 53.5q0 29 12.5 48.5 t12.5 39.5q0 33 -16.5 59.5t-45 45t-65.5 29t-76 10.5q-102 0 -163.5 -48t-61.5 -134q0 -37 15.5 -74t50 -77t91 -86t138.5 -105q147 -106 214.5 -193.5t67.5 -165.5q0 -115 -64.5 -170t-174.5 -55q-12 0 -26.5 1t-25 1t-13.5 -1t8 -5q68 -45 126 -89t101 -88t67.5 -87 t24.5 -84q0 -100 -85 -164t-222 -64q-76 0 -139.5 20.5t-110.5 54.5t-73.5 79t-26.5 96q0 37 21.5 59.5t53.5 22.5q39 0 57.5 -26.5t18.5 -57.5q0 -23 -11 -44t-22 -32q0 -31 19.5 -53t51.5 -36.5t71 -21.5t78 -7q47 0 90 8t76.5 26.5t53 45t19.5 63.5q0 61 -58.5 120.5 t-193.5 153.5q-98 70 -168.5 127.5t-114.5 107.5t-65.5 97t-21.5 96zM186 676q0 -31 18.5 -67t46.5 -71.5t61.5 -66.5t66.5 -51q29 -16 67.5 -28.5t81.5 -12.5q66 0 115 32t49 93q0 100 -74 184q-33 35 -69.5 69t-77.5 50q-27 10 -61.5 17t-63.5 3q-68 -6 -114 -45t-46 -106 z" />
<glyph unicode="&#xa8;" d="M475 1520q0 41 28.5 69.5t69.5 28.5t70 -28.5t29 -69.5t-29 -70t-70 -29t-69.5 29t-28.5 70zM1155 1520q0 41 28.5 69.5t69.5 28.5t70 -28.5t29 -69.5t-29 -70t-70 -29t-69.5 29t-28.5 70z" />
<glyph unicode="&#xa9;" d="M53 618q0 178 66.5 335t183.5 272.5t273.5 182.5t336.5 67q178 0 335 -67t272.5 -182.5t182 -271.5t66.5 -336t-66.5 -336.5t-183 -272t-272 -182.5t-334.5 -67q-180 0 -336.5 67t-273.5 182.5t-183.5 272t-66.5 336.5zM127 618q0 -166 60.5 -311t166 -251.5t250 -168 t309.5 -61.5q164 0 307.5 61.5t249 168t166 251.5t60.5 311t-60.5 309.5t-166 251t-249 169t-307.5 61.5q-166 0 -310 -61.5t-249.5 -169t-166 -251t-60.5 -309.5zM496 621q0 98 25.5 187t77.5 156.5t131 107.5t188 40q70 0 134 -20.5t115.5 -60.5t84 -98.5t38.5 -133.5h-73 q-16 121 -99.5 185.5t-199.5 64.5q-96 0 -163 -34t-108 -91.5t-60.5 -133t-19.5 -159.5q0 -86 19.5 -163t62.5 -135.5t109.5 -93t161.5 -34.5q59 0 112 19.5t94 55t69 86t36 113.5h74q-8 -78 -43 -141.5t-88.5 -107.5t-122 -67.5t-144.5 -23.5q-102 0 -179 39t-128 104.5 t-77.5 152.5t-26.5 186z" />
<glyph unicode="&#xaa;" d="M393 -23h1012v-75h-1012v75zM465 496q4 109 67.5 189.5t172.5 111.5q78 20 163.5 30.5t147.5 20.5q66 10 112 46t46 85q0 137 -75 213t-206 76q-137 0 -214 -77t-79 -204h-84q2 80 32 144.5t80 111.5t117.5 72.5t147.5 25.5t146.5 -26.5t114.5 -73.5t74.5 -114.5 t26.5 -147.5v-586q0 -73 25 -143h-70q-14 25 -21 62.5t-7 66.5v37q-18 -37 -58.5 -74t-96.5 -67.5t-124.5 -50t-144.5 -19.5q-66 0 -120 22.5t-92 62.5t-59.5 93t-21.5 113zM549 496q0 -86 51 -150.5t154 -64.5q82 0 152.5 20.5t124.5 55t90 81.5t53 101v295 q-4 -4 -17.5 -12.5t-33 -16.5t-43 -16.5t-48.5 -10.5q-70 -10 -152.5 -22.5t-156.5 -30.5q-82 -20 -128 -82.5t-46 -146.5z" />
<glyph unicode="&#xab;" d="M262 616l1280 965l47 -63l-1181 -902l1181 -903l-47 -63zM662 616l1069 814l51 -64l-973 -750l971 -749l-49 -68z" />
<glyph unicode="&#xac;" d="M106 1341v72h1616v-696h-92v624h-1524z" />
<glyph unicode="&#xad;" d="M541 383v74h743v-74h-743z" />
<glyph unicode="&#xae;" d="M92 616q0 184 62.5 340t172 268.5t260 175t326.5 62.5q170 0 320.5 -66.5t262.5 -181t176.5 -269t64.5 -329.5q0 -176 -64.5 -330.5t-176.5 -269t-262.5 -181t-320.5 -66.5t-319.5 66.5t-261 181t-176 269t-64.5 330.5zM164 616q0 -162 59.5 -305t161.5 -250.5 t238.5 -170t289.5 -62.5q154 0 290 62.5t239.5 170t163 251t59.5 304.5q0 160 -59.5 303.5t-163 251t-239.5 170t-290 62.5q-160 0 -296 -60.5t-237 -167t-158.5 -250t-57.5 -309.5zM600 92v1075h311q190 0 286.5 -81.5t96.5 -219.5q0 -106 -61.5 -185t-194.5 -114l287 -475 h-106l-263 455h-268v-455h-88zM686 612h213q141 0 225 60.5t84 193.5q0 63 -21.5 108.5t-60.5 74t-93 42t-118 13.5h-229v-492z" />
<glyph unicode="&#xb0;" horiz-adv-x="913" d="M215 1368q0 47 17.5 88t48 72t71.5 49t88 18q45 0 86 -18t72 -49t48.5 -72t17.5 -88q0 -45 -17.5 -86t-48.5 -71.5t-72 -49t-86 -18.5q-47 0 -88 18.5t-71.5 49t-48 71.5t-17.5 86zM283 1368q0 -66 45 -114t112 -48q33 0 61.5 13.5t49 36t33 51t12.5 61.5q0 66 -45 114 t-111 48q-68 0 -112.5 -48t-44.5 -114z" />
<glyph unicode="&#xb1;" d="M444 111v79h936v-79h-936zM451 811v80h421v448h82v-448h424v-80h-424v-444h-82v444h-421z" />
<glyph unicode="&#xb2;" horiz-adv-x="913" d="M70 1024v39l184 209q31 39 52.5 64.5t34.5 46t19.5 39t6.5 40.5q0 53 -30 82t-89 29q-41 0 -76 -17.5t-74 -52.5q-8 -8 -8 2v45q29 23 69 42.5t89 19.5q78 0 123 -36t45 -112q0 -53 -32 -97t-85 -105l-174 -199h299v-39h-354z" />
<glyph unicode="&#xb3;" horiz-adv-x="913" d="M70 1073v41q0 8 10 4q66 -66 164 -65q55 0 97 32.5t42 92.5q0 66 -45 98.5t-111 32.5h-22v32h12q18 0 44 5.5t49.5 18.5t41 36.5t17.5 62.5q0 49 -35 80t-88 31q-41 0 -76 -13.5t-76 -48.5q-2 -4 -5 -3t-3 6v43q23 20 66 35.5t90 15.5q82 0 127 -40t45 -102 q0 -49 -28 -87t-85 -58q59 -10 93 -48t34 -97q0 -63 -47 -112.5t-139 -49.5q-51 0 -98.5 15.5t-73.5 41.5z" />
<glyph unicode="&#xb4;" d="M745 1335q51 55 89 93l68 68t56.5 54.5t59.5 55.5q23 23 52.5 22.5t45.5 -16.5q18 -23 14 -52.5t-30 -50.5q-33 -25 -66 -43t-74.5 -36.5t-93 -41t-121.5 -53.5z" />
<glyph unicode="&#xb6;" d="M262 1102q0 106 42 184t120 129t189.5 77t250.5 26h162v-1848h-82v992h-78q-293 0 -448.5 115.5t-155.5 324.5zM346 1106q0 -98 37 -168t104.5 -114t161.5 -65.5t211 -21.5h84v705h-96q-113 0 -205 -17.5t-158.5 -57.5t-102.5 -103.5t-36 -157.5zM1327 -330v1848h82 v-1848h-82z" />
<glyph unicode="&#xb7;" horiz-adv-x="913" d="M360 752q0 41 29 69.5t70 28.5t69.5 -28.5t28.5 -69.5t-28.5 -70t-69.5 -29t-70 29t-29 70z" />
<glyph unicode="&#xb8;" horiz-adv-x="913" d="M248 -375l12 27q20 -4 45 -6t45 -2q53 0 91 29.5t38 80.5t-40 82t-101 33l106 215h150l-76 -158q51 -16 77 -54t26 -83q0 -84 -69 -138t-173 -54q-29 0 -66 6t-65 22z" />
<glyph unicode="&#xb9;" horiz-adv-x="913" d="M125 1487v33q31 12 60.5 34.5t50.5 49.5h53v-578h-43v528q-31 -27 -60.5 -43t-52.5 -26q-8 -2 -8 2z" />
<glyph unicode="&#xba;" d="M393 -23h1012v-75h-1012v75zM479 791q0 119 29 223t83 182t130 122t170 44t172 -43t133 -120t85 -182.5t30 -228.5q0 -121 -30 -223t-85 -178t-131 -119t-168 -43q-96 0 -174 43t-132 120t-83 179.5t-29 223.5zM563 791q0 -109 22.5 -200t65.5 -155.5t103.5 -100.5 t136.5 -36q74 0 136.5 36t106.5 100.5t68.5 155.5t24.5 200q0 111 -22.5 201.5t-65.5 156t-105.5 101.5t-142.5 36q-76 0 -136.5 -36t-103.5 -101.5t-65.5 -156.5t-22.5 -201z" />
<glyph unicode="&#xbb;" d="M47 1366l49 64l1071 -814l-1071 -817l-47 68l973 749zM240 -287l1181 903l-1181 902l49 63l1278 -965l-1278 -966z" />
<glyph unicode="&#xbc;" d="M170 -264l1393 1706l41 -31l-1393 -1706zM270 1354v53q47 18 93.5 54t78.5 77h88v-895h-79v797q-39 -33 -87.5 -57.5t-80.5 -36.5q-13 -4 -13 8zM1047 -66l415 627h90v-614h142v-70h-142v-211h-73v211h-432v57zM1135 -47v-8h346v477l2 80l-33 -74z" />
<glyph unicode="&#xbd;" d="M170 -264l1393 1706l41 -31l-1393 -1706zM270 1354v53q47 18 93.5 54t78.5 77h88v-895h-79v797q-39 -33 -87.5 -57.5t-80.5 -36.5q-13 -4 -13 8zM1100 -268l289 331q47 51 79.5 90.5t53 73t30 64.5t9.5 63q0 158 -181 158q-57 0 -114.5 -25.5t-114.5 -80.5 q-6 -6 -11 -4.5t-5 10.5v69q47 35 107.5 68t131.5 33q121 0 193.5 -57.5t72.5 -166.5q0 -80 -52 -160.5t-134 -170.5l-248 -287h447v-70h-553v62z" />
<glyph unicode="&#xbe;" d="M170 -264l1393 1706l41 -31l-1393 -1706zM221 733v68q0 16 17 4q45 -47 112.5 -71.5t138.5 -24.5q86 0 146.5 48t60.5 138q0 94 -64.5 143t-168.5 49h-39v64h20q31 0 70 6t75 25.5t60.5 54.5t24.5 92q0 74 -49.5 116t-137.5 42q-59 0 -111 -18.5t-112 -67.5 q-16 -12 -16 6v63q35 33 102.5 59.5t136.5 26.5q123 0 195 -61t72 -158q0 -72 -36 -130t-108 -87q66 -20 117 -76.5t51 -148.5q0 -53 -20.5 -99t-59.5 -81t-92.5 -55.5t-116.5 -20.5q-82 0 -153.5 26.5t-114.5 67.5zM1047 -66l415 627h90v-614h142v-70h-142v-211h-73v211 h-432v57zM1135 -47v-8h346v477l2 80l-33 -74z" />
<glyph unicode="&#xbf;" d="M565 104q0 61 18.5 116.5t50.5 103t73 87.5t86 70q86 59 138 136t52 182v184h82v-178q0 -68 -16.5 -122t-47 -100t-71.5 -87t-90 -78q-78 -55 -132.5 -132t-54.5 -173q0 -139 82 -215t230 -76q76 0 155.5 28.5t151.5 83.5l43 -55q-78 -63 -170 -97t-197 -34 q-86 0 -156.5 25.5t-120.5 73t-78 112.5t-28 145zM899 1346q0 41 27.5 68.5t72.5 27.5q43 0 71 -28t28 -68q0 -41 -28 -70t-71 -29q-47 0 -73.5 29t-26.5 70z" />
<glyph unicode="&#xc6;" d="M188 -129l684 1501h699v-76h-570v-606h517v-74h-517v-669h572v-76h-655v543h-388l-245 -543h-97zM563 489h355v787z" />
<glyph unicode="&#xd0;" d="M193 406v75h288v891h391q139 0 255 -52t199 -149.5t129 -236.5t46 -313q0 -160 -43 -297.5t-123 -237.5t-194.5 -157.5t-255.5 -57.5h-404v535h-288zM565 -53h303q135 0 238.5 53t172.5 145.5t103.5 214t34.5 261.5q0 150 -37 274.5t-108.5 213.5t-176 138t-239.5 49 h-291v-815h506v-75h-506v-459z" />
<glyph unicode="&#xd7;" d="M418 1165l57 60l438 -439l439 439l57 -60l-436 -436l434 -436l-59 -57l-435 434l-434 -434l-59 57l436 436z" />
<glyph unicode="&#xd8;" d="M281 -104l196 243q-59 96 -93 220t-34 266q0 156 39 293t112.5 238t178 159.5t233.5 58.5t233.5 -56t176.5 -149l195 240l55 -47l-207 -254q59 -94 92 -216t33 -261q0 -152 -40 -288t-114.5 -238.5t-181 -163t-242.5 -60.5q-123 0 -222 54.5t-169 140.5l-184 -226z M432 635q0 -127 26.5 -236.5t73.5 -191.5l740 899q-66 92 -158 142t-203 50q-106 0 -194 -48t-151.5 -136t-98.5 -210t-35 -269zM578 141q59 -86 147 -135t197 -49q98 0 187 48t155.5 136t105.5 214t39 282q0 123 -25.5 226.5t-72.5 178.5z" />
<glyph unicode="&#xde;" d="M535 -137v1536h79v-305h299q90 0 175.5 -30t151 -89.5t105 -149.5t39.5 -211t-39.5 -210t-106.5 -147t-152 -87t-173 -29h-299v-278h-79zM614 215h293q78 0 148.5 23.5t125 72.5t87 124t32.5 179q0 100 -30.5 176t-83.5 127.5t-125 77t-154 25.5h-293v-805z" />
<glyph unicode="&#xdf;" d="M506 -309v1280q0 92 30.5 167.5t85 130t129 84t164.5 29.5q88 0 161 -25.5t125 -69.5t81 -105.5t29 -132.5q0 -66 -20.5 -120.5t-53.5 -96t-75 -69.5t-85 -38q72 -6 131.5 -40t102.5 -88t67.5 -125t24.5 -150q0 -96 -36 -179.5t-98.5 -142.5t-147.5 -93t-181 -34 q-47 0 -96 5t-96.5 14.5t-88.5 24.5t-69 34v-260h-84zM590 29q61 -45 153.5 -62.5t176.5 -17.5q88 0 161.5 26.5t126 75.5t82 119t29.5 158q0 166 -101.5 258t-297.5 92v78q66 6 122 28.5t97 59.5t64.5 87t23.5 113q0 113 -81 188t-222 75q-74 0 -135.5 -22.5t-105.5 -65.5 t-68.5 -103.5t-24.5 -134.5v-952z" />
<glyph unicode="&#xe6;" d="M235 132.5q9 53.5 34.5 96.5t62.5 76t82 53q39 18 92 29.5t113.5 16t124 6.5t122.5 2v96q0 70 -19.5 131t-54 107.5t-84 73t-110.5 26.5q-111 0 -185.5 -62.5t-80.5 -183.5h-88q4 76 34.5 135.5t79 100.5t110.5 63.5t130 22.5q57 0 110.5 -21.5t96.5 -56.5t71.5 -79 t38.5 -89q8 39 34 83t65 79.5t90 59.5t110 24q78 0 142.5 -41t110.5 -115t71 -178.5t25 -231.5v-18h-615q0 -96 20.5 -181t57.5 -148.5t88 -100.5t117 -37q106 0 169.5 66.5t67.5 183.5h84q-2 -74 -27.5 -134.5t-68.5 -103.5t-100.5 -65.5t-122.5 -22.5q-61 0 -113.5 24.5 t-94.5 64.5t-70.5 92.5t-43.5 105.5q-14 -49 -44.5 -100.5t-79 -93.5t-111 -67.5t-139.5 -25.5q-57 0 -108.5 16.5t-91.5 45t-66.5 70.5t-34.5 93q-10 59 -1 112.5zM317 37q16 -72 70.5 -119t140.5 -47q78 0 140.5 33t105.5 86t66.5 123.5t23.5 146.5v78q-61 0 -123.5 -2 t-119 -7t-103.5 -15.5t-80 -26.5q-66 -35 -101.5 -101.5t-19.5 -148.5zM948 412h531q-2 80 -18.5 157.5t-49.5 139t-82 99.5t-115 38q-68 0 -117.5 -37t-82.5 -98.5t-49.5 -139t-16.5 -159.5z" />
<glyph unicode="&#xf0;" d="M471 291q0 94 33 175t90 139.5t134 91t165 32.5q55 0 110.5 -16.5t100.5 -41t77.5 -54t45.5 -58.5q-20 135 -91 275.5t-184 257.5l-243 -179l-50 58l238 174q-49 45 -109.5 87t-132.5 83l33 55q154 -82 268 -180l164 119l47 -60l-155 -114q147 -145 227 -339t80 -419 q0 -115 -34 -206t-91 -154.5t-134 -98.5t-163 -35q-90 0 -167 31t-135 85t-91 129t-33 163zM555 289q0 -72 25.5 -131.5t69.5 -104.5t106.5 -69.5t136.5 -24.5q78 0 140.5 29.5t107.5 80t68.5 116t23.5 137.5t-25.5 133t-71.5 105t-108.5 68.5t-136.5 24.5 q-78 0 -140.5 -28.5t-105.5 -77.5t-66.5 -115.5t-23.5 -142.5z" />
<glyph unicode="&#xf7;" d="M362 709v79h1100v-79h-1100zM809 295q0 41 29.5 72.5t72.5 31.5q45 0 73 -31.5t28 -72.5q0 -43 -28 -72.5t-73 -29.5q-43 0 -72.5 29.5t-29.5 72.5zM809 1204q0 41 29.5 72t72.5 31q45 0 73 -31t28 -72q0 -45 -28 -74.5t-73 -29.5q-43 0 -72.5 29.5t-29.5 74.5z" />
<glyph unicode="&#xf8;" d="M399 -170l160 213q-70 72 -111.5 174t-41.5 229q0 125 40.5 229.5t109.5 179.5t160 116t191 41q80 0 157 -29t138 -80l139 189l58 -39l-146 -197q72 -70 116 -175.5t44 -234.5q0 -125 -40 -228t-108.5 -178t-160.5 -116t-197 -41q-82 0 -158.5 29t-138.5 82l-147 -201z M489 446q0 -100 32 -188t87 -149l549 733q-51 43 -114.5 68.5t-135.5 25.5q-96 0 -173 -38t-131 -104.5t-84 -156t-30 -191.5zM657 53q49 -43 114 -68.5t136 -25.5q90 0 167 38t134.5 103.5t89 154.5t31.5 191q0 109 -33.5 198t-87.5 151z" />
<glyph unicode="&#xfe;" d="M545 -137v1515h82v-436q141 57 276 66.5t271 -25.5q109 -29 178 -123t73 -248q0 -72 -18 -132t-51 -109t-75 -89t-91 -67q-57 -31 -128 -48t-145.5 -19.5t-149.5 8t-140 34.5v-327h-82zM627 262q66 -23 136.5 -33t138 -7t130 18.5t113.5 40.5q92 45 144 132.5t52 200.5 t-54 191t-146 106q-117 35 -252 24t-262 -69v-604z" />
<glyph unicode="&#x152;" d="M164 625q0 158 39 294t107.5 236t160.5 157.5t201 57.5q43 0 83 -10t74.5 -26.5t61.5 -37t43 -39.5v64h721v-76h-637v-557h559v-76h-559v-639h637v-75h-721v84q-12 -20 -41 -41t-67 -38.5t-81 -27.5t-83 -10q-106 0 -197.5 57.5t-158 158.5t-104.5 240.5t-38 303.5z M246 629q0 -145 30.5 -270.5t86 -218.5t133 -146t170.5 -53q86 0 161.5 37.5t106.5 107.5v1079q-39 59 -106.5 94t-153.5 35q-96 0 -174 -51t-135.5 -141t-88 -211t-30.5 -262z" />
<glyph unicode="&#x153;" d="M201 438q0 127 28.5 232.5t78.5 180.5t120 117t152 42q49 0 99 -20.5t95 -60.5t80 -99.5t57 -139.5q20 80 57.5 139.5t83.5 99.5t97 60.5t100 20.5q66 0 132.5 -31t119.5 -101.5t87 -184t34 -279.5h-668q0 -100 23.5 -186.5t63.5 -149t94.5 -98t113.5 -35.5 q86 0 150.5 47t95.5 131h90q-20 -55 -55 -102.5t-78 -81t-93 -52t-104 -18.5q-53 0 -108 24.5t-102.5 68.5t-83.5 106.5t-50 140.5q-16 -76 -50 -138.5t-78 -107.5t-96 -69.5t-107 -24.5q-82 0 -152 41t-120 116.5t-78.5 180t-28.5 231.5zM285 438q0 -109 20.5 -198.5 t59 -155.5t93 -102.5t122.5 -36.5t122 42t90.5 110.5t56 157.5t19.5 183t-19.5 183.5t-56 159t-91 111.5t-121.5 42q-68 0 -122.5 -37t-93 -102.5t-59 -156.5t-20.5 -200zM954 487h584q0 100 -21.5 183.5t-60.5 141.5t-91 90t-116 32q-57 0 -110.5 -34t-94 -94.5 t-65.5 -142.5t-25 -176z" />
<glyph unicode="&#x2dc;" d="M440 1415q18 43 46 81t60 66.5t67.5 46t72.5 19.5q68 4 127 -23.5t102 -64.5q45 -37 95.5 -67.5t101.5 -26.5q66 4 122 53t91 115q8 10 22.5 6t10.5 -18q-14 -39 -39 -77t-57.5 -68t-69.5 -49t-76 -22q-59 -4 -121.5 24t-103.5 67q-47 41 -100.5 70.5t-112.5 25.5 q-57 -4 -110.5 -52t-92.5 -118q-8 -16 -23.5 -7t-11.5 19z" />
<glyph unicode="&#x2000;" horiz-adv-x="818" />
<glyph unicode="&#x2001;" horiz-adv-x="1636" />
<glyph unicode="&#x2002;" horiz-adv-x="818" />
<glyph unicode="&#x2003;" horiz-adv-x="1636" />
<glyph unicode="&#x2004;" horiz-adv-x="545" />
<glyph unicode="&#x2005;" horiz-adv-x="409" />
<glyph unicode="&#x2006;" horiz-adv-x="272" />
<glyph unicode="&#x2007;" horiz-adv-x="272" />
<glyph unicode="&#x2008;" horiz-adv-x="204" />
<glyph unicode="&#x2009;" horiz-adv-x="327" />
<glyph unicode="&#x200a;" horiz-adv-x="90" />
<glyph unicode="&#x2010;" horiz-adv-x="1193" d="M182 709v79h830v-79h-830z" />
<glyph unicode="&#x2011;" horiz-adv-x="1193" d="M182 709v79h830v-79h-830z" />
<glyph unicode="&#x2012;" horiz-adv-x="1193" d="M182 709v79h830v-79h-830z" />
<glyph unicode="&#x2013;" d="M590 608v68h670v-68h-670z" />
<glyph unicode="&#x2014;" d="M-25 608v68h1878v-68h-1878z" />
<glyph unicode="&#x2018;" horiz-adv-x="620" d="M322 1307q0 92 44 177t150 128l19 -31q-63 -29 -96 -75t-44 -97q-4 -29 25 -29q39 0 68.5 -28.5t29.5 -69.5t-29.5 -66.5t-68.5 -25.5t-68.5 28.5t-29.5 88.5z" />
<glyph unicode="&#x2019;" horiz-adv-x="620" d="M82 1180q63 29 96 74.5t43 97.5q5 28 -24 28q-39 0 -69 29t-30 70t30 66.5t69 25.5t68.5 -29t29.5 -88q0 -92 -44 -177t-151 -128z" />
<glyph unicode="&#x201c;" horiz-adv-x="913" d="M338 1307q0 92 44 177t150 128l19 -31q-63 -29 -96 -75t-43 -97q-5 -29 24 -29q39 0 69 -28.5t30 -69.5t-30 -66.5t-69 -25.5t-68.5 28.5t-29.5 88.5zM621 1307q0 92 44 177t150 128l19 -31q-63 -29 -96 -75t-44 -97q-4 -29 25 -29q39 0 68.5 -28.5t29.5 -69.5 t-29.5 -66.5t-68.5 -25.5t-68.5 28.5t-29.5 88.5z" />
<glyph unicode="&#x201d;" horiz-adv-x="913" d="M80 1180q63 29 96 74.5t43 97.5q5 28 -24 28q-39 0 -69 29t-30 70t30 66.5t69 25.5t68.5 -29t29.5 -88q0 -92 -44 -177t-151 -128zM362 1180q63 29 96.5 74.5t43.5 97.5q4 28 -25 28q-39 0 -68.5 29t-29.5 70t29.5 66.5t68.5 25.5t68.5 -29t29.5 -88q0 -92 -44 -177 t-150 -128z" />
<glyph unicode="&#x2022;" d="M737 612q0 82 49.5 131.5t126.5 49.5q76 0 125 -49.5t49 -131.5q0 -80 -49 -129t-125 -49q-78 0 -127 50.5t-49 127.5z" />
<glyph unicode="&#x2026;" d="M322 752q0 41 28.5 69.5t69.5 28.5t69.5 -28.5t28.5 -69.5t-28.5 -70t-69.5 -29t-69.5 29t-28.5 70zM813 752q0 41 28.5 69.5t69.5 28.5t70 -28.5t29 -69.5t-29 -70t-70 -29t-69.5 29t-28.5 70zM1305 752q0 41 28.5 69.5t69.5 28.5t69.5 -28.5t28.5 -69.5t-28.5 -70 t-69.5 -29t-69.5 29t-28.5 70z" />
<glyph unicode="&#x202f;" horiz-adv-x="327" />
<glyph unicode="&#x2039;" d="M133 639l1659 997v-77l-1526 -920l1526 -915v-84z" />
<glyph unicode="&#x203a;" d="M55 -276l1526 915l-1526 920v77l1659 -997l-1659 -999v84z" />
<glyph unicode="&#x205f;" horiz-adv-x="409" />
<glyph unicode="&#x20ac;" d="M256 457v80h211q-4 39 -7 78.5t-3 80.5q0 90 12 170h-193v80h209q31 125 89.5 224.5t139.5 168t180 105.5t210 37q123 0 217 -32t166 -101v-88q0 -23 -14 -9q-45 45 -88.5 75t-87.5 47.5t-91 23.5t-98 6q-199 0 -336 -123t-188 -334h510v-80h-525q-12 -78 -12 -161 q0 -45 3 -87.5t7 -80.5h506v-80h-491q47 -227 182 -342t338 -115q145 0 236.5 49t150.5 123q4 6 9 5t5 -9v-96q-66 -68 -173 -111t-245 -43q-236 0 -394.5 141.5t-211.5 397.5h-223z" />
<glyph unicode="&#x2122;" d="M133 1403v61h623v-61h-279v-670h-67v670h-277zM844 733v733h102l264 -630l256 630h105v-733h-70v637l-258 -637h-61l-271 637v-637h-67z" />
<glyph unicode="&#x25fc;" horiz-adv-x="1034" d="M0 0v1034h1034v-1034h-1034z" />
</font>
</defs>
</svg>
