<?xml version="1.0" standalone="no"?>
<!DOCTYPE svg PUBLIC "-//W3C//DTD SVG 1.1//EN" "http://www.w3.org/Graphics/SVG/1.1/DTD/svg11.dtd" >
<svg xmlns="http://www.w3.org/2000/svg" xmlns:xlink="http://www.w3.org/1999/xlink" version="1.1">
<metadata></metadata>
<defs>
<font id="ktg_sangsangtitleb" horiz-adv-x="1740" >
<font-face units-per-em="2048" ascent="1638" descent="-410" />
<missing-glyph horiz-adv-x="532" />
<glyph horiz-adv-x="0" />
<glyph horiz-adv-x="682" />
<glyph unicode=" "  horiz-adv-x="532" />
<glyph unicode="&#x09;" horiz-adv-x="532" />
<glyph unicode="&#xa0;" horiz-adv-x="532" />
<glyph unicode="!" horiz-adv-x="630" d="M195 170q0 53 33.5 88t86.5 35q51 0 86 -35t35 -88q0 -51 -34.5 -85t-86.5 -34q-53 0 -86.5 34t-33.5 85zM205 1337v43h221v-43l-33 -925h-157z" />
<glyph unicode="&#x22;" horiz-adv-x="776" d="M137 1550h201l-23 -372h-155zM449 1550h202l-24 -372h-154z" />
<glyph unicode="#" horiz-adv-x="1282" d="M76 410l26 188h205l43 266h-215l27 189h217l53 327h205l-51 -327h239l54 327h204l-51 -327h217l-26 -189h-219l-41 -266h225l-27 -188h-229l-53 -347h-209l55 347h-240l-53 -347h-209l56 347h-203zM516 598h238l43 266h-240z" />
<glyph unicode="$" horiz-adv-x="1107" d="M92 199l96 182q80 -47 159 -76t165 -37q76 -8 141.5 2.5t112.5 67.5q27 33 35 70.5t0 72.5t-32 63.5t-60 43.5q-41 16 -92.5 26.5t-107.5 22.5t-112.5 30.5t-105.5 49.5q-61 39 -101 91t-58.5 111.5t-15.5 120t25 115.5q35 86 116 149.5t194 75.5q10 2 20 2t21 2v209h161 v-217q86 -12 159 -37.5t132 -56.5l-90 -182q-72 35 -160 63.5t-174 22.5q-80 -6 -126 -40t-58 -79q-14 -49 11.5 -103.5t84.5 -84.5q86 -41 182.5 -58.5t182.5 -44.5q84 -25 135 -85t70.5 -137t9 -160t-48.5 -152q-51 -86 -134.5 -126t-175.5 -50v-220h-161v220 q-111 10 -209.5 46t-190.5 87z" />
<glyph unicode="%" horiz-adv-x="1605" d="M123 940v190q0 61 20.5 110.5t57.5 84.5t86 53.5t104 18.5q57 0 106.5 -18.5t86.5 -53.5t57.5 -84t20.5 -111v-190q0 -61 -20.5 -111.5t-57.5 -84t-86 -52t-107 -18.5q-55 0 -104 18.5t-86 52t-57.5 84t-20.5 111.5zM293 961q0 -66 22.5 -92.5t75.5 -26.5t78 27.5 t25 91.5v151q0 53 -25 85t-78 32t-75.5 -31t-22.5 -86v-151zM418 123l629 1274l147 -68l-627 -1278zM952 317v191q0 61 20.5 110.5t57.5 84t86 53t105 18.5q57 0 106 -18.5t86 -53t57.5 -84t20.5 -110.5v-191q0 -61 -20.5 -111t-57.5 -84t-86 -52.5t-106 -18.5 q-55 0 -104.5 18.5t-86.5 52.5t-57.5 84t-20.5 111zM1122 338q0 -66 22.5 -92.5t76.5 -26.5q53 0 77.5 27.5t24.5 91.5v151q0 53 -24.5 85t-77.5 32t-76 -30.5t-23 -86.5v-151z" />
<glyph unicode="&#x26;" horiz-adv-x="1327" d="M139.5 457q10.5 80 58.5 157.5t140 139.5l59 39l-41 47q-47 53 -75.5 119.5t-28.5 142.5q0 66 24.5 122t68.5 96t105.5 62.5t135.5 22.5t134 -22.5t103 -63.5t66.5 -97.5t23.5 -121.5q0 -98 -54 -172t-128 -127l-45 -33l195 -221q27 37 55.5 70.5t63 60.5t79.5 44t105 23 l39 -176q-78 -10 -127 -56t-92 -105l200 -226l-147 -125l-170 189q-43 -49 -96 -96q-61 -57 -138.5 -84t-155 -24t-148 33.5t-122.5 88.5q-51 59 -74.5 136t-13 157zM333 366.5q7 -36.5 32 -63.5q66 -72 138 -72t140 48q63 47 117 110l-236 262l-75 -53q-47 -35 -75 -75 t-38 -80t-3 -76.5zM461 1100q0 -31 9 -63.5t50 -80.5l45 -53l37 25q113 76 113 170q0 55 -35 92t-94 37q-63 0 -94 -35t-31 -92z" />
<glyph unicode="'" horiz-adv-x="344" d="M68 1550h208l-22 -372h-164z" />
<glyph unicode="(" horiz-adv-x="606" d="M152 248v887q0 61 8 119.5t33 105.5q25 45 67.5 91t91.5 91l148 -137q-49 -45 -70.5 -69.5t-38.5 -55.5q-14 -27 -22.5 -66.5t-8.5 -89.5v-864q0 -98 27 -154q18 -41 46 -71.5t63 -59.5l-142 -129q-66 63 -103.5 104.5t-55.5 76.5q-27 49 -35 108.5t-8 112.5z" />
<glyph unicode=")" horiz-adv-x="606" d="M109 1405l147 137q49 -45 92 -91t68 -91q25 -47 33 -105.5t8 -119.5v-887q0 -53 -8.5 -112.5t-34.5 -108.5q-18 -35 -56.5 -76t-103.5 -105l-141 129q35 29 62.5 60t45.5 71q27 55 27 154v864q0 49 -8.5 89t-22.5 67q-16 31 -37.5 55.5t-70.5 69.5z" />
<glyph unicode="*" horiz-adv-x="925" d="M92 1110l203 113l-199 104l80 152l207 -136l-10 244h176l-12 -237l198 129l90 -150l-196 -104l205 -109l-95 -147l-202 137l10 -248h-180l12 246l-195 -137z" />
<glyph unicode="+" horiz-adv-x="1015" d="M94 635v180h316v326h196v-326h316v-180h-316v-318h-196v318h-316z" />
<glyph unicode="," horiz-adv-x="368" d="M47 -182q55 29 99.5 70.5t48.5 76.5q-33 -6 -57.5 2t-40 23.5t-23.5 37t-8 42.5q0 51 37.5 80.5t78.5 29.5q33 0 57.5 -14t41 -37t23.5 -51.5t7 -54.5q0 -92 -54 -163t-159 -120z" />
<glyph unicode="-" horiz-adv-x="1003" d="M164 633v184h676v-184h-676z" />
<glyph unicode="." horiz-adv-x="368" d="M63 84q0 51 34 86t85 35t86 -35t35 -86t-35 -85t-86 -34t-85 34t-34 85z" />
<glyph unicode="/" horiz-adv-x="722" d="M2 -92l539 1648l182 -59l-541 -1642z" />
<glyph unicode="0" horiz-adv-x="1081" d="M94 326v735q0 63 11.5 113.5t43 83t87 50t143.5 17.5h319q86 0 141.5 -17.5t87 -50t44 -83t12.5 -113.5v-735q0 -63 -12.5 -112.5t-44 -82.5t-87 -50.5t-141.5 -17.5h-319q-88 0 -143.5 17.5t-87 50.5t-43 82t-11.5 113zM307 328q0 -41 21.5 -56.5t52.5 -15.5h315 q31 0 52.5 15.5t21.5 56.5v731q0 41 -21.5 57.5t-52.5 16.5h-315q-31 0 -52.5 -16.5t-21.5 -57.5v-731z" />
<glyph unicode="1" horiz-adv-x="1081" d="M322 1159l120 184q211 -94 211 -317v-963h-213v912q0 78 -30.5 116.5t-87.5 67.5z" />
<glyph unicode="2" horiz-adv-x="1081" d="M106 63v394q0 63 17.5 107t45.5 74t60.5 46t63.5 27l389 129q27 14 51.5 38.5t24.5 53.5v125q0 41 -21.5 57t-52.5 16h-541v195h541q88 0 143.5 -17.5t87 -50t43 -83t11.5 -113.5v-143q0 -72 -16.5 -116t-45 -73t-68.5 -46t-87 -34l-355 -117q-80 -33 -80 -92v-182h652 v-195h-863z" />
<glyph unicode="3" horiz-adv-x="1081" d="M113 63v195h538q31 0 52.5 15.5t21.5 56.5v223q0 41 -24.5 51t-49.5 10h-420v191h420q25 0 49.5 10t24.5 51v191q0 41 -21.5 57t-52.5 16h-516v195h516q88 0 143.5 -17.5t87 -50t43 -83t11.5 -113.5v-195q0 -53 -26.5 -96t-78.5 -63q47 -16 76 -50t29 -110v-221 q0 -63 -11.5 -112.5t-43 -82.5t-87 -50.5t-143.5 -17.5h-538z" />
<glyph unicode="4" horiz-adv-x="1081" d="M31 502q0 39 17.5 84t70.5 116l469 623h260v-815h166v-191h-166v-256h-211v256h-350q-139 0 -197.5 53.5t-58.5 129.5zM264 535q4 -25 39 -25h334v549l-358 -488q-14 -20 -15 -36z" />
<glyph unicode="5" horiz-adv-x="1081" d="M121 63v195h557q31 0 52.5 15.5t21.5 56.5v233q0 41 -21.5 56.5t-52.5 15.5h-557v690h825v-195h-612v-305h346q88 0 143.5 -17t87 -51t43 -82t11.5 -112v-237q0 -63 -11.5 -112.5t-43 -82.5t-87 -50.5t-143.5 -17.5h-559z" />
<glyph unicode="6" horiz-adv-x="1081" d="M104 326v735q0 63 11.5 113.5t43 83t87 50t143.5 17.5h555v-195h-549q-31 0 -52 -16t-21 -57v-232h366q88 0 143.5 -17t87 -51t43 -82t11.5 -112v-237q0 -63 -11.5 -112.5t-43 -82.5t-87 -50.5t-143.5 -17.5h-299q-88 0 -143.5 17.5t-87 50.5t-43 82t-11.5 113zM317 330 q0 -41 21.5 -56.5t52.5 -15.5h297q31 0 52.5 15.5t21.5 56.5v233q0 41 -21.5 56.5t-52.5 15.5h-371v-305z" />
<glyph unicode="7" horiz-adv-x="1081" d="M111 1130v195h571q88 0 143.5 -17.5t87 -50t43 -83t11.5 -113.5v-143q0 -51 -10.5 -90.5t-31 -70t-51 -56t-71.5 -50.5l-295 -176q-14 -8 -19.5 -21.5t-5.5 -27.5v-363h-213v357q0 82 32 134t83 83l307 182q41 25 51.5 42.5t10.5 58.5v137q0 41 -21.5 57t-52.5 16h-569z " />
<glyph unicode="8" horiz-adv-x="1081" d="M94 326v221q0 76 30 109.5t75 50.5q-49 20 -77 63t-28 96v195q0 63 11.5 113.5t43 83t87 50t143.5 17.5h319q86 0 141.5 -17.5t87 -50t44 -83t12.5 -113.5v-195q0 -53 -27.5 -96t-76.5 -63q45 -16 74.5 -50t29.5 -110v-221q0 -63 -12.5 -112.5t-44 -82.5t-87 -50.5 t-141.5 -17.5h-319q-88 0 -143.5 17.5t-87 50.5t-43 82t-11.5 113zM309 328q0 -41 21.5 -56.5t52.5 -15.5h313q31 0 52.5 15.5t21.5 56.5v227q0 41 -24.5 51t-49.5 10h-313q-25 0 -49.5 -10t-24.5 -51v-227zM309 866q0 -41 24.5 -51t49.5 -10h313q25 0 49.5 10t24.5 51v193 q0 41 -21.5 57.5t-52.5 16.5h-313q-31 0 -52.5 -16.5t-21.5 -57.5v-193z" />
<glyph unicode="9" horiz-adv-x="1081" d="M104 825v236q0 63 11.5 113.5t43 83t87 50t143.5 17.5h299q88 0 143.5 -17.5t87 -50t43 -83t11.5 -113.5v-735q0 -63 -11.5 -112.5t-43 -82.5t-87 -50.5t-143.5 -17.5h-555v195h549q31 0 52.5 15.5t21.5 56.5v233h-367q-88 0 -143.5 16.5t-87 49.5t-43 82t-11.5 114z M317 827q0 -41 21.5 -56t52.5 -15h369v301q0 41 -21.5 57t-52.5 16h-295q-31 0 -52.5 -16t-21.5 -57v-230z" />
<glyph unicode=":" horiz-adv-x="573" d="M168 236q0 51 34 85.5t85 34.5t86 -34.5t35 -85.5t-35 -85t-86 -34t-85 34t-34 85zM168 991q0 51 34 86t85 35t86 -35t35 -86t-35 -85t-86 -34t-85 34t-34 85z" />
<glyph unicode=";" horiz-adv-x="573" d="M152 -6q55 29 99 70.5t48 76.5q-33 -6 -57.5 2.5t-40 23.5t-23.5 36.5t-8 42.5q0 51 38 80.5t79 29.5q33 0 57.5 -14t40.5 -36.5t23.5 -51.5t7.5 -55q0 -92 -54.5 -163t-158.5 -120zM168 991q0 51 34 86t85 35t86 -35t35 -86t-35 -85t-86 -34t-85 34t-34 85z" />
<glyph unicode="&#x3c;" horiz-adv-x="983" d="M123 631v188l696 398l84 -175l-573 -317l573 -317l-84 -175z" />
<glyph unicode="=" horiz-adv-x="1015" d="M135 442v185h748v-185h-748zM135 807v192h748v-192h-748z" />
<glyph unicode="&#x3e;" horiz-adv-x="983" d="M80 408l573 317l-573 317l84 175l696 -398v-188l-696 -398z" />
<glyph unicode="?" horiz-adv-x="1024" d="M80 961v147q0 68 12 118t45 85t90.5 52t147.5 17h284q84 0 138.5 -16t87.5 -47t45 -74t12 -94v-162q0 -94 -31.5 -149.5t-103.5 -96.5l-209 -131q-16 -10 -21.5 -22.5t-5.5 -32.5v-193h-204v203q0 68 21.5 112t94.5 89l187 115q45 25 56 46t11 66v131q0 39 -17.5 53.5 t-51.5 14.5h-301q-35 0 -58.5 -16.5t-23.5 -63.5v-151h-205zM352 170q0 51 34 86t85 35t86 -35t35 -86t-35 -85t-86 -34t-85 34t-34 85z" />
<glyph unicode="@" horiz-adv-x="1402" d="M127 377v569q0 104 24.5 185t88.5 147q117 117 325 117h269q100 0 179 -28t144 -89q68 -63 92.5 -145t24.5 -187v-883h-197v91q-55 -53 -107 -77t-126 -24q-72 0 -134.5 26.5t-97.5 70.5q-66 63 -86 144t-20 204q0 127 16.5 204.5t67.5 137.5q41 49 107.5 78.5 t144.5 29.5q72 0 125 -23.5t108 -70.5v90q0 68 -13 114t-54 85q-68 61 -195 61h-229q-121 0 -189 -61q-41 -43 -55 -87t-14 -112v-561q0 -72 19.5 -114t76.5 -85l-143 -141q-43 35 -73 68.5t-47.5 71.5t-24.5 85t-7 109zM709 498q0 -59 7 -109.5t26.5 -86.5t55.5 -56.5 t93 -20.5q59 0 95 20.5t56.5 56.5t26.5 86.5t6 109.5q0 61 -6 112.5t-26.5 87t-56.5 56t-95 20.5q-57 0 -93 -20.5t-55.5 -56t-26.5 -87t-7 -112.5z" />
<glyph unicode="A" horiz-adv-x="1189" d="M31 117l477 1263h184l475 -1263l-198 -68l-117 322h-504l-117 -320zM418 563h362l-98 271l-82 266l-82 -266z" />
<glyph unicode="B" horiz-adv-x="1142" d="M123 63v1317h500q92 0 165.5 -26.5t126 -74.5t80 -116.5t27.5 -150.5q0 -98 -46 -166t-112 -105q76 -41 129.5 -114.5t53.5 -190.5q0 -184 -112 -278.5t-290 -94.5h-522zM336 254h295q104 0 157.5 53t53.5 139q0 92 -53.5 144.5t-157.5 52.5h-295v-389zM336 831h276 q98 0 151.5 41.5t53.5 133.5t-55 138t-154 46h-272v-359z" />
<glyph unicode="C" horiz-adv-x="1093" d="M61 727q0 197 64.5 331t157.5 216q66 59 161 91t211 32q129 0 219.5 -42t147.5 -87q-31 -41 -59.5 -76t-61.5 -76q-39 31 -104.5 59.5t-141.5 28.5q-150 0 -235 -90q-27 -29 -53.5 -63.5t-47 -80.5t-34 -105.5t-13.5 -137.5q0 -88 14.5 -153.5t39 -114.5t54.5 -83t60 -59 q45 -35 101.5 -53t113.5 -18q76 0 147.5 31.5t129.5 84.5l121 -153q-92 -86 -194.5 -122t-203.5 -36q-104 0 -203.5 29t-172.5 98q-43 39 -82 90t-69 118t-48.5 152t-18.5 189z" />
<glyph unicode="D" horiz-adv-x="1148" d="M123 63v1317h463q106 0 194 -31.5t154 -97.5q49 -53 76.5 -110.5t40 -120t14.5 -128t2 -132.5v-55q0 -68 -2 -139.5t-14.5 -139.5t-40 -129t-78.5 -109q-63 -59 -151.5 -92t-194.5 -33h-463zM336 256h233q66 0 126.5 22.5t95.5 63.5q49 55 58 156.5t9 232.5 q0 129 -10 221t-57 146q-35 41 -95.5 65.5t-126.5 24.5h-233v-932z" />
<glyph unicode="E" horiz-adv-x="1048" d="M123 63v1317h840v-192h-627v-357h543v-188h-543v-387h651v-193h-864z" />
<glyph unicode="F" horiz-adv-x="983" d="M123 63v1317h833v-192h-620v-373h543v-186h-543v-566h-213z" />
<glyph unicode="G" horiz-adv-x="1175" d="M100 723q0 199 60.5 336t152.5 219q135 123 361 123q125 0 217 -42t149 -87l-120 -152q-39 31 -104.5 59.5t-141.5 28.5q-139 0 -225 -90q-53 -55 -95.5 -148t-42.5 -247q0 -135 30 -220t71 -138q53 -66 124.5 -92.5t147.5 -28.5h21q36 0 72 5q46 7 87 30v329h-207v193 h410v-643q-80 -63 -176 -86q-88 -21 -184 -21h-17q-154 2 -263.5 51.5t-180.5 141.5q-74 92 -110 215t-36 264z" />
<glyph unicode="H" horiz-adv-x="1193" d="M14 1214l115 183q207 -96 207 -326v-264h522v573h213v-1317h-213v551h-522v-551h-213v955q0 84 -24.5 124t-84.5 72z" />
<glyph unicode="I" horiz-adv-x="458" d="M123 63v1317h213v-1317h-213z" />
<glyph unicode="J" horiz-adv-x="923" d="M20 186l119 158q37 -35 96.5 -64.5t116.5 -29.5q106 0 171 69.5t65 198.5v862h213v-876q0 -211 -117 -330t-332 -123h-9q-74 0 -160 31q-91 33 -163 104z" />
<glyph unicode="K" horiz-adv-x="1056" d="M14 1214l115 183q207 -96 207 -326v-237l502 552l153 -137l-479 -518l524 -526l-147 -144l-553 564v-562h-213v955q0 84 -24.5 124t-84.5 72z" />
<glyph unicode="L" horiz-adv-x="993" d="M14 1214l115 183q207 -96 207 -326v-815h637v-193h-850v955q0 84 -24.5 124t-84.5 72z" />
<glyph unicode="M" horiz-adv-x="1544" d="M123 63v1317h371l211 -843l67 -301l68 301l211 843h370v-1317h-207v1123l-284 -1123h-316l-284 1123v-1123h-207z" />
<glyph unicode="N" horiz-adv-x="1247" d="M123 63v1317h344l311 -766l133 -356v1122h213v-1317h-342l-303 732l-145 391v-1123h-211z" />
<glyph unicode="O" horiz-adv-x="1142" d="M82 727q0 94 3 174t16.5 145.5t40 119t71.5 96.5q76 72 162 104.5t196 32.5q111 0 197 -33t162 -104q45 -43 71.5 -96.5t40 -119t16.5 -145.5t3 -174q0 -96 -4 -175t-17.5 -143.5t-39 -116.5t-70.5 -97q-144 -144 -359 -144t-358 144q-45 45 -70.5 97t-39 116.5 t-17.5 143.5t-4 175zM297 727q0 -100 3 -167.5t12.5 -115t25.5 -78t43 -55.5q31 -29 77.5 -48t112.5 -19t112 19.5t79 47.5q27 25 43 55.5t25.5 78t12.5 115t3 167.5q0 96 -3 161.5t-11.5 110.5t-22.5 75t-35 54q-74 78 -203 78t-202 -78q-23 -25 -37.5 -54.5t-21.5 -75.5 t-10 -111.5t-3 -159.5z" />
<glyph unicode="P" horiz-adv-x="1085" d="M123 63v1317h510q96 0 174 -31.5t133 -86t85 -129t30 -160.5q0 -88 -30 -163t-85 -130t-133 -86t-174 -31h-297v-500h-213zM336 756h276q106 0 172 56.5t66 160.5t-65.5 159.5t-172.5 55.5h-276v-432z" />
<glyph unicode="Q" horiz-adv-x="1204" d="M104 727q0 94 3.5 174t16.5 145.5t39.5 119t72.5 96.5q76 72 161.5 104.5t196.5 32.5t197 -33t161 -104q45 -43 72 -96.5t40 -119t16 -145.5t3 -174q0 -156 -12 -265.5t-61 -195.5l184 -182l-139 -129l-176 178q-119 -82 -285 -82q-215 0 -358 144q-45 45 -71 97 t-39 116.5t-17.5 143.5t-4.5 175zM319 727q0 -100 3.5 -167.5t12.5 -115t25.5 -78t42.5 -55.5q31 -29 78 -48t113 -19t112 19.5t78 47.5q27 25 43.5 55.5t25.5 78t12 115t3 167.5q0 96 -3 161.5t-10 110.5t-21.5 75t-36.5 54q-35 41 -87.5 59.5t-115.5 18.5t-115.5 -18.5 t-87.5 -59.5q-23 -25 -37 -54.5t-21 -74.5t-10.5 -110.5t-3.5 -161.5z" />
<glyph unicode="R" horiz-adv-x="1132" d="M123 63v1317h518q94 0 172 -28.5t132 -80.5t84 -124t30 -158q0 -135 -77 -222t-189 -124l278 -493l-186 -99l-305 559h-244v-547h-213zM336 799h287q100 0 161.5 45t61.5 143t-61.5 149.5t-161.5 51.5h-287v-389z" />
<glyph unicode="S" horiz-adv-x="1107" d="M82 188l98 187q82 -47 163 -79t167 -42q22 -2 45.5 -2t47.5 2q48 4 89 21.5t71 51t38 87.5q4 27 -1 55.5t-24.5 55t-55.5 49t-95 36.5q-76 18 -170.5 41t-171.5 70q-63 39 -102.5 92t-55.5 113q-13 50 -13 101v19q3 62 25 117q35 88 118 152.5t200 79.5q47 5 92 5 q92 0 180 -22q131 -32 225 -86l-88 -182q-72 36 -162 64q-74 24 -146 23q-15 0 -30 -1q-172 -12 -190 -137q-2 -14 -1 -27q-1 -40 17 -76q24 -48 78 -73q70 -35 146.5 -52.5t148.5 -37.5q104 -29 174 -81.5t102 -150.5q22 -58 22 -120q0 -22 -3 -44q-10 -86 -53 -161 q-37 -59 -90.5 -98.5t-117 -61t-131.5 -26.5q-31 -2 -60 -2q-36 0 -72 3q-111 10 -215.5 47t-198.5 90z" />
<glyph unicode="T" horiz-adv-x="1056" d="M61 1186v194h934v-194h-360v-1123h-213v1123h-361z" />
<glyph unicode="U" horiz-adv-x="1230" d="M61 1214l115 183q207 -96 207 -326v-551q0 -129 69.5 -202.5t192.5 -73.5q129 0 199.5 73.5t70.5 202.5v860h213v-866q0 -102 -36.5 -187t-101 -146.5t-152.5 -95.5t-193 -34q-100 0 -186 34t-150.5 95.5t-101.5 146.5t-37 187v504q0 84 -24.5 124t-84.5 72z" />
<glyph unicode="V" horiz-adv-x="1130" d="M41 1343l213 54l248 -789l63 -252l64 252l248 789l213 -54l-431 -1280h-188z" />
<glyph unicode="W" horiz-adv-x="1658" d="M41 1346l211 51l194 -819l46 -261l43 258l159 805h271l159 -805l43 -258l45 261l195 819l211 -51l-324 -1283h-262l-203 1041l-202 -1041h-262z" />
<glyph unicode="X" horiz-adv-x="1155" d="M41 176l416 555l-375 543l176 125l320 -484l319 484l176 -125l-375 -543l416 -555l-182 -125l-354 488l-355 -488z" />
<glyph unicode="Y" horiz-adv-x="1089" d="M41 1280l178 119l326 -561l327 561l177 -119l-398 -657v-560h-213v560z" />
<glyph unicode="Z" horiz-adv-x="1032" d="M80 63v183l467 723l149 217h-585v194h833v-176l-469 -735l-145 -211h614v-195h-864z" />
<glyph unicode="[" horiz-adv-x="661" d="M158 90v1208q0 111 52 172.5t183 61.5h193v-182h-172q-53 0 -54 -52v-1208q0 -51 54 -51h172v-182h-193q-131 0 -183 61.5t-52 171.5z" />
<glyph unicode="\" d="M16 643v197h217l-120 481l202 49l127 -530h193l96 514h279l96 -514h192l127 530l203 -49l-123 -481h219v-197h-268l-139 -553h-262l-101 553h-168l-100 -553h-262l-139 553h-269zM489 643l13 -53l45 -250l41 248l10 55h-109zM821 840h99l-50 270zM1143 643l10 -55 l41 -248l45 250l12 53h-108z" />
<glyph unicode="]" horiz-adv-x="661" d="M74 39h172q53 0 53 51v1208q0 51 -53 52h-172v182h192q131 0 183.5 -61.5t52.5 -172.5v-1208q0 -111 -52.5 -172t-183.5 -61h-192v182z" />
<glyph unicode="^" horiz-adv-x="1085" d="M143 874l303 566h185l303 -566l-186 -73l-209 401l-209 -401z" />
<glyph unicode="_" horiz-adv-x="1003" d="M0 -92h1004v-164h-1004v164z" />
<glyph unicode="`" horiz-adv-x="952" d="M207 1597h229l148 -362h-172z" />
<glyph unicode="a" horiz-adv-x="921" d="M41 346q0 131 88 208t248 77h248v47q0 86 -39 126t-152 40q-66 0 -127 -22.5t-117 -57.5q-23 35 -45 75t-43 74q78 53 167 84t171 31q184 0 286.5 -85t102.5 -251v-629h-200v74q-57 -43 -114.5 -64.5t-135.5 -21.5q-63 0 -123.5 17.5t-109 53.5t-77 91t-28.5 133z M252 350q0 -57 38 -89t124 -32q111 0 161 45t50 144v57h-211q-76 0 -119 -27.5t-43 -97.5z" />
<glyph unicode="b" horiz-adv-x="1032" d="M51 1221l109 176q207 -96 207 -330v-154q61 63 124.5 83t122.5 20q147 0 232 -86q76 -78 95.5 -177.5t19.5 -209.5q0 -55 -3.5 -112.5t-14.5 -111t-33.5 -100.5t-61.5 -82q-45 -39 -103.5 -62.5t-132.5 -23.5q-68 0 -129 22.5t-121 86.5v-97h-200v955q0 86 -24.5 126 t-86.5 77zM369 543q0 -61 7 -118.5t28.5 -101.5t59.5 -70t99 -26q63 0 101 26t57.5 70t25 101.5t5.5 118.5q0 63 -7.5 116.5t-29 91t-58 59t-94.5 21.5q-57 0 -95 -21.5t-59.5 -59t-30.5 -91t-9 -116.5z" />
<glyph unicode="c" horiz-adv-x="843" d="M55 539q0 98 30 186t86 155.5t138 107.5t187 40q98 0 165.5 -28.5t120.5 -65.5l-90 -146q-53 33 -95 44.5t-97 11.5t-99.5 -23.5t-75 -65.5t-47 -97.5t-16.5 -118.5q0 -59 16.5 -114.5t47 -97.5t74.5 -66.5t100 -24.5q63 0 118.5 21.5t90.5 45.5l96 -141 q-72 -59 -144.5 -85t-164.5 -26q-104 0 -186.5 37t-138.5 101.5t-86 153.5t-30 196z" />
<glyph unicode="d" horiz-adv-x="1005" d="M82 537q0 55 3 108t14.5 104.5t34 96.5t61.5 82q88 88 233 88q68 0 127 -22.5t119 -80.5v107q0 82 -28 127t-87 80l111 170q213 -98 213 -328v-1006h-205v91q-59 -55 -119.5 -79t-128.5 -24q-141 0 -235 86q-37 35 -59.5 81t-35 98.5t-15.5 108.5t-3 112zM285 537 q0 -61 7 -119t28.5 -102t58.5 -69.5t98 -25.5q66 0 105 25.5t60.5 69.5t27.5 102t6 119q0 63 -6 116.5t-27.5 92t-60.5 61t-105 22.5q-61 0 -98 -22.5t-58.5 -61t-28.5 -92t-7 -116.5z" />
<glyph unicode="e" horiz-adv-x="980" d="M55 537q0 117 33 209t91.5 154.5t139 95t177.5 32.5q205 0 312 -129t107 -377v-61h-641q0 -100 70 -158.5t180 -58.5q98 0 175 33.5t122 62.5l78 -172q-78 -51 -178 -84t-201 -33q-90 0 -174 27.5t-148.5 87t-103.5 151t-39 220.5zM272 625h433q0 98 -52.5 155.5 t-156.5 57.5q-92 0 -152.5 -54.5t-71.5 -158.5z" />
<glyph unicode="f" horiz-adv-x="636" d="M61 766v184h132v152q0 55 16 105t50 88t85 61.5t119 23.5h143v-182h-104q-55 0 -78 -25.5t-23 -78.5v-144h199v-184h-199v-703h-208v703h-132z" />
<glyph unicode="g" horiz-adv-x="972" d="M88 553q0 123 22.5 213t98.5 164q43 43 97 64.5t128 21.5q63 0 119.5 -25.5t118.5 -79.5v105h202v-885q0 -233 -111.5 -349t-301.5 -116q-86 0 -175 27.5t-171 101.5q29 37 54.5 73t57.5 73q47 -39 106.5 -63.5t117.5 -24.5q68 0 109.5 21.5t65 57t31 82.5t7.5 97v92 q-49 -59 -116 -84t-145 -25q-59 4 -108 23.5t-86 56.5q-72 74 -96.5 165t-24.5 214zM297 553q0 -55 6 -105.5t25.5 -88t56.5 -60.5t98 -23q59 0 95 23t54.5 60.5t25 88t6.5 105.5t-5.5 106.5t-24 90t-54 62.5t-97.5 24q-61 0 -98 -24t-56.5 -62.5t-25.5 -90t-6 -106.5z" />
<glyph unicode="h" horiz-adv-x="1073" d="M51 1221l113 176q213 -98 213 -330v-137q57 49 114.5 67.5t120.5 18.5q160 0 249 -99.5t89 -259.5v-594h-213v568q0 111 -50 157t-132 46q-80 0 -128 -46.5t-48 -156.5v-568h-213v955q0 72 -28.5 119t-86.5 84z" />
<glyph unicode="i" horiz-adv-x="475" d="M111 1272q0 55 33.5 90t86.5 35t89 -35t36 -90q0 -53 -35.5 -87t-89.5 -34q-53 0 -86.5 34t-33.5 87zM127 63v953h213v-953h-213z" />
<glyph unicode="j" horiz-adv-x="503" d="M-43 -135h92q57 0 75.5 19.5t18.5 72.5v1059h213v-1071q0 -55 -16 -104.5t-50 -86.5t-85 -59.5t-121 -22.5h-127v193zM129 1272q0 55 34 90t87 35t89 -35t36 -90q0 -53 -36 -87t-89 -34t-87 34t-34 87z" />
<glyph unicode="k" horiz-adv-x="929" d="M51 1221l111 176q203 -96 203 -330v-440l360 397l152 -139l-322 -340l344 -365l-145 -133l-389 402v-386h-211v955q0 43 -4.5 72.5t-16.5 52t-31.5 41t-50.5 37.5z" />
<glyph unicode="l" horiz-adv-x="579" d="M51 1221l111 176q209 -96 209 -332v-717q0 -51 18.5 -79.5t73.5 -28.5h86v-177h-129q-68 0 -117 21.5t-79.5 58.5t-46 86.5t-15.5 104.5v680q0 86 -25.5 129t-85.5 78z" />
<glyph unicode="m" horiz-adv-x="1605" d="M53 858l107 172q57 -27 106.5 -69t65.5 -101q45 78 117.5 116t158.5 38q82 0 151.5 -34t117.5 -101q63 76 136.5 105.5t162.5 29.5q76 0 140 -25.5t107 -66.5q57 -53 82 -120t25 -153v-586h-211v551q0 113 -51 161t-125 48q-78 0 -136.5 -47t-58.5 -151v-562h-211v551 q0 113 -54 161t-128 48q-78 0 -132 -48t-54 -161v-551h-211v588q0 43 -5.5 73t-17.5 53.5t-32.5 43t-49.5 37.5z" />
<glyph unicode="n" horiz-adv-x="1093" d="M51 860q29 45 55.5 85t53.5 85q57 -27 99 -65t73 -101q43 76 124 113t154 37q82 0 145.5 -29t106.5 -79t65.5 -116.5t22.5 -140.5v-586h-213v558q0 113 -52 158.5t-130 45.5q-80 0 -132 -46t-52 -158v-558h-213v588q0 86 -22.5 129t-84.5 80z" />
<glyph unicode="o" horiz-adv-x="946" d="M76 535q0 117 21.5 212t88.5 166q47 49 123 83t170 34t170 -33.5t123 -83.5q68 -72 89.5 -167t21.5 -211q0 -121 -19.5 -213.5t-91.5 -165.5q-49 -51 -122 -84t-171 -33t-170.5 32.5t-122.5 84.5q-72 74 -91 166t-19 213zM285 535q0 -59 7 -125t38 -111 q23 -29 64.5 -49.5t84.5 -20.5t85 20.5t65 49.5q31 45 38 110.5t7 125.5q0 59 -8.5 122.5t-36.5 110.5q-23 33 -65 51.5t-85 18.5t-85 -18.5t-64 -51.5q-29 -47 -37 -110.5t-8 -122.5z" />
<glyph unicode="p" horiz-adv-x="1028" d="M51 860q29 47 55.5 87t55.5 85q53 -27 94 -63.5t70 -102.5q70 88 150.5 120t146.5 32q72 0 134 -25.5t105 -66.5q39 -37 61.5 -83t35 -96.5t15.5 -104.5t3 -107q0 -55 -3 -110.5t-14.5 -107t-34 -96.5t-61.5 -80q-90 -86 -239 -86q-63 0 -133 23.5t-123 71.5v-476h-209 v992q0 41 -7.5 69.5t-20.5 50t-33.5 39t-47.5 35.5zM369 535q0 -61 8 -117t29.5 -97.5t61.5 -65.5t103 -24q61 0 99.5 24t59 65.5t27.5 97t7 117.5q0 63 -7 117.5t-27.5 94t-58.5 62t-100 22.5q-63 0 -103 -22.5t-61.5 -62t-29.5 -94t-8 -117.5z" />
<glyph unicode="q" horiz-adv-x="1028" d="M51 535q0 53 3 107t15.5 104.5t35 96.5t61.5 83q43 43 113.5 66.5t138.5 23.5q33 0 71.5 -10.5t77.5 -30t74.5 -47t60.5 -62.5q25 63 68 102.5t96 63.5l111 -174q-55 -35 -82 -72.5t-27 -119.5v-992h-209v476q-47 -45 -113.5 -70t-129.5 -25q-86 0 -146.5 22.5 t-105.5 63.5q-37 35 -59.5 80t-35 96.5t-15.5 106.5t-3 111zM262 535q0 -61 7 -117t28.5 -97.5t62.5 -65.5t107 -24q59 0 97 24t59.5 65.5t30 97.5t8.5 117q0 63 -7.5 117.5t-29 94t-59.5 62t-99 22.5q-59 0 -99 -19t-63.5 -57t-33 -93.5t-9.5 -126.5z" />
<glyph unicode="r" horiz-adv-x="804" d="M51 860l109 170q55 -27 99 -62.5t73 -101.5q55 84 116.5 117t159.5 33q41 0 86 -9.5t80 -23.5l-69 -188q-39 12 -76 18q-22 4 -47 4q-17 0 -35 -2q-78 -8 -128 -55t-50 -139v-558h-213v588q0 86 -21.5 129t-83.5 80z" />
<glyph unicode="s" horiz-adv-x="917" d="M51 170l90 170q43 -29 89 -48.5t89 -31.5t79 -17t61 -5q39 0 75.5 4t64.5 14t44 30.5t16 51.5q0 35 -18 54.5t-46 29.5t-63.5 15t-68.5 12q-61 10 -126 27.5t-119 50t-88 84t-34 128.5q0 141 98.5 214t270.5 73q111 0 200 -31.5t146 -60.5l-84 -160q-35 16 -103.5 40 t-154.5 28q-15 1 -28 1q-133 0 -136 -91q0 -18 5 -37t25.5 -35t59.5 -30.5t105 -24.5q94 -16 168.5 -38t119.5 -59q78 -65 78 -182q0 -76 -31.5 -131t-87 -92t-129 -54.5t-159.5 -17.5q-94 0 -192.5 23.5t-215.5 95.5z" />
<glyph unicode="t" horiz-adv-x="671" d="M61 766v184h121v279h213v-279h193v-184h-193v-408q0 -49 21.5 -77.5t77.5 -28.5h106v-189h-145q-68 0 -119 23t-85 60.5t-51.5 87t-17.5 102.5v430h-121z" />
<glyph unicode="u" horiz-adv-x="1060" d="M51 838l105 174q94 -41 147 -116t53 -175v-270q0 -113 48.5 -164t127.5 -51q80 0 136.5 52t56.5 163v565h213v-953h-213v82q-115 -94 -246 -94q-150 0 -239 90q-59 59 -78 124t-19 151v256q0 31 -4 53.5t-14 40.5t-27.5 35.5t-46.5 36.5z" />
<glyph unicode="v" horiz-adv-x="942" d="M41 965l201 65l168 -518l63 -215l64 215l168 518l196 -65l-330 -902h-196z" />
<glyph unicode="w" horiz-adv-x="1454" d="M51 973l197 59l147 -551l54 -237l139 772h278l140 -772l53 237l147 551l197 -59l-277 -910h-260l-102 533l-37 256l-37 -256l-102 -533h-260z" />
<glyph unicode="x" horiz-adv-x="995" d="M51 182l316 363l-291 348l157 135l265 -338l264 338l158 -135l-291 -348l315 -363l-153 -129l-293 342l-293 -342z" />
<glyph unicode="y" horiz-adv-x="940" d="M27 948l196 84l256 -670l230 668l206 -61l-417 -1090q-35 -86 -105.5 -142t-169.5 -56h-80v192h58q57 0 89 37t54 96l37 98z" />
<glyph unicode="z" horiz-adv-x="892" d="M76 63v156l465 604h-439v193h703v-156l-469 -604h469v-193h-729z" />
<glyph unicode="{" horiz-adv-x="774" d="M127 596v192h31q70 0 95.5 44.5t25.5 103.5v199q0 61 8 119.5t32 105.5q25 45 68 91t92 91l144 -137q-49 -45 -71 -69.5t-38 -55.5q-14 -27 -22.5 -66.5t-8.5 -89.5v-243q0 -82 -32.5 -125t-73.5 -64q41 -27 73.5 -66.5t32.5 -121.5v-244q0 -98 27 -154q18 -41 46 -71.5 t62 -59.5l-137 -129q-66 63 -103.5 104.5t-55.5 76.5q-27 49 -35 108.5t-8 112.5v205q0 63 -29 103t-92 40h-31z" />
<glyph unicode="|" horiz-adv-x="643" d="M221 -143v1675h201v-1675h-201z" />
<glyph unicode="}" horiz-adv-x="774" d="M143 1405l144 137q49 -45 92 -91t67 -91q25 -47 33 -105.5t8 -119.5v-199q0 -59 26 -103.5t95 -44.5h31v-192h-31q-63 0 -92 -40t-29 -103v-205q0 -53 -8 -112.5t-35 -108.5q-18 -35 -56 -76t-103 -105l-138 129q35 29 63 60t46 71q27 55 27 154v244q0 82 32.5 122 t73.5 66q-41 20 -73.5 63.5t-32.5 125.5v243q0 49 -8.5 89t-22.5 67q-16 31 -37.5 55.5t-71.5 69.5z" />
<glyph unicode="~" horiz-adv-x="1097" d="M82 731q43 43 80 74t69.5 50t66.5 27.5t71 8.5q57 0 107 -18.5t106 -47.5q39 -18 75.5 -32.5t69.5 -14.5q37 0 73 15.5t89 68.5l127 -131q-43 -43 -79 -71.5t-68.5 -45t-65.5 -23.5t-72 -7q-57 0 -106.5 15t-108.5 44q-41 20 -74.5 32.5t-68.5 12.5q-37 0 -73 -14.5 t-93 -67.5z" />
<glyph unicode="&#xa1;" horiz-adv-x="630" d="M195 1262q0 51 33.5 84.5t86.5 33.5q51 0 86 -33.5t35 -84.5q0 -53 -34.5 -88t-86.5 -35q-53 0 -86.5 35t-33.5 88zM205 51v43l31 926h157l33 -926v-43h-221z" />
<glyph unicode="&#xa2;" d="M389 727q0 197 64.5 331t156.5 216q66 59 161 91t212 32h8l62 202l182 -55l-53 -182q53 -20 94 -45t74 -49q-31 -41 -59.5 -76t-61.5 -76q-37 31 -103 58l-268 -908q55 -20 125 -20q76 0 147.5 31.5t129.5 84.5l120 -153q-92 -86 -194.5 -122t-202.5 -36q-47 0 -92 5 t-90 18l-56 -191l-182 56l64 219q-4 4 -10.5 9t-10.5 11q-43 39 -82 90t-68.5 118t-48 152t-18.5 189zM600 727q0 -123 27.5 -203t68.5 -133l238 809q-112 -12 -186 -86q-27 -29 -53.5 -63.5t-47 -80.5t-34 -105.5t-13.5 -137.5z" />
<glyph unicode="&#xa3;" d="M375 51v164h45q20 0 39.5 2t34.5 6q59 18 88.5 73.5t38 123t0 134.5t-24.5 108h-170v129h133q-27 49 -38 121.5t-11 138.5q0 86 35 157.5t92 123.5t132 81t155 29q104 0 189 -30t145.5 -89t94 -146t33.5 -202h-210q-4 59 -17.5 110.5t-42.5 89t-75 59t-113 21.5 q-37 0 -70 -14t-59.5 -40.5t-42 -67.5t-15.5 -93q0 -66 7.5 -132t33.5 -117h332v-129h-305q10 -45 16 -106.5t2 -124t-21.5 -117t-53.5 -87.5h260q27 0 58.5 3t62 21.5t55 55.5t35.5 105h202q-18 -104 -57 -174t-88 -111t-102.5 -58.5t-100.5 -17.5h-702z" />
<glyph unicode="&#xa4;" horiz-adv-x="1609" d="M102 1143l97 84l194 -176q92 78 183.5 112.5t218.5 34.5q129 2 225 -33t190 -118l201 176l96 -80l-217 -193q55 -84 77 -161.5t17 -184.5q-4 -102 -28.5 -178t-83.5 -156l229 -204l-84 -89l-221 203q-96 -76 -189.5 -105.5t-215.5 -25.5q-117 2 -201 29.5t-170 99.5 l-232 -203l-84 91l232 202q-55 78 -81 149.5t-30 170.5q-6 111 12.5 192.5t75.5 171.5zM346.5 544q20.5 -118 89 -210t182 -142.5t265.5 -23.5q156 27 246 113t121.5 196.5t10 228t-91 210t-183 141.5t-263.5 22q-152 -27 -242 -111.5t-122.5 -195t-12 -228.5z" />
<glyph unicode="&#xa5;" d="M367 1280l178 119l325 -561l328 561l176 -119l-319 -526h307v-158h-385v-113h385v-157h-385v-263h-213v263h-369v157h369v113h-369v158h289z" />
<glyph unicode="&#xa7;" horiz-adv-x="894" d="M178 664q0 92 40 141t114 51q-51 57 -81 128t-30 149q0 248 228 247q117 0 170 -53t53 -151h-144q0 66 -25.5 94t-60.5 28q-53 0 -76.5 -27.5t-23.5 -92.5q0 -78 40 -143.5t110 -137.5q98 -98 161.5 -195t63.5 -208q0 -162 -133 -181q88 -113 88 -254 q0 -129 -60.5 -196.5t-177.5 -67.5q-111 0 -173 51.5t-62 163.5h143q0 -66 26.5 -93.5t63.5 -27.5q47 0 72.5 27t25.5 102q0 66 -27.5 135.5t-82.5 118.5q-98 90 -170 187.5t-72 204.5zM299 688q2 -31 18.5 -66.5t38.5 -64.5q59 -80 92 -115.5t70 -35.5q43 0 59.5 20 t14.5 50t-17.5 63.5t-33.5 62.5q-59 88 -97 123t-84 35q-37 0 -50 -20.5t-11 -51.5z" />
<glyph unicode="&#xa8;" d="M498 1286v189h188v-189h-188zM1112 1286v189h188v-189h-188z" />
<glyph unicode="&#xa9;" horiz-adv-x="1751" d="M172 584q0 143 55.5 269t150.5 218t222 145.5t272 53.5q143 0 271.5 -53.5t223.5 -145.5t150.5 -218t55.5 -269q0 -145 -55.5 -270.5t-150.5 -217.5t-223 -145t-272 -53q-145 0 -272 53t-222 145t-150.5 217t-55.5 271zM242 584q0 -129 50 -243t136 -198t200.5 -132 t243.5 -48t244 48t201 132t136 198t50 243t-50 242.5t-136 197.5t-201 132t-244 48t-243.5 -48t-200.5 -132t-136 -197.5t-50 -242.5zM477 555q0 92 19.5 173t78.5 161q47 61 115 99t154 38q139 0 219 -102v75h127v-337h-127q-2 98 -52 162.5t-137 64.5q-61 0 -105 -27.5 t-70.5 -73t-39 -100.5t-12.5 -110q0 -61 11.5 -116.5t43.5 -111.5q27 -47 73 -74.5t99 -27.5q72 0 119 53t62 139h151q-6 -80 -36.5 -140t-76.5 -101t-106.5 -62.5t-124.5 -21.5q-88 0 -158.5 35.5t-121 96t-78 140.5t-27.5 168z" />
<glyph unicode="&#xaa;" horiz-adv-x="909" d="M123 582v120h663v-120h-663zM160 956q0 106 82 151.5t237 74.5q39 8 60.5 21.5t21.5 47.5q0 109 -131 109q-59 0 -100 -27.5t-47 -99.5h-99q4 111 74 162t176 51q94 0 158.5 -44t64.5 -159v-323q0 -37 33 -37q6 0 12.5 1t22.5 5v-84q-20 -4 -31.5 -4h-25.5q-86 0 -99 76 q-23 -43 -71.5 -70t-130.5 -27q-86 0 -146.5 40t-60.5 136zM260 958q0 -92 115 -92q88 0 137 42t49 134v78q-18 -12 -51 -20q-135 -29 -192.5 -56.5t-57.5 -85.5z" />
<glyph unicode="&#xab;" d="M184 641q0 6 7.5 12t16.5 11.5t17 9.5t11 4l866 553l35 -60l-830 -530l821 -547l-34 -59l-846 563q-4 2 -14.5 7t-21.5 11.5t-19.5 12.5t-8.5 12zM604 641q0 10 22.5 22.5t26.5 14.5l869 553l34 -60l-831 -530l821 -547l-35 -59l-845 563q-4 2 -14.5 7t-20.5 11.5 t-18.5 12.5t-8.5 12z" />
<glyph unicode="&#xac;" d="M35 350v58h1671v-603h-61v545h-1610z" />
<glyph unicode="&#xad;" horiz-adv-x="892" d="M164 590v147h565v-147h-565z" />
<glyph unicode="&#xb0;" horiz-adv-x="874" d="M231 1192q-2 41 9.5 81t37 70.5t65.5 50t95 19.5q53 0 93 -19.5t66 -50t37 -70.5t9 -81q-4 -74 -55 -132.5t-150 -58.5q-98 0 -150 58.5t-57 132.5zM295 1198q2 -51 38 -93t105 -42q72 0 108 44t36 97q2 55 -34 101.5t-110 46.5q-76 0 -111.5 -48.5t-31.5 -105.5z" />
<glyph unicode="&#xb1;" horiz-adv-x="1003" d="M92 139v185h819v-185h-819zM92 768v180h307v326h197v-326h315v-180h-315v-317h-197v317h-307z" />
<glyph unicode="&#xb2;" horiz-adv-x="643" d="M190 1061q0 72 35 110.5t88 71.5q31 20 49.5 42t18.5 56q0 53 -57 54q-27 0 -44.5 -19.5t-17.5 -66.5h-63q0 72 33.5 107.5t91.5 35.5q53 0 85.5 -27.5t32.5 -83.5q0 -59 -34.5 -94t-85.5 -65q-16 -10 -31 -25.5t-21 -36.5h174v-59h-254z" />
<glyph unicode="&#xb3;" horiz-adv-x="704" d="M207 1192h59q-2 -45 18.5 -63.5t49.5 -18.5q31 0 51.5 16.5t20.5 44.5q0 63 -66 64h-33v57h33q20 0 35.5 14.5t15.5 41.5q0 47 -57 47q-29 0 -44.5 -18.5t-13.5 -61.5h-59q-4 66 30 101.5t87 35.5t86 -24.5t33 -77.5q0 -57 -43 -82q55 -16 55 -92q0 -59 -37 -90t-92 -31 q-59 0 -96 32.5t-33 104.5z" />
<glyph unicode="&#xb4;" horiz-adv-x="649" d="M123 981l180 432h223l-319 -432h-84z" />
<glyph unicode="&#xb6;" horiz-adv-x="1124" d="M133 1032q-4 74 20.5 143.5t76 125t129 89t180.5 33.5h452v-1603h-104v1538h-242v-1538h-102v864q-80 -8 -152 15.5t-128 70.5t-91 114.5t-39 147.5z" />
<glyph unicode="&#xb7;" d="M750 637q0 51 33.5 86t84.5 35t86 -35t35 -86t-34.5 -85t-86.5 -34q-51 0 -84.5 34t-33.5 85z" />
<glyph unicode="&#xb8;" horiz-adv-x="649" d="M123 -135l41 74q61 -43 137 -43q49 0 74.5 19t25.5 50q0 76 -86 76q-27 0 -46 -9t-36 -22l-32 21l84 205h102l-49 -121q18 12 55 12q63 0 98 -42t35 -105q0 -74 -53 -127.5t-164 -53.5q-23 0 -49.5 5.5t-52 14.5t-48 21.5t-36.5 24.5z" />
<glyph unicode="&#xb9;" horiz-adv-x="641" d="M225 1317v49q45 2 61.5 17.5t22.5 64.5h56v-385h-64v254h-76z" />
<glyph unicode="&#xba;" horiz-adv-x="909" d="M123 582v120h663v-120h-663zM166 1112q0 74 20.5 134.5t58.5 105.5t90 69.5t118 24.5q63 0 115.5 -24.5t90 -69.5t58 -105.5t20.5 -134.5t-20.5 -134t-58 -104.5t-90 -69t-115.5 -24.5q-66 0 -118 24.5t-90 69t-58.5 104.5t-20.5 134zM260 1112q0 -117 53.5 -180.5 t139.5 -63.5t138 63.5t52 180.5t-52 181.5t-138 64.5t-139.5 -64.5t-53.5 -181.5z" />
<glyph unicode="&#xbb;" d="M186 111l828 528l-817 549l34 57l846 -563q2 -2 11.5 -6t19.5 -10.5t19.5 -12.5t9.5 -12t-7.5 -12t-16.5 -11.5t-17.5 -9.5t-10.5 -6l-866 -553zM604 111l828 528l-818 549l35 57l846 -563q2 -2 11.5 -6t19.5 -10.5t19 -12.5t9 -12t-7 -12t-16 -11.5t-17.5 -9.5t-10.5 -6 l-866 -553z" />
<glyph unicode="&#xbc;" horiz-adv-x="1433" d="M139 102l1049 1092l65 -59l-1050 -1094zM176 1167v88q39 2 66.5 9.5t44 24t27 45t16.5 73.5h100v-700h-117v460h-137zM733 -8v100l318 440h98v-432h98v-108h-98v-162h-115v162h-301zM874 100h160v228z" />
<glyph unicode="&#xbd;" horiz-adv-x="1435" d="M131 102l1049 1092l67 -59l-1050 -1094zM182 1167v88q41 2 67.5 9.5t44 24t27 45t15.5 73.5h100v-700h-114v460h-140zM782 -176q2 68 19.5 115t47.5 83.5t69.5 65.5t89.5 59q59 37 93 74t34 103q0 49 -29 73.5t-78 24.5t-82 -35t-33 -121h-114q0 129 61.5 194.5 t165.5 65.5q98 0 158.5 -49t60.5 -153q0 -53 -17.5 -94.5t-47 -74t-70.5 -61t-88 -57.5q-29 -18 -55.5 -42t-38.5 -61h323v-110h-469z" />
<glyph unicode="&#xbe;" horiz-adv-x="1435" d="M168 948h111q-4 -86 31.5 -118.5t90.5 -32.5t91 29.5t36 82.5q0 55 -30.5 85t-83.5 30h-64v104h64q35 0 62.5 24t27.5 71q0 41 -27.5 63.5t-75.5 22.5q-53 0 -80.5 -33t-25.5 -109h-113q-4 119 58.5 183.5t160.5 64.5t155.5 -44t57.5 -142q0 -47 -17 -86t-58 -62 q47 -14 74.5 -55t27.5 -113q0 -104 -68.5 -160.5t-169.5 -56.5q-111 0 -176 60.5t-59 191.5zM209 102l1048 1092l66 -59l-1051 -1094zM778 -12v100l318 440h98v-432h100v-108h-100v-162h-115v162h-301zM920 96h159v228z" />
<glyph unicode="&#xbf;" horiz-adv-x="1024" d="M80 283v161q0 94 31.5 149.5t103.5 96.5l209 131q16 10 21.5 22.5t5.5 33.5v143h204v-154q0 -68 -21.5 -111.5t-94.5 -88.5l-187 -115q-45 -25 -56 -46.5t-11 -66.5v-131q0 -39 17 -53t52 -14h301q35 0 58.5 16t23.5 63v152h205v-147q0 -68 -12 -118t-45 -85t-90.5 -52.5 t-147.5 -17.5h-285q-84 0 -138 16.5t-87 47t-45 72.5t-12 96zM430 1262q0 51 35 84.5t86 33.5t85 -33.5t34 -84.5t-34 -86t-85 -35t-86 34.5t-35 86.5z" />
<glyph unicode="&#xc6;" horiz-adv-x="1628" d="M102 -45l631 1388h780v-149h-546v-444h499v-150h-499v-496h559v-149h-725v416h-334l-188 -416h-177zM532 518h269v594z" />
<glyph unicode="&#xd0;" horiz-adv-x="1495" d="M61 653v121h230v569h461q307 0 463.5 -168t156.5 -526t-156.5 -526t-463.5 -168h-461v698h-230zM457 102h250q137 0 233 30t155.5 95.5t86 170t26.5 251.5t-26.5 252t-86 170.5t-155.5 95t-233 29.5h-250v-422h231v-121h-231v-551z" />
<glyph unicode="&#xd7;" horiz-adv-x="1003" d="M133 487l236 242l-232 236l127 131l236 -238l237 236l133 -133l-231 -232l242 -242l-131 -137l-252 242l-238 -242z" />
<glyph unicode="&#xd8;" horiz-adv-x="1449" d="M102 647q0 172 48.5 306t132.5 227.5t197.5 142.5t244.5 49q176 0 319 -88l127 217l103 -59l-135 -232q98 -94 153.5 -235.5t55.5 -327.5q0 -172 -48.5 -306t-132.5 -226t-197.5 -141.5t-244.5 -49.5q-160 0 -293 72l-156 -268l-102 61l160 274q-106 92 -169 239t-63 345 zM268 647q0 -289 148 -442l551 944q-102 74 -242 74q-102 0 -186 -41t-144.5 -116t-93.5 -181.5t-33 -237.5zM510 129q88 -57 215 -57q102 0 186 41t144.5 115.5t93.5 181t33 237.5q0 135 -34 239.5t-93 178.5z" />
<glyph unicode="&#xde;" horiz-adv-x="923" d="M143 -45v1388h166v-219q98 -4 194.5 -38.5t171.5 -98t121 -153.5t46 -203q0 -115 -46 -204t-121 -151.5t-171 -97.5t-195 -39v-184h-166zM309 279q63 2 131 25.5t122 67.5t89 108.5t35 150.5q0 88 -35 152.5t-89 108.5t-121.5 66.5t-131.5 26.5v-706z" />
<glyph unicode="&#xdf;" horiz-adv-x="1099" d="M123 51v1170h463q80 0 148.5 -14.5t119.5 -49.5t81 -92t30 -145q0 -92 -45.5 -160t-122.5 -92q45 -12 86 -42t70.5 -73t47 -96.5t17.5 -114.5q0 -186 -94.5 -290.5t-286.5 -104.5q-137 0 -228.5 65.5t-107.5 206.5h137q29 -158 199 -158q121 0 183.5 63.5t62.5 221.5 q0 250 -297 250h-324v-545h-139zM262 725h324q141 0 190 46t49 138t-58 139.5t-181 47.5h-324v-371z" />
<glyph unicode="&#xe6;" horiz-adv-x="1495" d="M102 236q0 72 30 122t85 83.5t136 56t186 41.5q51 10 80.5 28.5t29.5 63.5q0 74 -47 110.5t-135 36.5q-78 0 -135.5 -35.5t-65.5 -132.5h-129q6 145 100.5 214t237.5 69q92 0 167 -28.5t112 -102.5q47 61 114.5 96t159.5 35q100 0 170 -36t113 -99.5t62.5 -153.5 t19.5 -196h-598q4 -135 64.5 -214t170.5 -79q100 0 155.5 49t78.5 141h129q-31 -147 -123 -226t-240 -79q-201 0 -301 162q-47 -80 -137 -121t-207 -41q-59 0 -110.5 13.5t-90.5 41t-60.5 72.5t-21.5 109zM236 238q0 -123 159 -123q117 0 185.5 57t68.5 180v107 q-27 -20 -67 -31q-90 -18 -156 -35.5t-108 -38t-62 -49.5t-20 -67zM795 524h467q-6 104 -63.5 179t-170.5 75q-111 0 -165 -71.5t-68 -182.5z" />
<glyph unicode="&#xf0;" horiz-adv-x="1019" d="M123 489q0 98 28.5 180.5t79 141.5t122 92t157.5 33q92 0 158 -33q-16 43 -37 82t-49 74l-86 -86l-58 55l45 45l45 45q-23 27 -51 50.5t-61 45.5l47 66q80 -41 137 -90l84 86l57 -55l-82 -84q117 -123 177.5 -281.5t60.5 -363.5q0 -100 -27.5 -183.5t-79 -143t-123 -92 t-157.5 -32.5t-157.5 32.5t-122 93t-79 142.5t-28.5 180zM254 489q0 -154 69.5 -242.5t186.5 -88.5q113 0 184.5 88.5t71.5 242.5t-71.5 243t-184.5 89q-117 0 -186.5 -89t-69.5 -243z" />
<glyph unicode="&#xf7;" horiz-adv-x="1003" d="M92 635v180h819v-180h-819zM379 371q0 51 33.5 86t85.5 35q51 0 85.5 -35t34.5 -86t-34.5 -85t-85.5 -34t-85 34t-34 85zM379 1077q0 51 33.5 86t85.5 35q51 0 85.5 -35t34.5 -86t-34.5 -85t-85.5 -34t-85 34t-34 85z" />
<glyph unicode="&#xf8;" horiz-adv-x="1019" d="M123 444q0 98 28.5 180.5t79 141.5t122 92t157.5 33q76 0 149 -29l68 148l80 -37l-74 -156q78 -57 121 -153.5t43 -219.5q0 -98 -28.5 -180t-79 -142.5t-122 -93t-157.5 -32.5q-84 0 -148 31l-77 -168l-78 37l80 174q-78 57 -121 154.5t-43 219.5zM254 444 q0 -170 86 -260l268 570q-41 20 -98 20q-117 0 -186.5 -88t-69.5 -242zM414 133q39 -20 96 -20q113 0 184.5 88.5t71.5 242.5q0 168 -86 258z" />
<glyph unicode="&#xfe;" horiz-adv-x="905" d="M123 -121v1335h131v-364q35 31 79 47t105 16q86 0 157 -32.5t122 -92t78.5 -141.5t27.5 -180t-27.5 -180t-78.5 -142.5t-122 -93.5t-157 -33q-61 0 -105 17.5t-79 48.5v-205h-131zM254 252q29 -55 74 -86t110 -31q113 0 183.5 89t70.5 243t-70.5 242t-183.5 88 q-127 0 -184 -117v-428z" />
<glyph unicode="&#x152;" horiz-adv-x="1652" d="M82 649q0 358 152.5 526t457.5 168h887v-149h-588v-444h541v-150h-541v-496h600v-149h-899q-305 0 -457.5 168t-152.5 526zM246 649q0 -147 24.5 -251.5t83 -170t151.5 -95.5t232 -30h76v1094h-76q-139 0 -232 -29.5t-151.5 -95t-83 -170t-24.5 -252.5z" />
<glyph unicode="&#x153;" horiz-adv-x="1519" d="M102 446q0 98 27 180.5t75 141.5t115.5 92t149.5 33q104 0 182 -49t125 -137q43 88 116 137t177 49q94 0 160.5 -36t107.5 -99.5t60.5 -153.5t19.5 -196h-569q4 -135 61.5 -214t161.5 -79q94 0 147.5 49t75.5 141h123q-31 -147 -120 -226t-226 -79q-98 0 -174 46 t-121 138q-47 -86 -127 -135t-180 -49q-82 0 -149.5 33t-115.5 92t-75 141t-27 180zM227 446q0 -154 65.5 -242.5t176.5 -88.5t177.5 88.5t66.5 242.5t-66.5 243t-177.5 89t-176.5 -89t-65.5 -243zM850 524h442q-6 104 -61 179t-162 75q-104 0 -155.5 -71.5t-63.5 -182.5z " />
<glyph unicode="&#x2dc;" d="M418 1290q74 66 141.5 101.5t138.5 35.5q57 0 104.5 -17t88.5 -42t72.5 -35t78.5 -10q37 0 66 4t55.5 14.5t53 26.5t59.5 43l47 -49q-74 -68 -141.5 -103.5t-139.5 -35.5q-57 0 -103 17t-89 42q-41 23 -73 34t-79 11q-37 0 -66.5 -4t-55 -14.5t-52 -26.5t-59.5 -43z" />
<glyph unicode="&#x2000;" horiz-adv-x="799" />
<glyph unicode="&#x2001;" horiz-adv-x="1599" />
<glyph unicode="&#x2002;" horiz-adv-x="799" />
<glyph unicode="&#x2003;" horiz-adv-x="1599" />
<glyph unicode="&#x2004;" horiz-adv-x="533" />
<glyph unicode="&#x2005;" horiz-adv-x="399" />
<glyph unicode="&#x2006;" horiz-adv-x="266" />
<glyph unicode="&#x2007;" horiz-adv-x="266" />
<glyph unicode="&#x2008;" horiz-adv-x="199" />
<glyph unicode="&#x2009;" horiz-adv-x="319" />
<glyph unicode="&#x200a;" horiz-adv-x="88" />
<glyph unicode="&#x2010;" horiz-adv-x="1003" d="M164 633v184h676v-184h-676z" />
<glyph unicode="&#x2011;" horiz-adv-x="1003" d="M164 633v184h676v-184h-676z" />
<glyph unicode="&#x2012;" horiz-adv-x="1003" d="M164 633v184h676v-184h-676z" />
<glyph unicode="&#x2013;" horiz-adv-x="1351" d="M164 633v184h1024v-184h-1024z" />
<glyph unicode="&#x2014;" horiz-adv-x="1536" d="M20 600v121h1496v-121h-1496z" />
<glyph unicode="&#x2018;" horiz-adv-x="444" d="M109 1311q0 92 54 162.5t159 119.5l51 -77q-55 -29 -99.5 -71t-48.5 -77q33 6 57.5 -2t40 -23.5t23.5 -37t8 -41.5q0 -51 -37.5 -81t-78.5 -30q-35 0 -58.5 14.5t-40 37t-23.5 50t-7 56.5z" />
<glyph unicode="&#x2019;" horiz-adv-x="444" d="M72 1221q55 29 99 70.5t48 76.5q-33 -6 -57.5 2t-40 23.5t-23.5 37t-8 42.5q0 51 38 80.5t79 29.5q33 0 57.5 -14.5t41 -37t23.5 -51t7 -55.5q0 -92 -54.5 -162.5t-158.5 -119.5z" />
<glyph unicode="&#x201c;" horiz-adv-x="765" d="M109 1311q0 92 54 162.5t159 119.5l51 -77q-55 -29 -99.5 -71t-48.5 -77q33 6 57.5 -2t40 -23.5t23.5 -37t8 -41.5q0 -51 -37.5 -81t-78.5 -30q-35 0 -58.5 14.5t-40 37t-23.5 50t-7 56.5zM430 1311q0 92 54.5 162.5t158.5 119.5l51 -77q-55 -29 -99 -71t-48 -77 q33 6 57.5 -2t39.5 -23.5t23.5 -37t8.5 -41.5q0 -51 -38 -81t-79 -30q-35 0 -58.5 14.5t-40 37t-23.5 50t-7 56.5z" />
<glyph unicode="&#x201d;" horiz-adv-x="765" d="M72 1221q55 29 99 70.5t48 76.5q-33 -6 -57.5 2t-40 23.5t-23.5 37t-8 42.5q0 51 38 80.5t79 29.5q33 0 57.5 -14.5t41 -37t23.5 -51t7 -55.5q0 -92 -54.5 -162.5t-158.5 -119.5zM393 1221q55 29 99.5 70.5t48.5 76.5q-33 -6 -57.5 2t-40 23.5t-23.5 37t-8 42.5 q0 51 37.5 80.5t78.5 29.5q33 0 57.5 -14.5t41 -37t23.5 -51t7 -55.5q0 -92 -54 -162.5t-159 -119.5z" />
<glyph unicode="&#x2022;" d="M657 608q0 41 13.5 80t39 69.5t66.5 49t96 18.5t96.5 -19.5t68 -51t38.5 -71.5t10 -81q-2 -39 -16 -76t-41 -65.5t-65.5 -46t-90.5 -17.5q-53 0 -93 18.5t-66.5 47.5t-41 66.5t-14.5 78.5z" />
<glyph unicode="&#x2026;" d="M172 637q0 51 34 86t85 35t86 -35t35 -86t-35 -85t-86 -34t-85 34t-34 85zM752 641q0 51 33.5 86t84.5 35t86 -35t35 -86t-34.5 -85t-86.5 -34q-51 0 -84.5 34t-33.5 85zM1331 637q0 51 34 86t85 35t86 -35t35 -86t-35 -85t-86 -34t-85 34t-34 85z" />
<glyph unicode="&#x202f;" horiz-adv-x="319" />
<glyph unicode="&#x2039;" d="M303 600l1368 838v-70l-1233 -768l1233 -764v-74z" />
<glyph unicode="&#x203a;" d="M35 -164l1235 764l-1235 768v70l1368 -838l-1368 -838v74z" />
<glyph unicode="&#x205f;" horiz-adv-x="399" />
<glyph unicode="&#x2122;" d="M248 1374v127h471v-127h-168v-518h-137v518h-166zM778 856v645h207l100 -403l13 -78l12 78l102 403h205v-645h-135v408l-106 -408h-156l-109 410v-410h-133z" />
<glyph unicode="&#x25fc;" horiz-adv-x="1024" d="M0 0v1024h1024v-1024h-1024z" />
</font>
</defs>
</svg>
