<?xml version="1.0" standalone="no"?>
<!DOCTYPE svg PUBLIC "-//W3C//DTD SVG 1.1//EN" "http://www.w3.org/Graphics/SVG/1.1/DTD/svg11.dtd" >
<svg xmlns="http://www.w3.org/2000/svg" xmlns:xlink="http://www.w3.org/1999/xlink" version="1.1">
<metadata></metadata>
<defs>
<font id="ktg_sangsangtitlem" horiz-adv-x="1740" >
<font-face units-per-em="2048" ascent="1638" descent="-410" />
<missing-glyph horiz-adv-x="532" />
<glyph horiz-adv-x="0" />
<glyph horiz-adv-x="682" />
<glyph unicode=" "  horiz-adv-x="532" />
<glyph unicode="&#x09;" horiz-adv-x="532" />
<glyph unicode="&#xa0;" horiz-adv-x="532" />
<glyph unicode="!" horiz-adv-x="630" d="M215 168q0 45 27.5 75.5t72.5 30.5q43 0 72 -30.5t29 -75.5q0 -43 -29 -71.5t-72 -28.5q-45 0 -72.5 28.5t-27.5 71.5zM225 1380h181l-33 -977h-119z" />
<glyph unicode="&#x22;" horiz-adv-x="776" d="M154 1550h159l-22 -372h-115zM475 1550h158l-21 -372h-116z" />
<glyph unicode="#" horiz-adv-x="1282" d="M84 422l22 151h213l54 316h-228l23 153h227l54 338h163l-51 -338h287l51 338h166l-53 -338h229l-22 -153h-230l-51 -316h240l-23 -151h-240l-55 -359h-168l56 359h-285l-55 -359h-166l55 359h-213zM487 573h285l51 316h-286z" />
<glyph unicode="$" horiz-adv-x="1107" d="M109 193l79 147q98 -53 193.5 -82t200.5 -29q47 0 93 13.5t82 40t57.5 65.5t21.5 88q0 57 -27 94t-68 59.5t-89 36t-91 21.5q-66 14 -136.5 32.5t-129.5 55.5q-55 35 -93 86t-57.5 108.5t-18.5 117t24 112.5q35 82 120.5 145.5t235.5 79.5v209h133v-215 q86 -10 156.5 -33.5t130.5 -54.5l-74 -149q-72 35 -162 63.5t-174 22.5q-86 -6 -138 -49t-67 -93q-16 -57 10.5 -121.5t96.5 -99.5q53 -29 114.5 -44t120.5 -27q80 -16 144.5 -42t110.5 -66t72 -99.5t26 -141.5q0 -174 -100.5 -271t-266.5 -107v-220h-133v220 q-113 12 -206 43.5t-191 83.5z" />
<glyph unicode="%" horiz-adv-x="1605" d="M137 948v197q0 117 73 184.5t179 67.5q55 0 101.5 -17.5t81 -50.5t54 -80t19.5 -104v-197q0 -119 -72.5 -185.5t-183.5 -66.5q-106 0 -179 66.5t-73 185.5zM268 973q0 -74 29 -106.5t92 -32.5q61 0 93 32.5t32 106.5v149q0 63 -31.5 100.5t-93.5 37.5q-121 0 -121 -138 v-149zM432 117l629 1269l121 -49l-627 -1276zM969 303v197q0 57 19.5 104t54 81t80.5 51.5t100 17.5q55 0 101 -17.5t80 -51.5t53.5 -81t19.5 -104v-197q0 -119 -72 -185.5t-182 -66.5q-106 0 -180 66.5t-74 185.5zM1102 328q0 -74 28.5 -106t92.5 -32q61 0 93 32t32 106 v149q0 63 -32 100t-93 37q-121 0 -121 -137v-149z" />
<glyph unicode="&#x26;" horiz-adv-x="1327" d="M139 406q0 92 46 176t153 151l82 53q-14 20 -28.5 38t-29.5 34q-45 53 -73.5 114.5t-28.5 135.5q0 63 23.5 117.5t65.5 94.5t101.5 61.5t131.5 21.5t130 -22.5t100 -61.5t64.5 -94.5t22.5 -118.5q0 -98 -52 -163.5t-126 -119.5l-68 -47l242 -266q25 37 54.5 71.5 t65.5 64.5t78 52.5t91 32.5l35 -143q-78 -16 -128.5 -66.5t-97.5 -115.5q51 -63 99.5 -120t99.5 -114l-117 -102l-180 202q-29 -31 -54.5 -59.5t-60.5 -58.5q-61 -53 -133 -81t-143 -28q-78 0 -150.5 32t-126.5 87q-43 47 -65.5 111.5t-22.5 130.5zM289 395q0 -68 43 -116 q35 -41 82 -61.5t88 -20.5q77 0 155 51q35 25 70 59.5t68 71.5l-273 301l-98 -70q-70 -49 -102.5 -104t-32.5 -111zM426 1106q0 -35 16.5 -75t65.5 -95l51 -57l55 36q66 43 97.5 87.5t31.5 101.5q0 68 -45 113t-116 45q-78 0 -117 -43t-39 -113z" />
<glyph unicode="'" horiz-adv-x="344" d="M88 1550h168l-23 -372h-122z" />
<glyph unicode="(" horiz-adv-x="606" d="M170 236v913q0 68 11.5 122t34 100t56 87t80.5 84l121 -112q-74 -72 -104.5 -138.5t-30.5 -152.5v-891q0 -104 39 -170t100 -119l-121 -109q-55 51 -92 95.5t-58.5 87.5t-29.5 91t-6 112z" />
<glyph unicode=")" horiz-adv-x="606" d="M131 -41q61 53 100 118.5t39 170.5v891q0 86 -30.5 152.5t-104.5 138.5l121 112q47 -43 81 -84t56.5 -87t33.5 -100t11 -122v-913q2 -63 -6 -111.5t-29.5 -91.5t-58.5 -87t-92 -96z" />
<glyph unicode="*" horiz-adv-x="925" d="M113 1114l223 123l-219 117l59 114l230 -149l-13 272h133l-12 -266l221 143l70 -112l-217 -117l227 -119l-74 -114l-225 153l10 -276h-139l14 276l-219 -155z" />
<glyph unicode="+" horiz-adv-x="1015" d="M104 655v140h326v335h156v-335h325v-140h-325v-327h-156v327h-326z" />
<glyph unicode="," horiz-adv-x="368" d="M80 59q0 43 30.5 68t63.5 25q59 0 87 -44.5t24 -99.5q-10 -162 -156 -225l-31 45q55 27 85 67.5t28 81.5q-10 -2 -18.5 -3t-18.5 -1q-47 0 -70.5 28t-23.5 58z" />
<glyph unicode="-" horiz-adv-x="1003" d="M174 653v144h653v-144h-653z" />
<glyph unicode="." horiz-adv-x="368" d="M84 78q0 43 27.5 73.5t70.5 30.5t72 -30.5t29 -73.5t-29 -72t-72 -29t-70.5 29t-27.5 72z" />
<glyph unicode="/" horiz-adv-x="722" d="M18 -102l551 1677l140 -49l-549 -1673z" />
<glyph unicode="0" horiz-adv-x="1081" d="M115 326v739q0 63 12 112.5t44 82t86 49t140 16.5h283q86 0 141.5 -16.5t86 -49t43 -82t12.5 -112.5v-739q0 -63 -12.5 -112.5t-43 -82.5t-86 -50.5t-141.5 -17.5h-283q-86 0 -140 17.5t-86 50.5t-44 82t-12 113zM287 330q0 -66 31.5 -86.5t78.5 -20.5h283q47 0 79 20.5 t32 86.5v731q0 66 -32 87t-79 21h-283q-47 0 -78.5 -21.5t-31.5 -86.5v-731z" />
<glyph unicode="1" horiz-adv-x="1081" d="M342 1194l100 149q190 -98 191 -309v-971h-172v916q0 88 -31 135t-88 80z" />
<glyph unicode="2" horiz-adv-x="1081" d="M129 63v381q0 57 17.5 100.5t45 73t61.5 49t64 29.5l357 117q53 16 77.5 41t24.5 90v117q0 66 -26.5 87t-83.5 21h-502v156h502q86 0 141 -16.5t86 -49t43 -82t12 -112.5v-135q0 -68 -18.5 -113t-49 -74.5t-70.5 -48t-83 -32.5l-328 -107q-57 -18 -77.5 -51t-20.5 -76 v-209h647v-156h-819z" />
<glyph unicode="3" horiz-adv-x="1081" d="M133 63v156h500q49 0 79.5 20.5t30.5 86.5v211q0 33 -9 52t-24.5 29.5t-36 13.5t-40.5 3h-381v149h381q20 0 39.5 3.5t35 13.5t25.5 28.5t10 51.5v180q0 66 -30.5 87t-79.5 21h-477v156h477q86 0 141 -16.5t86 -49t43 -82t12 -112.5v-184q0 -53 -25.5 -99.5t-105.5 -72.5 q76 -14 103.5 -58.5t27.5 -122.5v-202q0 -63 -12 -112.5t-43 -82.5t-86 -50.5t-141 -17.5h-500z" />
<glyph unicode="4" horiz-adv-x="1081" d="M51 512q0 35 12.5 74t40.5 76l498 663h238v-829h166v-156h-166v-277h-168v277h-404q-119 0 -168 52t-49 120zM238 532q0 -20 16 -28t43 -8h375v647l-406 -551q-29 -35 -28 -60z" />
<glyph unicode="5" horiz-adv-x="1081" d="M141 63v156h525q47 0 78.5 20.5t31.5 86.5v219q0 66 -31.5 87t-78.5 21h-525v672h785v-156h-613v-362h353q86 0 141 -16.5t86 -50t43 -83t12 -112.5v-219q0 -63 -12 -112.5t-43 -82.5t-86 -50.5t-141 -17.5h-525z" />
<glyph unicode="6" horiz-adv-x="1081" d="M125 326v739q0 63 12.5 112.5t44 82t86 49t140.5 16.5h512v-156h-512q-47 0 -79 -19.5t-32 -84.5v-258h373q86 0 141 -16.5t86 -50t43 -83t12 -112.5v-219q0 -63 -12 -112.5t-43 -82.5t-86 -50.5t-141 -17.5h-262q-86 0 -140.5 17.5t-86 50.5t-44 82t-12.5 113zM293 326 q0 -66 31.5 -86.5t78.5 -20.5h267q47 0 78.5 20.5t31.5 86.5v219q0 66 -31.5 87t-78.5 21h-377v-327z" />
<glyph unicode="7" horiz-adv-x="1081" d="M131 1174v151h535q86 0 141 -16.5t86 -49t43 -82t12 -112.5v-127q0 -53 -10 -93t-31.5 -72t-55.5 -57.5t-79 -51.5l-272 -156q-23 -14 -31 -35.5t-8 -42.5v-367h-172v359q0 82 32.5 133t86.5 84l282 164q27 16 44.5 29.5t26.5 29t12 33.5t3 45v125q0 66 -31.5 87.5 t-78.5 21.5h-535z" />
<glyph unicode="8" horiz-adv-x="1081" d="M115 326v213q0 66 26.5 104.5t77.5 58.5q-49 16 -76.5 60.5t-27.5 118.5v184q0 63 12 112.5t44 82t86 49t140 16.5h283q86 0 140 -16.5t86 -49t44.5 -82t12.5 -112.5v-184q0 -74 -28 -118t-77 -61q51 -20 78 -59t27 -104v-213q0 -63 -12.5 -112.5t-44.5 -82.5t-86 -50.5 t-140 -17.5h-283q-86 0 -140 17.5t-86 50.5t-44 82t-12 113zM287 322q0 -66 31.5 -86.5t78.5 -20.5h283q47 0 79 20.5t32 86.5v200q0 39 -10.5 61.5t-27 34t-36 14.5t-37.5 3h-274q-20 0 -42 -3t-38.5 -14.5t-27.5 -34t-11 -61.5v-200zM287 881q0 -33 10 -51.5t25.5 -28.5 t35 -13.5t39.5 -3.5h283q20 0 39.5 3.5t35 13.5t26 28.5t10.5 51.5v184q0 66 -32 87.5t-79 21.5h-283q-47 0 -78.5 -22t-31.5 -87v-184z" />
<glyph unicode="9" horiz-adv-x="1081" d="M125 842v223q0 63 12.5 112.5t44 82t86 49t140.5 16.5h262q86 0 141 -16.5t86 -49t43 -82t12 -112.5v-739q0 -63 -12 -112.5t-43 -82.5t-86 -50.5t-141 -17.5h-516v156h512q47 0 78.5 20.5t31.5 86.5v256h-368q-86 0 -140.5 15t-86 47t-44 81t-12.5 117zM297 842 q0 -63 25.5 -84t85.5 -21h372v324q0 66 -31.5 87t-78.5 21h-262q-47 0 -79 -21.5t-32 -86.5v-219z" />
<glyph unicode=":" horiz-adv-x="573" d="M188 236q0 43 28 73.5t71 30.5t71.5 -30.5t28.5 -73.5t-28.5 -72t-71.5 -29t-71 29t-28 72zM188 989q0 43 28 73t71 30t71.5 -30t28.5 -73t-28.5 -71.5t-71.5 -28.5t-71 28.5t-28 71.5z" />
<glyph unicode=";" horiz-adv-x="573" d="M188 242q2 45 30 68.5t69 23.5q41 2 77.5 -34t36.5 -107q0 -154 -168 -248l-38 53q57 37 83.5 73t34.5 81q-55 -14 -90 10t-35 80zM188 989q0 43 29 73t72 30q41 0 69.5 -30t28.5 -73t-28.5 -71.5t-69.5 -28.5q-43 0 -72 28.5t-29 71.5z" />
<glyph unicode="&#x3c;" horiz-adv-x="983" d="M139 639v166l688 395l70 -135l-612 -344l612 -338l-70 -139z" />
<glyph unicode="=" horiz-adv-x="1015" d="M143 461v145h729v-145h-729zM143 829v146h729v-146h-729z" />
<glyph unicode="&#x3e;" horiz-adv-x="983" d="M92 385l613 338l-613 344l70 135l688 -395v-166l-688 -395z" />
<glyph unicode="?" horiz-adv-x="1024" d="M86 1006v129q0 63 12.5 112t44 82t86 49.5t140.5 16.5h299q80 0 132 -15.5t82.5 -44t43 -67.5t12.5 -88v-170q0 -94 -29.5 -146.5t-99.5 -91.5q-53 -35 -108.5 -68.5t-110.5 -68.5q-27 -16 -34 -33.5t-7 -44.5v-178h-162v188q0 115 109 189l196 118q25 16 41.5 31 t25.5 30t12 34.5t3 46.5v135q0 53 -23.5 74.5t-72.5 21.5h-318q-47 0 -78.5 -21.5t-31.5 -86.5v-133h-164zM371 156q0 43 29.5 72.5t70.5 29.5t70.5 -29.5t29.5 -72.5q0 -45 -29.5 -74t-70.5 -29t-70.5 29t-29.5 74z" />
<glyph unicode="@" horiz-adv-x="1402" d="M143 367v585q0 104 23.5 184.5t87.5 143.5q59 59 136 86t181 27h260q98 0 175 -27t141 -86q68 -61 91.5 -142t23.5 -186v-886h-156v124q-57 -72 -126 -98t-138 -26q-139 0 -221 92q-53 59 -73 136t-20 198q0 127 15.5 204.5t64.5 134.5q39 47 98.5 75t133.5 28 q160 0 264 -127v143q0 74 -15.5 124t-62.5 95q-41 37 -93 53.5t-122 16.5h-221q-66 0 -121 -18.5t-102 -63.5q-41 -39 -53.5 -84t-12.5 -123v-577q0 -72 20.5 -118t67.5 -89l-115 -113q-78 59 -104.5 130t-26.5 184zM690 492q0 -68 8.5 -121.5t31 -91t61 -58t100.5 -20.5 q68 0 109.5 20.5t64 58t31 91t8.5 121.5t-8.5 124t-31 96t-64.5 62.5t-109 22.5q-68 0 -107 -22.5t-60.5 -62.5t-27.5 -96.5t-6 -123.5z" />
<glyph unicode="A" horiz-adv-x="1189" d="M39 106l483 1274h156l481 -1276l-164 -53l-121 330h-550l-121 -330zM383 537h434l-110 307l-107 330l-106 -330z" />
<glyph unicode="B" horiz-adv-x="1142" d="M133 63v1317h492q180 0 283.5 -96t103.5 -262q0 -98 -47 -168t-123 -113q88 -47 141 -126.5t53 -190.5q0 -178 -108.5 -269.5t-280.5 -91.5h-514zM305 217h324q117 0 178 59.5t61 157.5q0 104 -61.5 166t-177.5 62h-324v-445zM305 813h303q111 0 173.5 50.5t62.5 156.5 q0 104 -64.5 155.5t-175.5 51.5h-299v-414z" />
<glyph unicode="C" horiz-adv-x="1093" d="M70 727q0 199 63.5 334t155.5 217q66 57 159 88t209 31q119 0 205 -36t144 -79l-97 -121q-43 31 -108.5 55.5t-143.5 24.5q-160 0 -258 -98q-29 -29 -56.5 -67t-50 -89t-36.5 -115.5t-14 -144.5q0 -92 16 -161.5t42 -123t57.5 -91.5t64.5 -64q49 -39 111.5 -58.5 t123.5 -19.5q76 0 149 30.5t132 77.5l98 -124q-88 -80 -184 -111t-195 -31q-104 0 -201.5 27.5t-170.5 95.5q-41 39 -80 90t-69 119t-48 153t-18 191z" />
<glyph unicode="D" horiz-adv-x="1148" d="M123 63v1317h452q104 0 190.5 -30.5t152.5 -96.5q49 -49 74.5 -106t37.5 -120.5t14.5 -131.5t2.5 -133v-57q0 -68 -2.5 -140.5t-14.5 -141.5t-38.5 -130.5t-76.5 -106.5q-129 -123 -340 -123h-452zM295 219h264q72 0 137.5 25.5t106.5 68.5q55 63 65.5 172t10.5 246 t-11.5 236.5t-64.5 158.5v-2q-41 47 -107.5 74t-136.5 27h-264v-1006z" />
<glyph unicode="E" horiz-adv-x="1048" d="M133 63v1317h819v-155h-647v-410h559v-151h-559v-445h672v-156h-844z" />
<glyph unicode="F" horiz-adv-x="983" d="M92 63v1317h813v-155h-641v-422h561v-156h-561v-584h-172z" />
<glyph unicode="G" horiz-adv-x="1175" d="M92 723q0 203 59.5 339t151.5 218q66 57 153 89t203 32q117 0 204 -37t145 -80l-97 -121q-43 31 -108.5 55.5t-143.5 24.5q-154 0 -247 -98q-59 -59 -103.5 -159.5t-44.5 -262.5q0 -141 31 -232.5t76 -148.5q57 -72 137 -101.5t162 -31.5h19l87 7q53 9 103 38v373h-213 v155h376v-630q-78 -59 -172 -80q-86 -19 -175 -19h-17q-154 2 -261.5 51.5t-178.5 137.5q-74 92 -110 216t-36 265z" />
<glyph unicode="H" horiz-adv-x="1193" d="M49 1202l98 150q92 -47 134.5 -123t42.5 -180v-261h573v588h170v-1313h-170v570h-573v-570h-170v930q0 43 -5.5 75t-16.5 55.5t-31.5 42t-51.5 36.5z" />
<glyph unicode="I" horiz-adv-x="458" d="M141 63v1317h174v-1317h-174z" />
<glyph unicode="J" horiz-adv-x="923" d="M41 170l94 127q41 -35 99.5 -59.5t115.5 -24.5q123 0 194.5 78t71.5 219v870h172v-884q0 -209 -113.5 -325t-324.5 -120h-9q-68 0 -147 29q-83 31 -153 90z" />
<glyph unicode="K" horiz-adv-x="1056" d="M29 1245l96 152q182 -96 182 -307v-314q141 154 271.5 298.5t271.5 299.5l123 -110l-494 -533l539 -553l-119 -117q-156 160 -297 310.5t-295 304.5v-613h-172v971q0 84 -26.5 130t-79.5 81z" />
<glyph unicode="L" horiz-adv-x="993" d="M29 1245l96 152q184 -96 184 -307v-871h654v-156h-830v971q0 84 -25.5 130t-78.5 81z" />
<glyph unicode="M" horiz-adv-x="1544" d="M127 63v1317h303l342 -1153l342 1153h303v-1317h-170v1145l-352 -1145h-246l-352 1145v-1145h-170z" />
<glyph unicode="N" horiz-adv-x="1247" d="M131 63v1317h291l522 -1155v1155h172v-1317h-291l-522 1145v-1145h-172z" />
<glyph unicode="O" horiz-adv-x="1142" d="M90 727q0 188 21.5 321.5t107.5 215.5q66 61 157 97t195 36q106 0 194.5 -32t158.5 -101q84 -84 106.5 -216.5t22.5 -320.5q0 -96 -4.5 -175t-17.5 -144.5t-38.5 -118.5t-68.5 -96q-140 -142 -353 -142q-104 0 -193 35t-159 107q-43 43 -68.5 96t-39 118.5t-17.5 144.5 t-4 175zM266 727q0 -104 3 -177t13.5 -123t29 -84t46.5 -60q35 -35 88 -55.5t125 -20.5q70 0 122 20.5t89 55.5q31 29 49.5 62.5t28.5 82.5t13.5 122t3.5 177q0 100 -3.5 169t-12.5 116t-24.5 79.5t-39.5 61.5q-82 88 -226 88q-143 0 -225 -88q-25 -29 -40 -61.5 t-24.5 -79.5t-12.5 -116t-3 -169z" />
<glyph unicode="P" horiz-adv-x="1085" d="M133 63v1317h502q94 0 170 -30.5t129 -84t81.5 -126t28.5 -156.5q0 -86 -28.5 -159.5t-81.5 -128t-129 -85t-170 -30.5h-330v-517h-172zM305 735h307q123 0 196 65.5t73 182.5t-73 179.5t-196 62.5h-307v-490z" />
<glyph unicode="Q" horiz-adv-x="1204" d="M92 727q0 94 4 175t16.5 147.5t38 120t68.5 94.5q68 63 158 98t194 35q213 0 353 -133q86 -84 107.5 -216.5t21.5 -320.5q0 -166 -14.5 -278.5t-67.5 -198.5l186 -184l-110 -103l-93 90q-23 23 -44 46.5t-44 45.5q-127 -92 -295 -92q-211 0 -352 142q-43 43 -68.5 95 t-38 117.5t-16.5 144.5t-4 175zM266 727q0 -106 3 -178t13.5 -121t29 -83t46.5 -60q35 -35 88 -55.5t125 -20.5t124.5 20.5t86.5 55.5q31 27 49.5 60.5t28.5 83.5t14.5 122t4.5 176q0 98 -4.5 167t-13.5 118t-24.5 82.5t-39.5 60.5q-37 41 -98.5 63.5t-127.5 22.5 t-126 -22.5t-99 -63.5q-25 -25 -40 -58.5t-24.5 -82.5t-12.5 -119t-3 -168z" />
<glyph unicode="R" horiz-adv-x="1132" d="M133 63v1317h510q92 0 167 -28.5t128 -78.5t82 -121t29 -153q0 -135 -80 -226t-205 -122q72 -123 145.5 -255t143.5 -255l-148 -80l-311 568h-289v-566h-172zM305 780h318q117 0 185.5 53t68.5 164q0 113 -69 170.5t-185 57.5h-318v-445z" />
<glyph unicode="S" horiz-adv-x="1107" d="M100 184l80 148q98 -53 195.5 -84t204.5 -31q43 0 89 13.5t82.5 40t61.5 66.5t25 91q0 53 -35 102.5t-88 71.5q-41 18 -91.5 29.5t-97.5 21.5q-61 12 -120.5 30.5t-112.5 51.5q-61 37 -100 87t-57 108q-16 52 -15 105v13q2 60 24 119q20 55 61.5 98.5t93.5 72t112.5 44 t122.5 15.5q113 0 216 -29t183 -70l-74 -147q-61 29 -135 55.5t-160 26.5q-39 0 -80 -7t-76.5 -22.5t-63.5 -43t-38 -66.5q-7 -25 -6 -49q-1 -41 19 -81q32 -62 102 -98q47 -25 97 -40t104 -25q82 -16 153.5 -41t123.5 -67t82 -104.5t30 -152.5q0 -96 -35 -168.5t-94.5 -121 t-139 -72t-170.5 -23.5q-123 0 -244.5 39t-228.5 94z" />
<glyph unicode="T" horiz-adv-x="1056" d="M72 1225v155h913v-155h-371v-1162h-172v1162h-370z" />
<glyph unicode="U" horiz-adv-x="1230" d="M76 1245l96 152q182 -96 182 -307v-578q0 -143 79 -224t214 -81q143 0 222 81t79 224v868h172v-874q0 -100 -35.5 -184t-98 -143.5t-149.5 -93.5t-190 -34q-98 0 -183 34t-148.5 93.5t-99.5 143.5t-36 184v528q0 84 -25.5 130t-78.5 81z" />
<glyph unicode="V" horiz-adv-x="1130" d="M53 1352l176 45l338 -1092l338 1092l176 -45l-432 -1289h-164z" />
<glyph unicode="W" horiz-adv-x="1658" d="M45 1356l174 41l264 -1112l226 1095h241l226 -1095l264 1112l174 -41l-326 -1290h-229l-230 1075l-229 -1075h-229z" />
<glyph unicode="X" horiz-adv-x="1155" d="M47 154l434 577l-395 565l145 101l347 -516l346 516l145 -101l-395 -565l434 -577l-150 -103l-380 522l-381 -522z" />
<glyph unicode="Y" horiz-adv-x="1089" d="M55 1300l146 97l344 -602l346 602l145 -94l-405 -678v-562h-172v562z" />
<glyph unicode="Z" horiz-adv-x="1032" d="M90 63v162l653 1000h-620v155h811v-155l-651 -1006h651v-156h-844z" />
<glyph unicode="[" horiz-adv-x="661" d="M162 78v1233q0 106 49 163.5t172 57.5h197v-141h-177q-45 0 -62 -20.5t-17 -59.5v-1233q0 -39 17 -57.5t62 -18.5h177v-145h-197q-123 0 -172 58t-49 163z" />
<glyph unicode="\" d="M2 684v158h229l-122 499l157 37l135 -536h246l109 526h227l111 -526h243l133 536l162 -41l-129 -495h234v-158h-275l-147 -590h-228l-122 590h-191l-121 -590h-229l-152 590h-270zM440 684l97 -377l77 377h-174zM805 842h127l-64 305zM1128 684l78 -371l92 371h-170z" />
<glyph unicode="]" horiz-adv-x="661" d="M84 2h176q45 0 62.5 18.5t17.5 57.5v1233q0 39 -17.5 59.5t-62.5 20.5h-176v141h197q123 0 172 -57.5t49 -163.5v-1233q0 -104 -49.5 -162.5t-171.5 -58.5h-197v145z" />
<glyph unicode="^" horiz-adv-x="1085" d="M156 883l299 557h157l303 -559l-149 -58l-231 447l-232 -445z" />
<glyph unicode="_" horiz-adv-x="1003" d="M0 -113h1004v-127h-1004v127z" />
<glyph unicode="`" horiz-adv-x="952" d="M227 1597h189l149 -362h-135z" />
<glyph unicode="a" horiz-adv-x="921" d="M72 336q0 125 84 197.5t237 72.5h271v70q0 41 -8.5 75.5t-32 59.5t-64.5 38t-106 13q-129 0 -244 -71l-68 122q72 47 158 75t160 28q178 0 277.5 -82t99.5 -242v-626h-168v100q-47 -55 -119 -84t-154 -29q-61 0 -118.5 16.5t-103.5 51.5t-73.5 88t-27.5 127zM250 340 q0 -70 41 -107.5t145 -37.5q123 0 175.5 51t52.5 164v71h-232q-92 0 -137 -29.5t-45 -111.5z" />
<glyph unicode="b" horiz-adv-x="1032" d="M68 1251l90 146q188 -96 188 -312v-221q37 43 73 71t70.5 43t67.5 20.5t61 5.5q78 0 145.5 -33t108.5 -94q47 -68 62.5 -155t15.5 -185q0 -57 -3 -114.5t-13 -111t-31.5 -98.5t-58.5 -78q-43 -37 -100.5 -59.5t-129.5 -22.5q-92 0 -159.5 41t-112.5 107v-138h-168v971 q0 92 -22.5 136t-83.5 81zM348 537q0 -68 7 -130.5t31 -109.5t66 -75.5t113 -28.5q74 0 117 28.5t65.5 75.5t28.5 109.5t6 130.5q0 70 -9 129t-32.5 101t-65.5 65.5t-110 23.5q-119 0 -168 -89t-49 -230z" />
<glyph unicode="c" horiz-adv-x="843" d="M68 532q0 96 28.5 184.5t84 155t135 105.5t182.5 39q86 0 151.5 -23.5t116.5 -58.5l-72 -131q-47 29 -91 43t-101 14q-63 0 -111.5 -24.5t-82.5 -68.5t-51 -104.5t-17 -130.5q0 -66 17 -125t51 -103t83 -70.5t111 -26.5q59 0 114.5 21.5t94.5 45.5l75 -127 q-66 -51 -134 -73.5t-154 -22.5q-102 0 -182 36t-135.5 100.5t-84 152.5t-28.5 192z" />
<glyph unicode="d" horiz-adv-x="1005" d="M94 530q0 111 17.5 213.5t91.5 176.5q88 84 223 84q66 0 141.5 -30t134.5 -108v170q0 82 -27.5 133.5t-80.5 85.5l90 142q98 -47 142 -130t44 -194v-1010h-163v127q-59 -78 -131 -107.5t-148 -29.5q-139 0 -227 82q-35 33 -56.5 78t-33 97t-14.5 108.5t-3 111.5zM256 530 q0 -68 8 -130t33 -109t68 -76t112 -29q76 0 121 29t68.5 76t31 109t7.5 130q0 70 -8.5 129.5t-33 102.5t-69.5 67.5t-117 24.5q-70 0 -112.5 -24.5t-67.5 -67.5t-33 -102.5t-8 -129.5z" />
<glyph unicode="e" horiz-adv-x="980" d="M66 530q0 117 31.5 207t89 152.5t136 94.5t173.5 32q203 0 306 -126t103 -374v-41h-659q0 -123 78.5 -195.5t201.5 -72.5q98 0 172 28.5t123 57.5l64 -137q-78 -49 -172.5 -77t-192.5 -28q-88 0 -170 27.5t-145.5 86t-101 148.5t-37.5 217zM242 600h491q0 123 -60 191.5 t-177 68.5q-104 0 -173 -65.5t-81 -194.5z" />
<glyph unicode="f" horiz-adv-x="636" d="M76 791v147h135v178q0 51 15.5 99.5t48 85t79.5 58t113 21.5h125v-145h-86q-70 0 -96.5 -32t-26.5 -97v-168h201v-147h-201v-728h-172v728h-135z" />
<glyph unicode="g" horiz-adv-x="972" d="M100 549q0 106 17.5 195.5t70.5 156.5q41 61 109 88t135 27q80 0 149.5 -35t118.5 -102v137h162v-901q0 -233 -107.5 -346t-293.5 -113q-78 0 -164 23.5t-164 89.5l88 116q47 -35 111.5 -57.5t124.5 -22.5q76 0 123 24t71.5 63.5t32.5 92t8 107.5v141q-43 -72 -116 -107 q-66 -30 -147 -30h-19q-113 2 -193 76q-72 74 -94.5 164t-22.5 213zM268 549q0 -61 6.5 -116.5t29 -98.5t65.5 -67.5t114 -24.5q70 0 111 24.5t62.5 67.5t28.5 98.5t7 116.5t-5 119.5t-26.5 103.5t-63.5 72.5t-114 27.5t-114.5 -27.5t-65 -72.5t-29 -103.5t-6.5 -119.5z" />
<glyph unicode="h" horiz-adv-x="1073" d="M68 1249l92 148q188 -96 188 -312v-200q70 66 136.5 92.5t131.5 26.5q154 0 239 -96.5t85 -252.5v-592h-172v566q0 123 -58.5 176t-152.5 53t-150.5 -59.5t-56.5 -169.5v-566h-172v971q0 78 -25.5 127t-84.5 88z" />
<glyph unicode="i" horiz-adv-x="475" d="M131 1290q0 47 27.5 77t72.5 30q47 0 76 -30t29 -77t-28.5 -74.5t-76.5 -27.5q-45 0 -72.5 27.5t-27.5 74.5zM147 63v941h172v-941h-172z" />
<glyph unicode="j" horiz-adv-x="503" d="M35 -182h71q74 0 97.5 25.5t23.5 90.5v1070h172v-1082q0 -53 -15 -100t-47 -82t-80 -56.5t-114 -21.5h-108v156zM213 1290q0 47 27.5 77t72.5 30q47 0 77 -30t30 -77t-30 -74.5t-77 -27.5q-45 0 -72.5 27.5t-27.5 74.5z" />
<glyph unicode="k" horiz-adv-x="929" d="M70 1249l92 148q92 -47 134 -124t42 -188v-522q104 113 198.5 218.5t198.5 222.5l121 -115l-330 -348q86 -92 177.5 -188.5t177.5 -188.5l-117 -107l-426 439v-433h-170v971q0 88 -20.5 133t-77.5 82z" />
<glyph unicode="l" horiz-adv-x="579" d="M74 1249l90 148q188 -98 188 -314v-747q0 -61 21.5 -97t93.5 -36h65v-140h-108q-63 0 -109.5 20.5t-76 56.5t-44 82t-14.5 97v711q0 88 -26.5 135t-79.5 84z" />
<glyph unicode="m" horiz-adv-x="1605" d="M59 868l91 144q49 -29 94 -68t61 -121q47 100 126 139t171 39q164 0 275 -153q72 86 147.5 119.5t161.5 33.5q74 0 136 -24.5t103 -63.5q55 -53 79 -118.5t24 -147.5v-584h-172v549q0 127 -58.5 181.5t-144.5 54.5q-45 0 -85 -13.5t-70.5 -41t-49 -70.5t-18.5 -100v-560 h-170v580q0 63 -17.5 103t-46 62.5t-66.5 31t-81 8.5q-92 0 -153.5 -55.5t-61.5 -180.5v-549h-172v586q0 43 -6 76t-18.5 57.5t-32 45t-46.5 40.5z" />
<glyph unicode="n" horiz-adv-x="1093" d="M70 874l88 142q23 -12 49 -31.5t50 -42t41 -49t21 -53.5q6 14 26 41.5t55.5 55.5t89 48.5t124.5 20.5q78 0 138.5 -28t102.5 -76t63.5 -112.5t21.5 -138.5v-585h-172v557q0 125 -61.5 178t-149.5 53q-92 0 -152.5 -52t-60.5 -179v-557h-174v587q0 90 -19.5 135.5 t-80.5 85.5z" />
<glyph unicode="o" horiz-adv-x="946" d="M88 528q0 117 20.5 212.5t86.5 164.5q47 47 119.5 80t164.5 33t165 -33t120 -80q66 -70 86 -165t20 -212q0 -121 -18 -206.5t-88 -157.5q-47 -49 -119 -81t-166 -32t-165.5 32t-118.5 81q-70 72 -88.5 158t-18.5 206zM256 528q0 -63 8 -127.5t43 -115.5q25 -35 73 -57.5 t99 -22.5t99.5 22.5t72.5 57.5q35 51 43 115.5t8 127.5q0 66 -8 132.5t-43 119.5q-27 39 -75 60.5t-97 21.5t-97 -21.5t-75 -60.5q-35 -53 -43 -119.5t-8 -132.5z" />
<glyph unicode="p" horiz-adv-x="1028" d="M68 870l92 144q59 -29 96 -68t55 -119q33 57 72 92t80 54.5t83 26t81 6.5q68 0 128 -24t101 -64q37 -37 58.5 -83.5t34 -97.5t15.5 -105t3 -110q0 -96 -14.5 -181t-53.5 -149.5t-104.5 -102.5t-165.5 -38q-80 0 -157 34t-130 91v-512h-170v1000q0 45 -5 75.5t-17.5 52 t-33 40t-48.5 38.5zM342 522q0 -68 9 -128t34 -105t70 -72t118 -27q70 0 114 27t67.5 72t32 105.5t8.5 127.5q0 70 -8.5 131.5t-32 106.5t-67.5 70.5t-114 25.5q-74 0 -118.5 -25.5t-69.5 -70.5t-34 -106.5t-9 -131.5z" />
<glyph unicode="q" horiz-adv-x="1028" d="M61 528q0 55 3.5 108.5t15.5 104t33.5 95.5t58.5 82q41 41 109.5 63.5t134.5 22.5q33 0 72.5 -8.5t80.5 -27t79 -51t67 -81.5q16 45 34.5 73.5t37 48t39 31.5t42.5 25l93 -148q-29 -20 -49.5 -37.5t-33 -39t-17.5 -51t-5 -74.5v-1006h-170v528q-53 -63 -129 -96t-143 -33 q-111 0 -179.5 39t-107.5 104.5t-52.5 150.5t-13.5 177zM231 528q0 -68 8.5 -128t34 -105t71.5 -71.5t120 -26.5q68 0 112 26.5t68.5 71.5t33.5 105t9 128q0 70 -8 130.5t-32.5 104.5t-68.5 68.5t-114 24.5q-135 0 -184.5 -84t-49.5 -244z" />
<glyph unicode="r" horiz-adv-x="804" d="M70 870l90 142q47 -23 96.5 -67t69.5 -120q23 45 58.5 79t75.5 55.5t81 33t73 11.5q33 0 72 -7.5t72 -17.5l-60 -156q-34 9 -70 15q-21 3 -44 4q-17 0 -35 -2q-92 -10 -148.5 -65.5t-56.5 -156.5v-552h-172v583q0 47 -4 80t-15.5 57.5t-32 44t-50.5 39.5z" />
<glyph unicode="s" horiz-adv-x="917" d="M70 160l73 135q88 -51 177.5 -72.5t138.5 -21.5q47 0 89 5t72.5 19.5t49 39t18.5 63.5q0 45 -23.5 68.5t-57.5 35.5t-71.5 17.5t-64.5 11.5q-61 12 -124.5 30.5t-117 49t-87 79t-33.5 119.5q0 135 95 206t261 71q98 0 183 -26.5t145 -55.5l-68 -127q-41 18 -107.5 37.5 t-146.5 23.5h-21q-77 0 -121 -26q-50 -30 -53 -90q0 -23 7.5 -44.5t31 -42t66.5 -37t115 -28.5q63 -12 127.5 -27.5t116 -44t83 -74.5t31.5 -118t-30.5 -126t-84 -89t-126 -52.5t-154.5 -17.5q-92 0 -184.5 21.5t-204.5 87.5z" />
<glyph unicode="t" horiz-adv-x="671" d="M76 788v148h125v287h174v-287h196v-148h-196v-442q0 -59 26.5 -95t96.5 -36h88v-152h-127q-66 0 -114 21.5t-81 57.5t-48 83t-15 99v464h-125z" />
<glyph unicode="u" horiz-adv-x="1060" d="M68 870l86 146q82 -41 128 -110.5t46 -162.5v-301q0 -129 56 -185t148 -56t158 58t66 183v562h172v-941h-172v113q-49 -59 -124 -91t-153 -32q-143 0 -229 86q-59 57 -76.5 120t-17.5 149v284q0 33 -4.5 57.5t-13.5 45t-26.5 38t-43.5 37.5z" />
<glyph unicode="v" horiz-adv-x="942" d="M57 961l164 55l252 -785l254 785l158 -55l-326 -898h-172z" />
<glyph unicode="w" horiz-adv-x="1454" d="M61 967l156 49l221 -805l166 793h246l166 -793l221 805l156 -49l-275 -904h-227l-164 801l-164 -801h-227z" />
<glyph unicode="x" horiz-adv-x="995" d="M70 154l323 383l-301 370l131 109l275 -363l274 363l129 -109l-299 -370l324 -383l-127 -103l-301 367l-303 -367z" />
<glyph unicode="y" horiz-adv-x="940" d="M43 948l160 68l276 -717l252 717l168 -49l-428 -1117q-33 -86 -101.5 -139t-160.5 -53h-57v158h34q70 0 105 41t63 108l49 121z" />
<glyph unicode="z" horiz-adv-x="892" d="M88 63v134l500 651h-473v156h678v-134l-506 -651h506v-156h-705z" />
<glyph unicode="{" horiz-adv-x="774" d="M129 618v154h8q43 0 73 14.5t47 39t24.5 56t7.5 66.5v205q0 61 8 118.5t33 104.5q23 43 59.5 85t77.5 79l115 -108q-39 -37 -58.5 -61.5t-36.5 -55.5q-35 -59 -34 -174v-250q0 -74 -40 -117t-89 -76q49 -33 89 -78t40 -122v-250q0 -53 7 -95t23 -77q16 -37 42 -68t55 -57 l-109 -103q-18 18 -39.5 41t-41 45.5t-35 43t-23.5 36.5q-27 47 -35 107.5t-8 114.5v208q0 76 -37 125t-115 49h-8z" />
<glyph unicode="|" horiz-adv-x="643" d="M242 -143v1675h159v-1675h-159z" />
<glyph unicode="}" horiz-adv-x="774" d="M162 1432l114 108q41 -37 78 -79t60 -85q25 -47 33 -104.5t8 -118.5v-205q0 -35 7 -66.5t24.5 -56t47 -39t72.5 -14.5h8v-154h-8q-78 0 -114.5 -49t-36.5 -125v-208q0 -53 -8.5 -114t-34.5 -108q-8 -16 -23.5 -36.5t-35 -43t-41 -45t-40.5 -41.5l-108 103 q29 27 54.5 57.5t41.5 67.5q16 35 23.5 77t7.5 95v250q0 78 40 123t89 77q-49 33 -89 76t-40 117v250q0 115 -35 174q-16 31 -35.5 55.5t-58.5 61.5z" />
<glyph unicode="~" horiz-adv-x="1097" d="M100 731q78 78 137.5 110.5t124.5 32.5q53 0 103.5 -18t105.5 -47q41 -20 82 -34.5t80 -14.5q37 0 75 16.5t87 63.5l102 -109q-78 -78 -135 -104.5t-125 -26.5q-53 0 -102 15.5t-109 43.5q-45 23 -81.5 37.5t-77.5 14.5t-76 -15.5t-90 -64.5z" />
<glyph unicode="&#xa1;" horiz-adv-x="630" d="M201 1296q0 43 27.5 71t74.5 28q41 0 70.5 -28t29.5 -71q0 -45 -29.5 -74.5t-70.5 -29.5q-47 0 -74.5 29.5t-27.5 74.5zM211 53l33 967h114l33 -946v-21h-180z" />
<glyph unicode="&#xa2;" d="M391 737q0 201 64.5 336t158.5 217q68 59 164 92t209 33h17q10 0 16 -2l59 203l140 -39l-56 -188q53 -16 97.5 -41t78.5 -50l-96 -114q-25 14 -56.5 28.5t-68.5 26.5l-295 -995q80 -33 164 -33q80 0 153.5 29.5t133.5 76.5l98 -118q-88 -80 -187.5 -113t-197.5 -33 q-55 0 -108.5 7.5t-102.5 23.5l-57 -197l-137 41l65 222q-10 8 -19.5 14t-17.5 16q-43 39 -83 91.5t-69.5 120t-48 153.5t-18.5 192zM561 737q0 -154 43 -250t96 -155l273 928q-74 -4 -141.5 -30t-110.5 -73q-29 -31 -57.5 -68.5t-51 -88t-37 -115t-14.5 -148.5z" />
<glyph unicode="&#xa3;" d="M377 53v125h20q23 0 47.5 2t38.5 6q43 14 73 45t48.5 72t26.5 88t8 96q0 55 -10.5 108.5t-26.5 96.5h-172v88h154q-35 70 -50.5 150t-15.5 145q0 86 34 157t90 122t130 79.5t154 28.5q205 0 327.5 -112.5t130.5 -329.5h-170q-6 63 -23 116.5t-50 92.5t-84 61.5t-127 22.5 q-43 0 -83 -16.5t-71 -48t-49 -78t-18 -105.5q0 -72 9 -145.5t42 -139.5h340v-88h-328q12 -55 19.5 -109.5t7.5 -103.5q0 -74 -24.5 -150.5t-84.5 -138.5h326q31 0 67.5 4.5t71.5 24t63.5 58t43.5 106.5h157q-20 -90 -59 -152.5t-86 -102.5t-96.5 -57.5t-92.5 -17.5h-708z " />
<glyph unicode="&#xa4;" horiz-adv-x="1609" d="M102 1143l97 84l194 -176q92 78 183.5 112.5t218.5 34.5q129 2 225 -33t190 -118l201 176l96 -80l-217 -193q55 -84 77 -161.5t17 -184.5q-4 -102 -28.5 -178t-83.5 -156l229 -204l-84 -89l-221 203q-96 -76 -189.5 -105.5t-215.5 -25.5q-117 2 -201 29.5t-170 99.5 l-232 -203l-84 91l232 202q-55 78 -81 149.5t-30 170.5q-6 111 12.5 192.5t75.5 171.5zM346.5 544q20.5 -118 89 -210t182 -142.5t265.5 -23.5q156 27 246 113t121.5 196.5t10 228t-91 210t-183 141.5t-263.5 22q-152 -27 -242 -111.5t-122.5 -195t-12 -228.5z" />
<glyph unicode="&#xa5;" d="M377 1307l143 96l350 -600l351 600l145 -94l-346 -568h338v-118h-404v-164h404v-119h-404v-274h-172v274h-383v119h383v164h-383v118h318z" />
<glyph unicode="&#xa7;" horiz-adv-x="894" d="M178 664q0 92 40 141t114 51q-51 57 -81 128t-30 149q0 248 228 247q117 0 170 -53t53 -151h-144q0 66 -25.5 94t-60.5 28q-53 0 -76.5 -27.5t-23.5 -92.5q0 -78 40 -143.5t110 -137.5q98 -98 161.5 -195t63.5 -208q0 -162 -133 -181q88 -113 88 -254 q0 -129 -60.5 -196.5t-177.5 -67.5q-111 0 -173 51.5t-62 163.5h143q0 -66 26.5 -93.5t63.5 -27.5q47 0 72.5 27t25.5 102q0 66 -27.5 135.5t-82.5 118.5q-98 90 -170 187.5t-72 204.5zM299 688q2 -31 18.5 -66.5t38.5 -64.5q59 -80 92 -115.5t70 -35.5q43 0 59.5 20 t14.5 50t-17.5 63.5t-33.5 62.5q-59 88 -97 123t-84 35q-37 0 -50 -20.5t-11 -51.5z" />
<glyph unicode="&#xa8;" d="M504 1343v152h147v-152h-147zM1149 1343v152h143v-152h-143z" />
<glyph unicode="&#xa9;" horiz-adv-x="1751" d="M172 584q0 143 55.5 269t150.5 218t222 145.5t272 53.5q143 0 271.5 -53.5t223.5 -145.5t150.5 -218t55.5 -269q0 -145 -55.5 -270.5t-150.5 -217.5t-223 -145t-272 -53q-145 0 -272 53t-222 145t-150.5 217t-55.5 271zM242 584q0 -129 50 -243t136 -198t200.5 -132 t243.5 -48t244 48t201 132t136 198t50 243t-50 242.5t-136 197.5t-201 132t-244 48t-243.5 -48t-200.5 -132t-136 -197.5t-50 -242.5zM477 555q0 92 19.5 173t78.5 161q47 61 115 99t154 38q139 0 219 -102v75h127v-337h-127q-2 98 -52 162.5t-137 64.5q-61 0 -105 -27.5 t-70.5 -73t-39 -100.5t-12.5 -110q0 -61 11.5 -116.5t43.5 -111.5q27 -47 73 -74.5t99 -27.5q72 0 119 53t62 139h151q-6 -80 -36.5 -140t-76.5 -101t-106.5 -62.5t-124.5 -21.5q-88 0 -158.5 35.5t-121 96t-78 140.5t-27.5 168z" />
<glyph unicode="&#xaa;" horiz-adv-x="909" d="M123 582v120h663v-120h-663zM160 956q0 106 82 151.5t237 74.5q39 8 60.5 21.5t21.5 47.5q0 109 -131 109q-59 0 -100 -27.5t-47 -99.5h-99q4 111 74 162t176 51q94 0 158.5 -44t64.5 -159v-323q0 -37 33 -37q6 0 12.5 1t22.5 5v-84q-10 -2 -18.5 -3t-14.5 -1h-24 q-86 0 -99 76q-23 -43 -71.5 -70t-130.5 -27q-86 0 -146.5 40t-60.5 136zM260 958q0 -92 115 -92q88 0 137 42t49 134v78q-18 -12 -51 -20q-135 -29 -192.5 -56.5t-57.5 -85.5z" />
<glyph unicode="&#xab;" d="M184 641q0 6 7.5 12t16.5 11.5t17 9.5t11 4l866 553l35 -60l-830 -530l821 -547l-34 -59l-846 563l-15 6q-16 10 -32.5 18.5t-16.5 18.5zM604 641q0 10 22.5 22.5t26.5 14.5l869 553l34 -60l-831 -530l821 -547l-35 -59l-845 563l-15 6q-14 8 -30.5 17.5t-16.5 19.5z" />
<glyph unicode="&#xac;" d="M35 350v58h1671v-603h-61v545h-1610z" />
<glyph unicode="&#xad;" horiz-adv-x="892" d="M164 590v147h565v-147h-565z" />
<glyph unicode="&#xb0;" horiz-adv-x="874" d="M231 1192q-2 41 9.5 81t37 70.5t65.5 50t95 19.5q53 0 93 -19.5t66 -50t37 -70.5t9 -81q-4 -74 -55 -132.5t-150 -58.5q-98 0 -150 58.5t-57 132.5zM295 1198q2 -51 38 -93t105 -42q72 0 108 44t36 97q2 55 -34 101.5t-110 46.5q-76 0 -111.5 -48.5t-31.5 -105.5z" />
<glyph unicode="&#xb1;" horiz-adv-x="1003" d="M90 147v144h807v-144h-807zM90 803v143h322v340h153v-340h332v-143h-332v-332h-153v332h-322z" />
<glyph unicode="&#xb2;" horiz-adv-x="643" d="M190 1061q0 72 35 110.5t88 71.5q31 20 49.5 42t18.5 56q0 53 -57 54q-27 0 -44.5 -19.5t-17.5 -66.5h-63q0 72 33.5 107.5t91.5 35.5q53 0 85.5 -27.5t32.5 -83.5q0 -59 -34.5 -94t-85.5 -65q-16 -10 -31 -25.5t-21 -36.5h174v-59h-254z" />
<glyph unicode="&#xb3;" horiz-adv-x="704" d="M207 1192h59q-2 -45 18.5 -63.5t49.5 -18.5q31 0 51.5 16.5t20.5 44.5q0 63 -66 64h-33v57h33q20 0 35.5 14.5t15.5 41.5q0 47 -57 47q-29 0 -44.5 -18.5t-13.5 -61.5h-59q-4 66 30 101.5t87 35.5t86 -24.5t33 -77.5q0 -57 -43 -82q55 -16 55 -92q0 -59 -37 -90t-92 -31 q-59 0 -96 32.5t-33 104.5z" />
<glyph unicode="&#xb4;" horiz-adv-x="649" d="M123 981l180 432h223l-319 -432h-84z" />
<glyph unicode="&#xb6;" horiz-adv-x="1124" d="M133 1032q-4 74 20.5 143.5t76 125t129 89t180.5 33.5h452v-1603h-104v1538h-242v-1538h-102v864q-80 -8 -152 15.5t-128 70.5t-91 114.5t-39 147.5z" />
<glyph unicode="&#xb7;" d="M768 643q0 43 29.5 72.5t70.5 29.5t71 -29.5t30 -72.5q0 -45 -30 -73.5t-71 -28.5t-70.5 28.5t-29.5 73.5z" />
<glyph unicode="&#xb8;" horiz-adv-x="649" d="M123 -135l41 74q61 -43 137 -43q49 0 74.5 19t25.5 50q0 76 -86 76q-27 0 -46 -9t-36 -22l-32 21l84 205h102l-49 -121q18 12 55 12q63 0 98 -42t35 -105q0 -74 -53 -127.5t-164 -53.5q-23 0 -49.5 5.5t-52 14.5t-48 21.5t-36.5 24.5z" />
<glyph unicode="&#xb9;" horiz-adv-x="641" d="M225 1317v49q45 2 61.5 17.5t22.5 64.5h56v-385h-64v254h-76z" />
<glyph unicode="&#xba;" horiz-adv-x="909" d="M123 582v120h663v-120h-663zM166 1112q0 74 20.5 134.5t58.5 105.5t90 69.5t118 24.5q63 0 115.5 -24.5t90 -69.5t58 -105.5t20.5 -134.5t-20.5 -134t-58 -104.5t-90 -69t-115.5 -24.5q-66 0 -118 24.5t-90 69t-58.5 104.5t-20.5 134zM260 1112q0 -117 53.5 -180.5 t139.5 -63.5t138 63.5t52 180.5t-52 181.5t-138 64.5t-139.5 -64.5t-53.5 -181.5z" />
<glyph unicode="&#xbb;" d="M186 111l828 528l-817 549l34 57l846 -563q2 -2 11.5 -6t19.5 -10.5t19.5 -12.5t9.5 -12t-7.5 -12t-16.5 -11.5t-17.5 -9.5t-10.5 -6l-866 -553zM604 111l828 528l-818 549l35 57l846 -563q2 -2 11.5 -6t19.5 -10.5t19 -12.5t9 -12t-7 -12t-16 -11.5t-17.5 -9.5t-10.5 -6 l-866 -553z" />
<glyph unicode="&#xbc;" horiz-adv-x="1433" d="M139 102l1049 1092l65 -59l-1050 -1094zM176 1167v88q39 2 66.5 9.5t44 24t27 45t16.5 73.5h100v-700h-117v460h-137zM733 -8v100l318 440h98v-432h98v-108h-98v-162h-115v162h-301zM874 100h160v228z" />
<glyph unicode="&#xbd;" horiz-adv-x="1435" d="M131 102l1049 1092l67 -59l-1050 -1094zM182 1167v88q41 2 67.5 9.5t44 24t27 45t15.5 73.5h100v-700h-114v460h-140zM782 -176q2 68 19.5 115t47.5 83.5t69.5 65.5t89.5 59q59 37 93 74t34 103q0 49 -29 73.5t-78 24.5t-82 -35t-33 -121h-114q0 129 61.5 194.5 t165.5 65.5q98 0 158.5 -49t60.5 -153q0 -53 -17.5 -94.5t-47 -74t-70.5 -61t-88 -57.5q-29 -18 -55.5 -42t-38.5 -61h323v-110h-469z" />
<glyph unicode="&#xbe;" horiz-adv-x="1435" d="M168 948h111q-4 -86 31.5 -118.5t90.5 -32.5t91 29.5t36 82.5q0 55 -30.5 85t-83.5 30h-64v104h64q35 0 62.5 24t27.5 71q0 41 -27.5 63.5t-75.5 22.5q-53 0 -80.5 -33t-25.5 -109h-113q-4 119 58.5 183.5t160.5 64.5t155.5 -44t57.5 -142q0 -47 -17 -86t-58 -62 q47 -14 74.5 -55t27.5 -113q0 -104 -68.5 -160.5t-169.5 -56.5q-111 0 -176 60.5t-59 191.5zM209 102l1048 1092l66 -59l-1051 -1094zM778 -12v100l318 440h98v-432h100v-108h-100v-162h-115v162h-301zM920 96h159v228z" />
<glyph unicode="&#xbf;" horiz-adv-x="1024" d="M76 272v170q0 92 30.5 143.5t98.5 92.5q53 35 108.5 67.5t110.5 67.5q25 16 33 33.5t8 46.5v127h164v-139q0 -111 -111 -187q-47 -31 -97 -61.5t-97 -59.5q-53 -31 -68.5 -57.5t-15.5 -79.5v-139q0 -53 24.5 -72.5t73.5 -19.5h315q47 0 79 20.5t32 83.5v137h164v-131 q0 -63 -12.5 -112t-44 -82t-86 -50.5t-140.5 -17.5h-299q-80 0 -132 16.5t-83 45t-43 68.5t-12 89zM444 1296q0 43 29 71t70 28t70.5 -28t29.5 -71t-29.5 -72.5t-70.5 -29.5t-70 29.5t-29 72.5z" />
<glyph unicode="&#xc6;" horiz-adv-x="1628" d="M102 -45l631 1388h780v-149h-546v-444h499v-150h-499v-496h559v-149h-725v416h-334l-188 -416h-177zM532 518h269v594z" />
<glyph unicode="&#xd0;" horiz-adv-x="1495" d="M61 653v121h230v569h461q307 0 463.5 -168t156.5 -526t-156.5 -526t-463.5 -168h-461v698h-230zM457 102h250q137 0 233 30t155.5 95.5t86 170t26.5 251.5t-26.5 252t-86 170.5t-155.5 95t-233 29.5h-250v-422h231v-121h-231v-551z" />
<glyph unicode="&#xd7;" horiz-adv-x="1003" d="M139 487l248 250l-244 248l103 102l243 -245l250 245l107 -106l-240 -240l250 -254l-106 -110l-263 252l-247 -250z" />
<glyph unicode="&#xd8;" horiz-adv-x="1449" d="M102 647q0 172 48.5 306t132.5 227.5t197.5 142.5t244.5 49q176 0 319 -88l127 217l103 -59l-135 -232q98 -94 153.5 -235.5t55.5 -327.5q0 -172 -48.5 -306t-132.5 -226t-197.5 -141.5t-244.5 -49.5q-160 0 -293 72l-156 -268l-102 61l160 274q-106 92 -169 239t-63 345 zM268 647q0 -289 148 -442l551 944q-102 74 -242 74q-102 0 -186 -41t-144.5 -116t-93.5 -181.5t-33 -237.5zM510 129q88 -57 215 -57q102 0 186 41t144.5 115.5t93.5 181t33 237.5q0 135 -34 239.5t-93 178.5z" />
<glyph unicode="&#xde;" horiz-adv-x="923" d="M143 -45v1388h166v-219q98 -4 194.5 -38.5t171.5 -98t121 -153.5t46 -203q0 -115 -46 -204t-121 -151.5t-171 -97.5t-195 -39v-184h-166zM309 279q63 2 131 25.5t122 67.5t89 108.5t35 150.5q0 88 -35 152.5t-89 108.5t-121.5 66.5t-131.5 26.5v-706z" />
<glyph unicode="&#xdf;" horiz-adv-x="1099" d="M123 51v1170h463q80 0 148.5 -14.5t119.5 -49.5t81 -92t30 -145q0 -92 -45.5 -160t-122.5 -92q45 -12 86 -42t70.5 -73t47 -96.5t17.5 -114.5q0 -186 -94.5 -290.5t-286.5 -104.5q-137 0 -228.5 65.5t-107.5 206.5h137q29 -158 199 -158q121 0 183.5 63.5t62.5 221.5 q0 250 -297 250h-324v-545h-139zM262 725h324q141 0 190 46t49 138t-58 139.5t-181 47.5h-324v-371z" />
<glyph unicode="&#xe6;" horiz-adv-x="1495" d="M102 236q0 72 30 122t85 83.5t136 56t186 41.5q51 10 80.5 28.5t29.5 63.5q0 74 -47 110.5t-135 36.5q-78 0 -135.5 -35.5t-65.5 -132.5h-129q6 145 100.5 214t237.5 69q92 0 167 -28.5t112 -102.5q47 61 114.5 96t159.5 35q100 0 170 -36t113 -99.5t62.5 -153.5 t19.5 -196h-598q4 -135 64.5 -214t170.5 -79q100 0 155.5 49t78.5 141h129q-31 -147 -123 -226t-240 -79q-201 0 -301 162q-47 -80 -137 -121t-207 -41q-59 0 -110.5 13.5t-90.5 41t-60.5 72.5t-21.5 109zM236 238q0 -123 159 -123q117 0 185.5 57t68.5 180v107 q-27 -20 -67 -31q-90 -18 -156 -35.5t-108 -38t-62 -49.5t-20 -67zM795 524h467q-6 104 -63.5 179t-170.5 75q-111 0 -165 -71.5t-68 -182.5z" />
<glyph unicode="&#xf0;" horiz-adv-x="1019" d="M123 489q0 98 28.5 180.5t79 141.5t122 92t157.5 33q92 0 158 -33q-16 43 -37 82t-49 74l-86 -86l-58 55l90 90q-23 27 -51 50.5t-61 45.5l47 66q80 -41 137 -90l84 86l57 -55l-82 -84q117 -123 177.5 -281.5t60.5 -363.5q0 -100 -27.5 -183.5t-79 -143t-123 -92 t-157.5 -32.5t-157.5 32.5t-122 93t-79 142.5t-28.5 180zM254 489q0 -154 69.5 -242.5t186.5 -88.5q113 0 184.5 88.5t71.5 242.5t-71.5 243t-184.5 89q-117 0 -186.5 -89t-69.5 -243z" />
<glyph unicode="&#xf7;" horiz-adv-x="1003" d="M90 664v143h807v-143h-807zM391 362q0 45 27.5 75t68.5 30t71 -29.5t30 -75.5q0 -43 -30 -70.5t-71 -27.5t-68.5 27.5t-27.5 70.5zM391 1102q0 45 27.5 74.5t68.5 29.5t71 -29.5t30 -74.5q0 -43 -30 -72t-71 -29t-68.5 29t-27.5 72z" />
<glyph unicode="&#xf8;" horiz-adv-x="1019" d="M123 444q0 98 28.5 180.5t79 141.5t122 92t157.5 33q76 0 149 -29l68 148l80 -37l-74 -156q78 -57 121 -153.5t43 -219.5q0 -98 -28.5 -180t-79 -142.5t-122 -93t-157.5 -32.5q-84 0 -148 31l-77 -168l-78 37l80 174q-78 57 -121 154.5t-43 219.5zM254 444 q0 -170 86 -260l268 570q-41 20 -98 20q-117 0 -186.5 -88t-69.5 -242zM414 133q39 -20 96 -20q113 0 184.5 88.5t71.5 242.5q0 168 -86 258z" />
<glyph unicode="&#xfe;" horiz-adv-x="905" d="M123 -121v1335h131v-364q35 31 79 47t105 16q86 0 157 -32.5t122 -92t78.5 -141.5t27.5 -180t-27.5 -180t-78.5 -142.5t-122 -93.5t-157 -33q-61 0 -105 17.5t-79 48.5v-205h-131zM254 252q29 -55 74 -86t110 -31q113 0 183.5 89t70.5 243t-70.5 242t-183.5 88 q-127 0 -184 -117v-428z" />
<glyph unicode="&#x152;" horiz-adv-x="1652" d="M82 649q0 358 152.5 526t457.5 168h887v-149h-588v-444h541v-150h-541v-496h600v-149h-899q-305 0 -457.5 168t-152.5 526zM246 649q0 -147 24.5 -251.5t83 -170t151.5 -95.5t232 -30h76v1094h-76q-139 0 -232 -29.5t-151.5 -95t-83 -170t-24.5 -252.5z" />
<glyph unicode="&#x153;" horiz-adv-x="1519" d="M102 446q0 98 27 180.5t75 141.5t115.5 92t149.5 33q104 0 182 -49t125 -137q43 88 116 137t177 49q94 0 160.5 -36t107.5 -99.5t60.5 -153.5t19.5 -196h-569q4 -135 61.5 -214t161.5 -79q94 0 147.5 49t75.5 141h123q-31 -147 -120 -226t-226 -79q-98 0 -174 46 t-121 138q-47 -86 -127 -135t-180 -49q-82 0 -149.5 33t-115.5 92t-75 141t-27 180zM227 446q0 -154 65.5 -242.5t176.5 -88.5t177.5 88.5t66.5 242.5t-66.5 243t-177.5 89t-176.5 -89t-65.5 -243zM850 524h442q-6 104 -61 179t-162 75q-104 0 -155.5 -71.5t-63.5 -182.5z " />
<glyph unicode="&#x2dc;" d="M418 1290q74 66 141.5 101.5t138.5 35.5q57 0 104.5 -17t88.5 -42t72.5 -35t78.5 -10q37 0 66 4t55.5 14.5t53 26.5t59.5 43l47 -49q-74 -68 -141.5 -103.5t-139.5 -35.5q-57 0 -103 17t-89 42q-41 23 -73 34t-79 11q-37 0 -66.5 -4t-55 -14.5t-52 -26.5t-59.5 -43z" />
<glyph unicode="&#x2000;" horiz-adv-x="808" />
<glyph unicode="&#x2001;" horiz-adv-x="1616" />
<glyph unicode="&#x2002;" horiz-adv-x="808" />
<glyph unicode="&#x2003;" horiz-adv-x="1616" />
<glyph unicode="&#x2004;" horiz-adv-x="538" />
<glyph unicode="&#x2005;" horiz-adv-x="404" />
<glyph unicode="&#x2006;" horiz-adv-x="269" />
<glyph unicode="&#x2007;" horiz-adv-x="269" />
<glyph unicode="&#x2008;" horiz-adv-x="202" />
<glyph unicode="&#x2009;" horiz-adv-x="323" />
<glyph unicode="&#x200a;" horiz-adv-x="89" />
<glyph unicode="&#x2010;" horiz-adv-x="1003" d="M174 653v144h653v-144h-653z" />
<glyph unicode="&#x2011;" horiz-adv-x="1003" d="M174 653v144h653v-144h-653z" />
<glyph unicode="&#x2012;" horiz-adv-x="1003" d="M174 653v144h653v-144h-653z" />
<glyph unicode="&#x2013;" horiz-adv-x="1374" d="M174 653v144h1024v-144h-1024z" />
<glyph unicode="&#x2014;" horiz-adv-x="1536" d="M20 600v121h1496v-121h-1496z" />
<glyph unicode="&#x2018;" horiz-adv-x="444" d="M125 1321q0 154 168 248l39 -53q-57 -37 -84 -73t-35 -81q55 14 90 -10.5t35 -79.5q-2 -45 -29.5 -68.5t-68.5 -23.5q-41 -2 -78 33.5t-37 107.5z" />
<glyph unicode="&#x2019;" horiz-adv-x="444" d="M90 1477q2 45 29.5 68.5t68.5 23.5q41 2 78 -34t37 -108q0 -154 -168 -247l-39 53q57 37 84 72.5t35 80.5q-55 -14 -90 10.5t-35 80.5z" />
<glyph unicode="&#x201c;" horiz-adv-x="765" d="M145 1321q0 154 168 248l39 -53q-57 -37 -84 -73t-35 -81q55 14 90 -10.5t35 -79.5q-2 -45 -29.5 -68.5t-68.5 -23.5q-41 -2 -78 33.5t-37 107.5zM442 1321q0 154 168 248l39 -53q-57 -37 -84 -73t-35 -81q55 14 90 -10.5t35 -79.5q-2 -45 -29.5 -68.5t-68.5 -23.5 q-41 -2 -78 33.5t-37 107.5z" />
<glyph unicode="&#x201d;" horiz-adv-x="765" d="M111 1477q2 45 29.5 68.5t68.5 23.5q41 2 78 -34t37 -108q0 -154 -168 -247l-39 53q57 37 84 72.5t35 80.5q-55 -14 -90 10.5t-35 80.5zM397 1477q2 45 30 68.5t69 23.5q41 2 77.5 -34t36.5 -108q0 -154 -168 -247l-39 53q57 37 84 72.5t35 80.5q-55 -14 -90 10.5 t-35 80.5z" />
<glyph unicode="&#x2022;" d="M657 608q0 41 13.5 80t39 69.5t66.5 49t96 18.5t96.5 -19.5t68 -51t38.5 -71.5t10 -81q-2 -39 -16 -76t-41 -65.5t-65.5 -46t-90.5 -17.5q-53 0 -93 18.5t-66.5 47.5t-41 66.5t-14.5 78.5z" />
<glyph unicode="&#x2026;" d="M166 643q0 43 27.5 72.5t68.5 29.5q43 0 73 -29.5t30 -72.5q0 -45 -30 -73.5t-73 -28.5q-41 0 -68.5 28.5t-27.5 73.5zM770 647q0 43 29.5 73t70.5 30t71 -30t30 -73q0 -45 -30 -72.5t-71 -27.5t-70.5 27.5t-29.5 72.5zM1378 643q0 43 29 72.5t70 29.5t70.5 -29.5 t29.5 -72.5q0 -45 -29.5 -73.5t-70.5 -28.5t-70 28.5t-29 73.5z" />
<glyph unicode="&#x202f;" horiz-adv-x="323" />
<glyph unicode="&#x2039;" d="M303 600l1368 838v-70l-1233 -768l1233 -764v-74z" />
<glyph unicode="&#x203a;" d="M35 -164l1235 764l-1235 768v70l1368 -838l-1368 -838v74z" />
<glyph unicode="&#x205f;" horiz-adv-x="404" />
<glyph unicode="&#x2122;" d="M244 1438v86h442v-86h-176v-543h-92v543h-174zM811 895v629h145l144 -514l139 514h147v-629h-92v467l-139 -467h-117l-135 467v-467h-92z" />
<glyph unicode="&#x25fc;" horiz-adv-x="1013" d="M0 0v1014h1014v-1014h-1014z" />
</font>
</defs>
</svg>
