<?xml version="1.0" standalone="no"?>
<!DOCTYPE svg PUBLIC "-//W3C//DTD SVG 1.1//EN" "http://www.w3.org/Graphics/SVG/1.1/DTD/svg11.dtd" >
<svg xmlns="http://www.w3.org/2000/svg" xmlns:xlink="http://www.w3.org/1999/xlink" version="1.1">
<metadata></metadata>
<defs>
<font id="ktg_sangsangbodym" horiz-adv-x="1843" >
<font-face units-per-em="2048" ascent="1638" descent="-410" />
<missing-glyph horiz-adv-x="471" />
<glyph horiz-adv-x="0" />
<glyph horiz-adv-x="682" />
<glyph unicode=" "  horiz-adv-x="471" />
<glyph unicode="&#x09;" horiz-adv-x="471" />
<glyph unicode="&#xa0;" horiz-adv-x="471" />
<glyph unicode="!" horiz-adv-x="458" d="M104 115q0 -55 32 -92t91 -37t91 36.5t32 92.5q0 57 -31.5 93t-91.5 36q-59 0 -91 -36t-32 -93zM125 1499l20 -1102h162l21 1102h-203z" />
<glyph unicode="&#x22;" horiz-adv-x="665" d="M98 1511l29 -464h143l27 464h-199zM369 1511l30 -464h142l26 464h-198z" />
<glyph unicode="#" horiz-adv-x="1085" d="M39 449h194l-53 -418h168l51 418h207l-51 -418h166l49 418h229v161h-206l30 275h217v162h-192l51 405h-168l-49 -405h-211l53 405h-166l-51 -405h-223v-162h201l-33 -275h-213v-161zM418 610l33 275h208l-30 -275h-211z" />
<glyph unicode="$" horiz-adv-x="1126" d="M76 381q35 -162 141.5 -252t263.5 -111v-180h164v178q90 8 164 39t127 82t83 122t30 163q0 80 -30 141.5t-83 107.5t-128 80.5t-163 63.5v494q86 -20 130 -77.5t77 -139.5l129 79q-35 123 -119 201t-217 94v146h-164v-148q-186 -23 -272 -122t-86 -244q0 -78 25.5 -138.5 t72.5 -106.5t113.5 -82t146.5 -62v-537q-197 37 -274 283zM295 1102q0 92 52 142t134 67v-441q-92 39 -139 89.5t-47 142.5zM645 172v483q106 -41 169 -95t63 -142q0 -109 -63.5 -169.5t-168.5 -76.5z" />
<glyph unicode="%" horiz-adv-x="1630" d="M72 1042q0 -115 25.5 -198.5t69.5 -139t101.5 -83t120.5 -27.5t120.5 27.5t101.5 83t70 139.5t26 198q0 109 -26 189t-69 133t-101 78.5t-122 25.5q-66 0 -123 -25.5t-100 -78.5t-68.5 -133t-25.5 -189zM236 1036q0 57 9 110.5t27.5 93.5t47 63.5t69.5 23.5 q39 0 68.5 -23.5t48 -63.5t28 -93t9.5 -111q0 -61 -9.5 -116.5t-28 -95.5t-48 -63.5t-68.5 -23.5q-41 0 -69.5 23.5t-47 63.5t-27.5 95.5t-9 116.5zM297 0h172l854 1477h-174zM926 469q0 -115 25.5 -199t69.5 -139t101.5 -83t120.5 -28t120.5 28t101.5 83t70 139t26 199 q0 109 -26 188.5t-69 133t-101 79t-122 25.5q-66 0 -123 -25.5t-100 -79t-68.5 -133t-25.5 -188.5zM1090 463q0 57 9 110.5t27.5 93.5t47 63.5t69.5 23.5q39 0 68.5 -23.5t48 -63.5t28 -93.5t9.5 -110.5q0 -61 -9.5 -116.5t-28 -95.5t-48 -63.5t-68.5 -23.5 q-41 0 -69.5 23.5t-47 63.5t-27.5 95t-9 117z" />
<glyph unicode="&#x26;" horiz-adv-x="1239" d="M63 401q0 -90 32 -166.5t89.5 -134t136 -90.5t171.5 -33q106 0 208.5 36t206.5 128l140 -141h227l-260 268q59 88 101 219t73 306h-172q-23 -141 -50.5 -235.5t-62.5 -164.5l-328 375q305 176 306 393q0 82 -27 145.5t-72 105.5t-101 63.5t-114 21.5q-86 0 -151.5 -29.5 t-109.5 -80t-67.5 -115t-23.5 -131.5q0 -74 24.5 -159t77.5 -159q-117 -76 -185.5 -174t-68.5 -248zM240 414q0 49 16 92t41 77.5t54.5 62.5t58.5 46l387 -436q-53 -53 -126 -86t-155 -33q-123 0 -199.5 77t-76.5 200zM389 1149q0 78 41 133t119 55q51 0 84 -17t52.5 -42 t26.5 -52.5t7 -47.5q0 -49 -21.5 -90t-56.5 -76t-80 -63.5t-90 -55.5q-31 47 -56.5 118.5t-25.5 137.5z" />
<glyph unicode="'" horiz-adv-x="393" d="M98 1511l33 -464h131l33 464h-197z" />
<glyph unicode="(" horiz-adv-x="585" d="M68 645q0 -156 29.5 -288t78.5 -241.5t111.5 -198.5t128.5 -159h155q-70 90 -129 189.5t-103 209t-68.5 230.5t-24.5 256q0 270 92 494.5t237 404.5h-157q-66 -72 -128.5 -162t-111.5 -201.5t-79.5 -244.5t-30.5 -289z" />
<glyph unicode=")" horiz-adv-x="585" d="M10 1542q145 -180 237.5 -404.5t92.5 -494.5q0 -135 -24.5 -256t-68.5 -230.5t-103.5 -209t-129.5 -189.5h156q66 70 128 159t111.5 198.5t79 241.5t29.5 288t-30.5 289t-80 244.5t-113 201.5t-126.5 162h-158z" />
<glyph unicode="*" horiz-adv-x="864" d="M55 674l252 24l-155 -213l151 -104l121 246l121 -238l168 94l-162 213l258 -22v182l-260 -20l162 217l-166 98l-111 -242l-121 240l-161 -98l153 -220l-250 27v-184z" />
<glyph unicode="+" horiz-adv-x="1318" d="M102 672h471v-482h170v482h474v162h-474v481h-170v-481h-471v-162z" />
<glyph unicode="," horiz-adv-x="385" d="M45 -227l66 -92q47 25 87 60.5t68.5 77.5t45 88t16.5 93q0 72 -34 121t-99 49q-45 0 -84 -34t-39 -93q0 -41 30.5 -82t87.5 -45q-16 -41 -57 -79.5t-88 -63.5z" />
<glyph unicode="-" horiz-adv-x="819" d="M86 670h647v166h-647v-166z" />
<glyph unicode="." horiz-adv-x="385" d="M76 45q0 -53 30 -92t89 -39t88.5 39t29.5 92q0 57 -32.5 93t-85.5 36t-86 -36t-33 -93z" />
<glyph unicode="/" horiz-adv-x="942" d="M35 -63h182l688 1581h-184z" />
<glyph unicode="0" horiz-adv-x="1085" d="M74 770q0 -184 28.5 -331.5t87 -249t146.5 -155.5t207 -54t207 54t146 155.5t87 249t29 331.5q0 365 -123 553t-346 188t-346 -188t-123 -553zM256 758q0 137 17.5 246.5t53 186.5t89 118t127.5 41t127 -41t89 -118t53 -186.5t17 -246.5q0 -141 -17 -256t-53 -196 t-90 -125t-126 -44t-126.5 44t-90 125t-53 195.5t-17.5 256.5z" />
<glyph unicode="1" horiz-adv-x="1085" d="M272 1327h234v-1327h182v1389q0 47 -17.5 73.5t-68.5 26.5h-53l-277 -66v-96z" />
<glyph unicode="2" horiz-adv-x="1085" d="M86 1139l135 -60q41 135 124 204t196 69q109 0 179.5 -58.5t70.5 -189.5q0 -63 -23 -114.5t-60.5 -95.5t-88 -84t-105.5 -83q-33 -25 -102.5 -81t-139 -136t-122 -180.5t-52.5 -216.5v-7q0 -63 33 -84.5t90 -21.5h776v160h-718q2 74 41.5 142.5t90 124.5t99.5 96t74 59 q66 49 133 103t122.5 117.5t91.5 138.5t36 165q0 186 -109.5 293.5t-314.5 107.5q-182 0 -298 -100t-159 -268z" />
<glyph unicode="3" horiz-adv-x="1085" d="M61 270q80 -150 206 -220t274 -70q92 0 173 23.5t142.5 74.5t97 131t35.5 190q0 86 -27.5 154t-75.5 116t-113.5 76.5t-139.5 38.5q63 18 118.5 50t95.5 78t63.5 103.5t23.5 129.5q0 104 -35 174t-91 113t-128 61t-145 18q-143 0 -264 -76.5t-189 -252.5l135 -62 q45 111 122 173.5t185 62.5q111 -4 174.5 -56.5t63.5 -160.5q0 -84 -37 -138.5t-94.5 -87t-125 -46t-128.5 -13.5h-37v-160h37q90 0 170 -16t140.5 -52t95 -92.5t34.5 -134.5q0 -63 -21.5 -112t-59.5 -83t-89 -51.5t-112 -17.5q-127 0 -210 63.5t-149 161.5z" />
<glyph unicode="4" horiz-adv-x="1085" d="M59 424q0 -59 31 -87t82 -28h522v-309h172v309h191v156h-191v1030h-141l-520 -635q-86 -104 -116 -206.5t-30 -229.5zM229 498q0 78 19.5 141t70.5 125l375 455v-754h-430q-35 0 -35 33z" />
<glyph unicode="5" horiz-adv-x="1085" d="M66 276q76 -160 186 -226t276 -66q117 0 205 37.5t146.5 101t87 146.5t28.5 175q0 106 -28.5 194.5t-87 150t-150.5 95.5t-217 34h-135q-31 0 -43 10t-10 39l18 315q2 41 43 41h543v166h-617q-80 0 -109.5 -32t-33.5 -97l-27 -477q-4 -68 22.5 -97.5t84.5 -29.5h190 q109 0 181.5 -18.5t116.5 -57.5t62.5 -97.5t18.5 -138.5q0 -49 -16.5 -103t-53 -98t-97 -74t-150.5 -30q-102 0 -181 54.5t-139 173.5z" />
<glyph unicode="6" horiz-adv-x="1085" d="M78 688q0 -166 26.5 -298t85 -223t151.5 -139t224 -48q113 0 197 36.5t140 103t84 160t28 205.5q0 217 -113 329t-311 112q-25 0 -63 -4t-84 -12.5t-94 -23t-93 -32.5q29 227 185.5 363.5t461.5 177.5l-47 141q-387 -41 -582.5 -249t-195.5 -599zM254 690v17 q72 31 156 45t131 14q70 0 124 -12.5t93 -45t59.5 -92t20.5 -151.5q0 -74 -14.5 -133.5t-46.5 -102.5t-85 -66.5t-129 -23.5q-90 0 -150.5 37t-95 107.5t-49 173t-14.5 233.5z" />
<glyph unicode="7" horiz-adv-x="1085" d="M84 1321h711l-215 -367q-41 -70 -72 -132t-50.5 -124.5t-29.5 -127t-10 -136.5v-434h178v436q0 121 29.5 225.5t103.5 231.5l285 483v113h-930v-168z" />
<glyph unicode="8" horiz-adv-x="1085" d="M53 426q0 -203 126 -324.5t364 -121.5t362.5 113.5t124.5 332.5q0 139 -60.5 240.5t-158.5 142.5q66 33 113 118t47 193q0 98 -32 171t-89 122t-136 73.5t-171 24.5q-94 0 -173 -24.5t-136.5 -73.5t-89 -122t-31.5 -171q0 -109 47 -193.5t112 -119.5 q-98 -41 -158.5 -142.5t-60.5 -238.5zM227 426q0 139 79 218t237 79q156 0 234.5 -79t78.5 -218t-79 -213t-234 -74q-158 0 -237 74t-79 213zM283 1120q0 119 72.5 176.5t187.5 57.5q111 0 184.5 -57.5t73.5 -176.5t-74 -181t-184 -62q-115 0 -187.5 62t-72.5 181z" />
<glyph unicode="9" horiz-adv-x="1085" d="M78 1010q0 -217 112.5 -329t311.5 -112q25 0 62.5 4.5t83.5 12.5t94.5 22.5t93.5 32.5q-29 -227 -185.5 -363.5t-462.5 -177.5l48 -141q387 41 582.5 249t195.5 599q0 166 -26.5 298t-85 223t-152 139.5t-224.5 48.5q-113 0 -196.5 -37t-140 -103.5t-84 -160 t-27.5 -205.5zM254 1030q0 74 14.5 133.5t46 102.5t83.5 66.5t130 23.5q90 0 149.5 -37t95.5 -107.5t50.5 -173t14.5 -233.5v-17q-72 -31 -156 -45t-131 -14q-70 0 -125 12.5t-93 45t-58.5 92t-20.5 151.5z" />
<glyph unicode=":" horiz-adv-x="389" d="M86 281q0 -51 33 -90t88 -39q59 0 90 38.5t31 90.5q0 59 -33 95t-86 36q-55 0 -89 -36t-34 -95zM86 1057q0 -51 33 -90t88 -39q59 0 90 39t31 90q0 59 -33 95t-86 36q-55 0 -89 -36t-34 -95z" />
<glyph unicode=";" horiz-adv-x="385" d="M55 47l68 -108q45 23 85 57.5t67.5 74.5t44 83t16.5 84q0 68 -34 119t-99 51q-45 0 -84 -34t-39 -93q0 -41 27.5 -80t76.5 -43q-16 -33 -51 -62t-78 -49zM86 1057q0 -51 33 -90t88 -39q59 0 90 39t31 90q0 59 -33 95t-86 36q-55 0 -89 -36t-34 -95z" />
<glyph unicode="&#x3c;" horiz-adv-x="1318" d="M145 698l1004 -553v189l-782 426l782 426v188l-1004 -553v-123z" />
<glyph unicode="=" horiz-adv-x="1228" d="M109 475h1011v164h-1011v-164zM109 864h1011v160h-1011v-160z" />
<glyph unicode="&#x3e;" horiz-adv-x="1318" d="M145 150l1004 552v123l-1004 553v-188l783 -426l-783 -426v-188z" />
<glyph unicode="?" horiz-adv-x="880" d="M49 1317l94 -119q61 66 135 103.5t162 37.5q90 0 128 -55t38 -131q0 -70 -34.5 -135.5t-112.5 -157.5q-86 -100 -111.5 -204.5t-25.5 -196.5v-103h165v107q0 47 6.5 86t20.5 74.5t37.5 71.5t56.5 77q82 100 133.5 193.5t51.5 193.5q0 63 -18.5 126t-59.5 113t-104.5 80.5 t-151.5 30.5q-119 0 -225.5 -46t-184.5 -146zM291 115q0 -55 34 -93t89 -38q59 0 90 37.5t31 93.5q0 57 -33 93t-86 36q-55 0 -90 -36t-35 -93z" />
<glyph unicode="@" horiz-adv-x="1585" d="M76 535q0 -156 52 -281t141 -213t207 -135t251 -47q104 0 206 25.5t200 84.5l-60 144q-78 -45 -163 -70t-173 -25q-102 0 -192 35t-155.5 102.5t-103.5 165t-38 220.5q0 152 49 277.5t132 215.5t191.5 140.5t229.5 50.5q125 0 218 -38t152.5 -105.5t89 -162t29.5 -206.5 q0 -80 -23.5 -144.5t-58 -110.5t-75.5 -71t-76 -25q-45 0 -45 89q0 25 4 54.5t12 65.5l82 412q-57 23 -120.5 36t-131.5 13q-113 0 -209 -45t-166.5 -119.5t-110.5 -172t-40 -201.5q0 -68 21.5 -121.5t57.5 -90t82 -57t95 -20.5q168 0 278 125q20 -66 69.5 -95.5t98.5 -29.5 q74 0 149 34.5t135 101.5t98 165t38 225q0 135 -41 254t-120.5 206t-199.5 138t-278 51q-178 0 -323.5 -70.5t-249 -187t-159.5 -269.5t-56 -318zM551 492q0 76 27.5 144.5t73.5 119.5t107.5 81.5t131.5 30.5q25 0 43 -1t35 -3l-45 -217q-10 -45 -34 -95t-57.5 -93 t-75.5 -71t-87 -28q-59 0 -89 38t-30 94z" />
<glyph unicode="A" horiz-adv-x="1249" d="M76 0h180v98q0 68 11.5 134.5t37.5 138.5h643q49 -141 49 -273v-98h181v92q0 92 -24 182.5t-58 182.5l-400 1032h-143l-395 -1032q-35 -92 -58.5 -182.5t-23.5 -182.5v-92zM367 537l258 694l260 -694h-518z" />
<glyph unicode="B" horiz-adv-x="1187" d="M152 197q0 -96 49 -146.5t153 -50.5h162q113 0 218.5 20.5t187.5 71.5t131 135t49 211q0 76 -19.5 136.5t-52.5 104.5t-76 74.5t-90 49.5q82 51 131 130t49 173q0 106 -37.5 180t-104 119t-158 64.5t-195.5 19.5h-397v-1292zM330 227v1098h223q70 0 128 -11t100 -38 t65.5 -70t23.5 -104q0 -98 -77.5 -165t-212.5 -67h-189v-163h182q76 0 139.5 -16.5t110.5 -49.5t74 -84t27 -119q0 -82 -31 -135t-82 -84t-117.5 -43t-138.5 -12h-166q-35 0 -47 14.5t-12 48.5z" />
<glyph unicode="C" horiz-adv-x="1249" d="M68 768q0 -197 50 -345.5t137 -246.5t205 -147t253 -49q145 0 255.5 30.5t196.5 71.5v158q-76 -39 -188.5 -64.5t-228.5 -25.5q-131 0 -224.5 46t-154 128t-88 194.5t-27.5 247.5q0 141 34 249.5t93 181.5t141 111t178 38q123 0 203 -71t135 -190l125 95 q-53 154 -165.5 242.5t-299.5 88.5q-145 0 -260.5 -54t-198.5 -152.5t-127 -234.5t-44 -302z" />
<glyph unicode="D" horiz-adv-x="1310" d="M154 205q0 -205 202 -205h27q406 0 618.5 195.5t212.5 570.5q0 184 -56 320.5t-158.5 225.5t-247 133t-320.5 44h-278v-1284zM332 223v1102h98q160 0 273.5 -41t187.5 -115.5t108.5 -178t34.5 -228.5q0 -291 -156.5 -444.5t-474.5 -153.5h-12q-59 0 -59 59z" />
<glyph unicode="E" horiz-adv-x="1126" d="M152 231q0 -123 62 -177t173 -54h655v164h-643q-41 0 -55 20.5t-14 59.5v1079h680v166h-858v-1258zM391 700h596v166h-596v-166z" />
<glyph unicode="F" horiz-adv-x="1126" d="M152 0h178v1323h680v166h-858v-1489zM391 680h576v164h-576v-164z" />
<glyph unicode="G" horiz-adv-x="1331" d="M68 768q0 -197 50 -345.5t137 -246.5t205 -147t253 -49q84 0 155.5 14t135.5 39v-76h178v659h135v162h-674v-162h361v-419q-59 -23 -125 -35t-131 -12q-131 0 -224.5 46t-154 128t-88 194.5t-27.5 247.5q0 141 34 249.5t93 181.5t141 111t178 38q123 0 203 -71t135 -190 l125 95q-53 154 -165.5 242.5t-299.5 88.5q-145 0 -260.5 -54t-198.5 -152.5t-127 -234.5t-44 -302z" />
<glyph unicode="H" horiz-adv-x="1372" d="M158 0h178v700h704v-700h174v1489h-174v-623h-704v623h-178v-1489z" />
<glyph unicode="I" horiz-adv-x="471" d="M145 0h181v1489h-181v-1489z" />
<glyph unicode="J" horiz-adv-x="778" d="M4 27q39 -18 94.5 -32.5t108.5 -14.5q84 0 160.5 20t135 75.5t92.5 153t34 250.5v1010h-568v-164h390v-858q0 -90 -16.5 -152.5t-48.5 -101.5t-78 -56.5t-103 -17.5q-14 0 -40 2t-54.5 5.5t-57 9.5t-49.5 16v-145z" />
<glyph unicode="K" horiz-adv-x="1167" d="M154 0h178v1489h-178v-1489zM356 762l590 -762h230l-603 764l560 725h-209z" />
<glyph unicode="L" horiz-adv-x="1085" d="M152 231q0 -123 62 -177t173 -54h655v164h-643q-41 0 -55 20.5t-14 59.5v1245h-178v-1258z" />
<glyph unicode="M" horiz-adv-x="1658" d="M111 0h174l49 1137l432 -1137h127l432 1137l49 -1137h174l-69 1489h-185l-465 -1223l-464 1223h-185z" />
<glyph unicode="N" horiz-adv-x="1411" d="M168 0h174v1489h-174v-1489zM393 1135l694 -1135h156v1489h-174v-1178l-676 1114v-290z" />
<glyph unicode="O" horiz-adv-x="1392" d="M68 741q0 -168 41 -308t121.5 -240.5t199 -156.5t272.5 -56t273 56t199.5 156.5t121.5 240.5t41 308q0 178 -41 320.5t-120.5 242t-198.5 153.5t-275 54t-274.5 -54t-198 -153.5t-120.5 -241.5t-41 -321zM248 745q0 129 24.5 239t79 190.5t141 126t209.5 45.5t210 -45.5 t141.5 -126t79 -190.5t24.5 -239q0 -127 -28.5 -236.5t-85 -189t-142.5 -126t-199 -46.5q-115 0 -199.5 46.5t-141 126t-85 189t-28.5 236.5z" />
<glyph unicode="P" horiz-adv-x="1110" d="M152 0h182v1325h188q162 0 253 -80t91 -223q0 -147 -90 -234.5t-272 -87.5h-109v-168h101q125 0 226 35t173 99.5t112 158t40 207.5q0 117 -40 203t-110 142.5t-165 84t-206 27.5h-374v-1489z" />
<glyph unicode="Q" horiz-adv-x="1392" d="M68 741q0 -168 41 -308t121.5 -240.5t199 -156.5t272.5 -56q166 0 293 65l140 -184l129 96l-138 182q104 102 157.5 256t53.5 346q0 178 -41 320.5t-120.5 242t-198.5 153.5t-275 54t-274.5 -54t-198 -153.5t-120.5 -241.5t-41 -321zM248 745q0 129 24.5 239t79 190.5 t141.5 126t209 45.5q123 0 210 -45.5t141.5 -126t79 -190.5t24.5 -239q0 -141 -35 -259.5t-106 -200.5l-135 180l-129 -96l135 -183q-84 -39 -185 -39q-115 0 -199.5 46.5t-141 126t-85 189t-28.5 236.5z" />
<glyph unicode="R" horiz-adv-x="1126" d="M131 0h182v1325h189q162 0 253 -80t91 -223q0 -147 -90 -234.5t-273 -87.5h-108v-168h100q102 0 193 25l231 -557h186l-260 627q96 66 148.5 168t52.5 237q0 117 -40 203t-109.5 142.5t-165 84t-205.5 27.5h-375v-1489z" />
<glyph unicode="S" horiz-adv-x="1105" d="M61 365q39 -190 167 -285.5t315 -99.5h15q98 0 181 24q90 26 154.5 80.5t101.5 135.5t37 188q0 88 -30.5 153.5t-87 114.5t-134.5 86t-170 67q-80 27 -141 52.5t-103 58.5t-63.5 77t-21.5 107q0 59 20.5 102.5t56 71t83.5 41t102 13.5q66 0 112.5 -17.5t80.5 -49.5 t57.5 -76t42.5 -97l129 84q-39 147 -140.5 231t-265.5 84q-115 0 -200 -28.5t-140 -80.5t-82.5 -124t-27.5 -158q0 -90 30.5 -157.5t86 -117.5t132 -88t168.5 -67q150 -47 242 -110.5t92 -176.5q0 -68 -23.5 -117.5t-66.5 -81.5t-101.5 -48.5t-127.5 -16.5q-256 0 -348 303z " />
<glyph unicode="T" horiz-adv-x="1146" d="M31 1323h1085v166h-1085v-166zM485 0h177v1262h-177v-1262z" />
<glyph unicode="U" horiz-adv-x="1331" d="M150 500q0 -172 40.5 -275.5t109.5 -159t160 -73t191 -17.5q106 0 203.5 16.5t169.5 72t115 159t43 277.5v989h-176v-989q0 -113 -22.5 -182.5t-67 -109.5t-110 -54.5t-149.5 -14.5q-78 0 -138 13.5t-103 52.5t-65.5 109.5t-22.5 185.5v989h-178v-989z" />
<glyph unicode="V" horiz-adv-x="1167" d="M33 1397q0 -92 23.5 -182.5t58.5 -182.5l395 -1032h143l400 1032q35 92 58.5 182.5t23.5 182.5v92h-181v-98q0 -137 -51 -277l-321 -856l-318 856q-51 139 -51 277v98h-180v-92z" />
<glyph unicode="W" horiz-adv-x="1781" d="M43 1397q0 -78 16.5 -153t36.5 -152l283 -1092h180l330 1247l332 -1247h180l282 1092q20 78 36 152.5t16 152.5v92h-172v-86q0 -92 -21.5 -176t-42.5 -168l-186 -795l-322 1225h-203l-321 -1225l-188 795q-20 84 -42 165t-22 173v92h-172v-92z" />
<glyph unicode="X" horiz-adv-x="1228" d="M66 0h180v127q0 74 11 128t31.5 95t45 71t53.5 52l229 195l230 -195q27 -23 52.5 -52.5t46 -70.5t31.5 -95t11 -128v-127h180v119q0 86 -12 152.5t-34.5 119.5t-54.5 94t-71 72l-231 186l231 189q39 31 71 71.5t54.5 94t34.5 120t12 152.5v119h-180v-127q0 -74 -11 -128 t-31.5 -95t-46.5 -71t-52 -52l-230 -195l-229 195q-29 23 -53.5 52.5t-45 70.5t-31.5 95t-11 128v127h-180v-119q0 -170 47 -272.5t125 -165.5l229 -189l-229 -186q-78 -63 -125 -165.5t-47 -272.5v-119z" />
<glyph unicode="Y" horiz-adv-x="1146" d="M43 1329q0 -170 48 -271.5t124 -166.5l266 -234v-657h181v653l270 238q76 66 124 167t48 271v160h-180v-168q0 -74 -12.5 -128t-32 -95t-45 -70t-52.5 -53l-209 -184l-208 184q-27 25 -52.5 53.5t-45 69.5t-32 95t-12.5 128v168h-180v-160z" />
<glyph unicode="Z" horiz-adv-x="1191" d="M63 0h1063v164h-819l295 440l37 -43h192l-143 170l428 637v121h-1012v-166h773l-306 -451l-34 43h-185l135 -167l-424 -631v-117z" />
<glyph unicode="[" horiz-adv-x="585" d="M154 -219h424v156h-252v1425h252v158h-424v-1739z" />
<glyph unicode="\" d="M41 647h258l168 -647h158l170 647h239l174 -647h158l166 647h270v141h-233l45 173q16 70 30.5 135t14.5 133v80h-152v-76q0 -80 -19.5 -154.5t-35.5 -146.5l-35 -144h-276l-135 521h-181l-135 -521h-278l-33 144q-16 72 -35.5 143.5t-19.5 153.5v80h-152v-80 q0 -68 14.5 -133.5t32.5 -134.5l43 -173h-221v-141zM446 647h207l-108 -416zM831 788l82 310l82 -310h-164zM1178 647h206l-96 -416z" />
<glyph unicode="]" horiz-adv-x="585" d="M8 -63v-156h410v1739h-410v-158h240v-1425h-240z" />
<glyph unicode="^" horiz-adv-x="1085" d="M106 764h197l236 481l235 -481h201l-365 696h-141z" />
<glyph unicode="_" horiz-adv-x="1105" d="M0 -92v-174h1106v174h-1106z" />
<glyph unicode="`" horiz-adv-x="663" d="M76 1503l289 -329h167l-204 329h-252z" />
<glyph unicode="a" horiz-adv-x="1085" d="M74 530q0 -115 25.5 -215t79.5 -176t135 -119t192 -43q90 0 161.5 23t133.5 74l24 -74h144v1059h-144l-26 -76q-61 47 -134 73.5t-159 26.5q-111 0 -192 -43t-135 -118.5t-79.5 -176t-25.5 -215.5zM248 530q0 84 15.5 157t47 126t79.5 84t116 31q84 0 156.5 -30 t132.5 -81v-573q-57 -47 -128 -79t-161 -32q-68 0 -116 31t-79.5 84t-47 125.5t-15.5 156.5z" />
<glyph unicode="b" horiz-adv-x="1105" d="M135 82q102 -53 225 -79t238 -26q111 0 191.5 43t135 119t80 176.5t25.5 214.5q0 115 -25.5 215.5t-80 176t-135 118.5t-191.5 43q-86 0 -157.5 -24.5t-131.5 -71.5v502h-174v-1407zM309 170v647q59 51 131 81t158 30q68 0 116 -31t79.5 -84t47 -126t15.5 -157 t-15.5 -156.5t-47 -125.5t-79.5 -84t-116 -31q-145 0 -289 37z" />
<glyph unicode="c" horiz-adv-x="962" d="M70 528q0 -123 29.5 -223t89 -173t147.5 -112.5t207 -39.5q111 0 195.5 31.5t154.5 80.5v148q-78 -47 -165 -76t-185 -29q-154 0 -226.5 103.5t-72.5 289.5t72.5 292t226.5 106q98 0 177 -30t148 -81v152q-63 53 -142 83.5t-183 30.5q-119 0 -207 -41t-147.5 -113.5 t-89 -174t-29.5 -224.5z" />
<glyph unicode="d" horiz-adv-x="1105" d="M78 530q0 -115 25.5 -215t80 -176t135 -119t191.5 -43q115 0 237.5 26t225.5 79v1407h-174v-502q-61 47 -132 71.5t-157 24.5q-111 0 -191.5 -43t-135 -118.5t-80 -176t-25.5 -215.5zM252 530q0 84 15.5 157t47 126t79.5 84t116 31q84 0 156.5 -30t132.5 -81v-647 q-145 -37 -289 -37q-68 0 -116 31t-79.5 84t-47 125.5t-15.5 156.5z" />
<glyph unicode="e" horiz-adv-x="1064" d="M70 528q0 -123 29.5 -223t89 -173t147.5 -112.5t207 -39.5q104 0 203.5 32.5t181.5 89.5v162q-37 -25 -80 -47t-92 -40.5t-103.5 -30t-109.5 -11.5q-158 0 -228.5 99.5t-70.5 300.5q0 193 65.5 292t222.5 99q74 0 125.5 -22.5t83 -64.5t49 -98.5t25.5 -124.5h-510v-159 h592q35 0 54.5 12t28.5 30.5t10 39t1 34.5q-4 100 -32.5 191.5t-84 162t-140.5 112.5t-202 42q-119 0 -205.5 -42t-144 -115.5t-85 -175t-27.5 -220.5z" />
<glyph unicode="f" horiz-adv-x="737" d="M18 895h164v-895h178v895h336v164h-336v166q0 78 28 103.5t67 25.5q94 0 141 -137l121 69q-23 100 -87.5 161.5t-176.5 61.5q-135 0 -203 -76.5t-68 -199.5v-174h-164v-164z" />
<glyph unicode="g" horiz-adv-x="1105" d="M74 530q0 -115 25.5 -215t79.5 -176t135 -119t192 -43q86 0 156.5 25t132.5 70v-86q0 -74 -18.5 -119t-52.5 -70.5t-82 -35t-110 -9.5q-98 0 -194 24.5t-174 65.5v-155q78 -45 172 -71t184 -26q135 0 222 32t137.5 87t70 130t19.5 161v979q-203 104 -463 104 q-111 0 -192 -43t-135 -118.5t-79.5 -176t-25.5 -215.5zM248 530q0 84 15.5 157t47 126t79.5 84t116 31q88 0 152.5 -11.5t136.5 -35.5v-639q-59 -49 -132 -79t-157 -30q-68 0 -116 31t-79.5 84t-47 125.5t-15.5 156.5z" />
<glyph unicode="h" horiz-adv-x="1161" d="M143 0h181v754q43 31 89 60.5t92 52t91 37t88 14.5q92 0 124 -45.5t32 -122.5v-750h178v803q0 133 -74 206.5t-209 73.5q-113 0 -218 -49t-193 -112v569h-181v-1491z" />
<glyph unicode="i" horiz-adv-x="466" d="M106 1309q0 -53 37 -90t90 -37t90 36.5t37 90.5q0 53 -36.5 90t-90.5 37q-53 0 -90 -37t-37 -90zM143 0h181v1059h-181v-1059z" />
<glyph unicode="j" horiz-adv-x="481" d="M-141 -233v-144q47 -16 93 -24.5t103 -8.5q135 0 209 63.5t74 196.5v1209h-178v-1200q0 -78 -42 -95.5t-114 -17.5q-41 0 -79 7t-66 14zM121 1309q0 -53 37 -90t90 -37t90 36.5t37 90.5q0 53 -37 90t-90 37t-90 -37t-37 -90z" />
<glyph unicode="k" horiz-adv-x="1085" d="M154 0h180v1489h-180v-1489zM356 526l518 -526h230l-531 528l480 531h-209z" />
<glyph unicode="l" horiz-adv-x="466" d="M145 229q0 -125 70 -187t236 -62v155q-82 0 -104.5 22.5t-22.5 80.5v1308h-179v-1317z" />
<glyph unicode="m" horiz-adv-x="1710" d="M143 0h176v788q68 61 142 99.5t149 38.5q92 0 125 -45t33 -123v-758h174v788q68 61 141.5 99.5t149.5 38.5q92 0 125 -45t33 -123v-758h174v799q0 133 -73 206.5t-208 73.5q-113 0 -198 -43t-164 -116q-29 76 -95.5 117.5t-164.5 41.5q-104 0 -185.5 -39t-157.5 -104v35 l-20 88h-156v-1059z" />
<glyph unicode="n" horiz-adv-x="1161" d="M143 0h181v754q43 31 89 60.5t92 52t91 37t88 14.5q92 0 124 -45.5t32 -122.5v-750h178v803q0 133 -74 206.5t-209 73.5q-113 0 -218 -49t-193 -112v49l-21 88h-160v-1059z" />
<glyph unicode="o" horiz-adv-x="1105" d="M70 528q0 -115 30.5 -215t92 -176t151.5 -119t209 -43t209 43t150.5 119t91 176.5t30.5 214.5q0 115 -30.5 215.5t-91 176t-150.5 118.5t-209 43t-209 -43t-151.5 -118.5t-92 -176t-30.5 -215.5zM244 528q0 186 75.5 292t233.5 106q156 0 231.5 -105.5t75.5 -292.5 q0 -186 -75.5 -291.5t-231.5 -105.5q-158 0 -233.5 105.5t-75.5 291.5z" />
<glyph unicode="p" horiz-adv-x="1126" d="M156 -410h174v480q59 -45 130.5 -70t157.5 -25q111 0 192 43t135 119t80 176.5t26 214.5q0 115 -26 215.5t-80 176t-135 118.5t-192 43q-115 0 -237.5 -25.5t-224.5 -78.5v-1387zM330 240v645q72 23 143.5 34t144.5 11q68 0 116 -31t80 -85t47.5 -128t15.5 -158 t-15.5 -156.5t-47.5 -125.5t-80 -84t-116 -31q-86 0 -157.5 29.5t-130.5 79.5z" />
<glyph unicode="q" horiz-adv-x="1105" d="M74 528q0 -115 25.5 -215t79.5 -176t135 -119t192 -43q86 0 156.5 25t132.5 70v-480h174v1387q-102 53 -225 78.5t-238 25.5q-111 0 -192 -43t-135 -118.5t-79.5 -176t-25.5 -215.5zM248 528q0 84 15.5 158t47 128t79.5 85t116 31q74 0 145.5 -11.5t143.5 -33.5v-645 q-59 -49 -132 -79t-157 -30q-68 0 -116 31t-79.5 84t-47 125.5t-15.5 156.5z" />
<glyph unicode="r" horiz-adv-x="716" d="M143 0h181v817q160 100 352 101v165q-90 0 -181.5 -22.5t-172.5 -73.5l-19 72h-160v-1059z" />
<glyph unicode="s" horiz-adv-x="901" d="M39 258q45 -141 149.5 -209.5t251.5 -68.5q193 0 300.5 79.5t107.5 227.5q0 63 -21.5 111t-65.5 87t-112.5 71t-161.5 60q-127 39 -179 80t-52 105q0 53 47 91t146 38q90 0 145 -45t78 -107l123 80q-37 104 -129.5 161.5t-225.5 61.5h-14q-64 0 -123 -16 q-65 -18 -114.5 -55t-78 -92.5t-28.5 -129.5q0 -123 87 -193.5t265 -127.5q72 -23 119 -41t73.5 -38.5t37 -45.5t10.5 -61q0 -76 -61.5 -113t-172.5 -37q-92 0 -163.5 45t-116.5 160z" />
<glyph unicode="t" horiz-adv-x="737" d="M25 893h251v-893h179v893h258v166h-258v254h-179v-254h-251v-166z" />
<glyph unicode="u" horiz-adv-x="1167" d="M143 256q0 -133 74 -207t209 -74q113 0 217.5 48.5t194.5 113.5v-49l20 -88h160v1059h-180v-754q-86 -63 -181.5 -113.5t-179.5 -50.5q-92 0 -123.5 45t-31.5 123v750h-179v-803z" />
<glyph unicode="v" horiz-adv-x="999" d="M37 981q0 -78 15.5 -157t53.5 -156l338 -684h107l344 686q39 78 53.5 155.5t14.5 157.5v76h-177v-82q0 -59 -10 -119.5t-37 -118.5l-243 -518l-238 518q-27 59 -37 117.5t-10 118.5v84h-174v-78z" />
<glyph unicode="w" horiz-adv-x="1351" d="M33 993q0 -55 12 -108.5t27 -108.5l194 -776h164l244 805l246 -805h163l195 776q14 55 26.5 108.5t12.5 108.5v66h-158v-49q0 -68 -15.5 -130.5t-25.5 -103.5l-127 -528l-239 811h-154l-240 -811l-127 528q-10 41 -25.5 103.5t-15.5 130.5v49h-157v-66z" />
<glyph unicode="x" horiz-adv-x="942" d="M49 0h178v90q0 104 31 159.5t72 86.5l139 106l149 -106q41 -31 72 -86t31 -160v-90h178v84q0 123 -31.5 195.5t-89.5 115.5l-178 133l178 136q57 43 89 115.5t32 195.5v84h-178v-90q0 -104 -31 -159.5t-72 -86.5l-149 -109l-139 109q-41 31 -72 86t-31 160v90h-178v-84 q0 -123 32 -195.5t89 -115.5l176 -136l-176 -133q-57 -43 -89 -115.5t-32 -195.5v-84z" />
<glyph unicode="y" horiz-adv-x="1146" d="M143 291q0 -133 74 -207t209 -74q113 0 217.5 48t194.5 114v-186q0 -74 -17.5 -119t-50.5 -70.5t-80 -35t-108 -9.5q-98 0 -194.5 24.5t-174.5 65.5v-155q78 -45 172 -71t184 -26q135 0 222.5 32t137.5 87t69.5 130t19.5 161v1059h-180v-719q-86 -63 -181.5 -113.5 t-179.5 -50.5q-92 0 -123.5 45t-31.5 123v715h-179v-768z" />
<glyph unicode="z" horiz-adv-x="886" d="M45.5 18.5q20.5 -18.5 63.5 -18.5h749v160h-600l191 254l40 -47h193l-145 163l307 412v117h-793v-160h563l-184 -250l-33 39h-184l131 -153l-291 -394q-28 -40 -28 -73q0 -31 20.5 -49.5z" />
<glyph unicode="{" horiz-adv-x="614" d="M37 571q55 0 89 -11t53.5 -29.5t25.5 -40t6 -41.5q0 -74 -23 -175q-18 -74 -18 -163q0 -88 25.5 -150.5t69.5 -102.5t104.5 -58.5t130.5 -18.5h63v156h-78q-74 2 -108.5 46t-34.5 121q0 41 9 92.5t14 84.5q12 68 12 153q0 72 -22.5 127t-61.5 88q39 33 61.5 88.5 t22.5 126.5q0 86 -12 154q-4 33 -13.5 84t-9.5 92q0 78 35 123t108 47h78v156h-63q-70 0 -130.5 -18.5t-104.5 -58.5t-69.5 -103.5t-25.5 -151.5q0 -90 18 -164q23 -100 23 -174q0 -20 -6 -42t-25.5 -40t-53.5 -29.5t-89 -11.5v-156z" />
<glyph unicode="|" horiz-adv-x="468" d="M152 -260h165v1821h-165v-1821z" />
<glyph unicode="}" horiz-adv-x="614" d="M51 -63v-156h64q70 0 129 18.5t104 58.5t70.5 102.5t25.5 150.5q0 90 -18 163q-23 100 -23 175q0 20 6.5 41.5t26 40t53.5 29.5t89 11v156q-55 0 -89 11.5t-53.5 29.5t-26 39.5t-6.5 42.5q0 74 23 174q18 74 18 164q0 88 -25.5 151.5t-70.5 103.5t-104.5 58.5 t-128.5 18.5h-64v-156h78q74 -2 108.5 -47t34.5 -123q0 -41 -9 -92t-13 -84q-12 -68 -12 -154q0 -72 22.5 -127t61.5 -88q-39 -33 -61.5 -88t-22.5 -127q0 -86 12 -153q4 -33 13 -84.5t9 -92.5q0 -78 -34.5 -121.5t-108.5 -45.5h-78z" />
<glyph unicode="~" horiz-adv-x="1318" d="M92 557h158q0 86 24.5 134t71.5 48q57 0 132 -28.5t147 -63.5q123 -59 198.5 -75.5t128.5 -16.5q49 0 95.5 19.5t80 60.5t54 107.5t20.5 158.5h-153q0 -74 -20.5 -127t-65.5 -53q-68 0 -132.5 21.5t-154.5 62.5q-106 47 -184 72.5t-142 25.5q-125 0 -191.5 -89 t-66.5 -257z" />
<glyph unicode="&#xa1;" horiz-adv-x="778" d="M272 1247q0 -55 31 -89t86 -34t86 34t31 89q0 53 -31 88t-86 35t-86 -35t-31 -88zM289 -137h205l-31 1095h-148z" />
<glyph unicode="&#xa2;" d="M369 584q0 -215 96 -362.5t250 -225.5l-45 -156l141 -39l41 142q49 -12 101.5 -19.5t105.5 -7.5q129 0 230.5 23.5t156.5 54.5l-37 151q-66 -35 -150.5 -53t-164.5 -18q-102 0 -195 28l293 1004q123 -12 211 -59l49 151q-25 10 -80 29.5t-135 32.5l43 147l-145 39 l-52 -176q-162 -4 -294 -60.5t-225 -149.5t-144 -216t-51 -260zM553 584q0 106 35 197t97.5 161t151.5 113t199 53l-272 -940q-104 70 -157.5 178.5t-53.5 237.5z" />
<glyph unicode="&#xa3;" d="M483 -55h873v161h-600q88 94 121 220q4 31 7 63.5t3 67.5q0 27 -2 54.5t-4 53.5h280v148h-299q-10 49 -15 100t-5 117q0 111 49 183.5t160 72.5q61 0 112 -15.5t86 -37.5l51 151q-41 23 -100 44.5t-145 21.5q-84 0 -155 -31t-122 -87t-80.5 -134t-29.5 -170 q0 -57 4 -112.5t10 -102.5h-188v-148h215q4 -39 4 -73.5v-69.5q0 -111 -59.5 -204t-170.5 -152v-121z" />
<glyph unicode="&#xa4;" horiz-adv-x="1679" d="M45 1188q59 -49 119.5 -103.5t116.5 -107.5q-55 -82 -87 -176t-32 -199q0 -117 39 -215t104 -184l-256 -226l82 -92l258 230q86 -72 192.5 -115t225.5 -43q123 0 235.5 49t198.5 125l270 -246l80 92q-66 57 -135.5 120t-134.5 122q129 162 129 383q0 211 -109 363 l252 223l-86 86l-243 -219q-92 88 -207 140t-250 52q-129 0 -243.5 -47t-201.5 -129l-227 203zM297 602q0 106 39 200.5t108.5 163t161.5 108.5t201 40q106 0 199.5 -40t162 -108.5t108.5 -163t40 -200.5t-40 -199.5t-108.5 -162t-162 -108.5t-199.5 -40q-109 0 -201 40 t-161.5 108.5t-108.5 162t-39 199.5z" />
<glyph unicode="&#xa5;" d="M414 1329l344 -641h-254v-139h313v-107h-313v-137h313v-366h180v366h314v137h-314v107h314v139h-256l375 641h-203l-250 -471l-62 -143l-63 141l-238 473h-200z" />
<glyph unicode="&#xa7;" horiz-adv-x="1013" d="M127 715q0 -61 23.5 -106.5t66.5 -80t104.5 -63.5t137.5 -55q74 -27 123 -52.5t76.5 -52t39 -56.5t11.5 -67q0 -39 -18.5 -70.5t-49.5 -55t-72 -36t-86 -12.5q-92 0 -155.5 30t-96.5 54l-53 -106q49 -37 127 -59.5t170 -22.5q70 0 135.5 18.5t116.5 55t81 92t30 129.5 q0 59 -26 106t-48 70q57 47 90 105.5t33 133.5q0 66 -23.5 114t-64.5 83t-97.5 60.5t-121.5 48.5q-57 20 -104.5 38.5t-81.5 42t-52 54t-18 73.5q0 33 17 62t46 50.5t65.5 32.5t77.5 11q78 0 136.5 -21.5t95.5 -45.5l45 104q-45 27 -111.5 46t-152.5 19q-72 0 -135.5 -19 t-110.5 -55t-73.5 -87t-26.5 -115q0 -49 20.5 -94t50.5 -68q-78 -55 -109.5 -116.5t-31.5 -116.5zM248 725v2q0 47 20.5 86t71.5 78q49 -31 114.5 -54.5t125.5 -43.5q104 -37 145 -84t41 -109q0 -96 -78 -162q-35 23 -90 45.5t-133 51.5q-123 45 -170 91t-47 99z" />
<glyph unicode="&#xa8;" d="M494 1227h227v227h-227v-227zM1079 1227h228v227h-228v-227z" />
<glyph unicode="&#xa9;" horiz-adv-x="1443" d="M76 666q0 -139 50 -260t138 -210.5t206 -141.5t253 -52t253 52t204 141.5t136 210t50 260.5q0 135 -50 254.5t-136 209t-203 140.5t-252 51t-254 -51t-207 -140.5t-138 -209t-50 -254.5zM215 662q0 109 39 205t107.5 166.5t161 111.5t198.5 41t198.5 -41t161 -111.5 t107.5 -166t39 -203.5q0 -111 -39 -207.5t-107.5 -167t-161 -110.5t-198.5 -40t-198.5 40t-161 110.5t-107.5 166t-39 206.5zM358 653q0 -84 27 -155.5t77 -123.5t123.5 -82t170.5 -30q70 0 142.5 16.5t133.5 59.5l-41 121q-41 -29 -98 -45.5t-117 -16.5q-129 0 -194.5 75 t-65.5 187q0 117 64.5 189t193.5 72q33 0 65.5 -7.5t60.5 -16.5t49.5 -19.5t33.5 -18.5l37 127q-12 12 -37 23.5t-58.5 21.5t-72.5 16.5t-78 6.5q-84 0 -158.5 -28t-132 -80t-91.5 -126t-34 -166z" />
<glyph unicode="&#xaa;" horiz-adv-x="909" d="M123 582h663v120h-663v-120zM160 956q0 -96 60.5 -136t146.5 -40q82 0 131 27t71 70q12 -76 99 -76h24q6 0 14.5 1t18.5 3v84q-16 -4 -22.5 -5t-12.5 -1q-33 0 -33 37v323q0 115 -64.5 159t-158.5 44q-106 0 -176 -51.5t-74 -161.5h99q6 72 47 99.5t100 27.5 q131 0 131 -109q0 -35 -21.5 -48t-60.5 -21q-78 -14 -137 -31.5t-100 -43.5t-61.5 -61.5t-20.5 -89.5zM260 958q0 57 57.5 85t192.5 57q35 10 51 20v-78q0 -92 -49 -134t-137 -42q-115 0 -115 92z" />
<glyph unicode="&#xab;" d="M162 561l962 -637l64 101l-883 579l875 606l-70 99l-948 -658v-90zM584 561l964 -629l60 99l-883 575l877 598l-70 94l-948 -647v-90z" />
<glyph unicode="&#xac;" d="M63 203h1596v-514h119v628h-1715v-114z" />
<glyph unicode="&#xad;" horiz-adv-x="821" d="M119 567h583v115h-583v-115z" />
<glyph unicode="&#xae;" d="M156 1323q0 -59 36.5 -91t92.5 -32q57 0 93 32t36 91t-36 91t-93 32q-55 0 -92 -32t-37 -91zM567 1243l1102 -20v202l-1102 -20v-162z" />
<glyph unicode="&#xb0;" horiz-adv-x="612" d="M57 1112q0 -49 18.5 -94t51.5 -79t79 -54.5t103 -20.5q49 0 95.5 18.5t82 52.5t57 81t21.5 106q0 49 -16.5 94.5t-48 80t-78.5 55t-107 20.5h-2q-53 0 -99 -19.5t-81 -55t-55.5 -83t-20.5 -102.5zM150 1112q0 33 10 64.5t29.5 57.5t49 42t70.5 16h2q45 0 76 -16t50.5 -42 t27.5 -56.5t8 -57.5q0 -76 -45 -126t-117 -50q-70 0 -115.5 48t-45.5 120z" />
<glyph unicode="&#xb1;" horiz-adv-x="1220" d="M82 0h1057v152h-1057v-152zM82 629h448v-402h160v402h449v153h-449v387h-160v-387h-448v-153z" />
<glyph unicode="&#xb2;" horiz-adv-x="595" d="M23 692h516v92h-357v4l66 62q61 55 111.5 105.5t87 99.5t57 100t20.5 109q0 37 -13 75.5t-43 71.5t-78 53.5t-118 20.5q-72 0 -132 -24.5t-97 -57.5l35 -76q29 23 70.5 44.5t95.5 21.5q86 0 125 -45t39 -107q0 -80 -64.5 -164t-193.5 -203l-127 -118v-64z" />
<glyph unicode="&#xb3;" horiz-adv-x="585" d="M16 739q31 -23 88.5 -40t128.5 -17q74 0 130.5 19.5t94.5 52t57.5 74.5t19.5 90q0 76 -50.5 130t-132.5 64v4q72 27 111 75t39 107q0 35 -12.5 69t-40 59.5t-71.5 42t-106 16.5q-70 0 -126 -20.5t-89 -43.5l31 -78q23 16 68 36t98 20q72 0 103.5 -35t31.5 -74 t-19.5 -65.5t-49 -44t-63.5 -24.5t-60 -7h-56v-78h54q41 0 80.5 -8t71.5 -26.5t51.5 -47t19.5 -71.5q0 -25 -9.5 -50.5t-32 -47t-58 -36t-87.5 -14.5q-57 0 -109 17.5t-75 33.5z" />
<glyph unicode="&#xb4;" horiz-adv-x="919" d="M283 989h47l307 471h-172z" />
<glyph unicode="&#xb6;" horiz-adv-x="1212" d="M162 1047q0 -82 26.5 -152t80 -121t132 -79.5t185.5 -28.5v-887h106v1571h250v-1571h107v1651h-467q-104 0 -183.5 -29t-131.5 -80t-78.5 -122t-26.5 -152z" />
<glyph unicode="&#xb7;" d="M797 649q0 -55 35.5 -92t89.5 -37q53 0 89 37t36 92t-36 93t-89 38t-89 -38t-36 -93z" />
<glyph unicode="&#xb8;" horiz-adv-x="634" d="M104 -326q29 -23 82.5 -43t100.5 -20q111 0 174 41t63 127q0 59 -40 104t-105 45q-45 0 -68 -8l49 133h-92l-88 -223l31 -18q14 6 31.5 12t44.5 6q47 0 77.5 -12.5t30.5 -44.5q0 -31 -29.5 -49.5t-72.5 -18.5q-47 0 -81 12.5t-69 34.5z" />
<glyph unicode="&#xb9;" horiz-adv-x="454" d="M45 1389l18 -84l142 67h4v-680h110v783h-98z" />
<glyph unicode="&#xba;" horiz-adv-x="909" d="M123 582h663v120h-663v-120zM166 1112q0 -74 20.5 -134t58.5 -104.5t90 -69t118 -24.5q63 0 115.5 24.5t90 69t58 104.5t20.5 134t-20.5 134.5t-58 105.5t-90 69.5t-115.5 24.5q-66 0 -118 -24.5t-90 -69.5t-58.5 -105.5t-20.5 -134.5zM260 1112q0 117 53.5 181.5 t139.5 64.5t138 -64.5t52 -181.5t-52 -180.5t-138 -63.5t-139.5 63.5t-53.5 180.5z" />
<glyph unicode="&#xbb;" d="M174 31l59 -99l967 629v90l-950 647l-70 -94l877 -598zM594 25l65 -101l961 637v90l-946 658l-72 -99q217 -147 438.5 -302.5t438.5 -303.5z" />
<glyph unicode="&#xbc;" horiz-adv-x="1572" d="M96 1251l23 -90l147 72h4v-723h119v833h-104zM270 -80h109l815 1434h-107zM819 170h428v-225h117v225h133v90h-133v526h-119l-426 -548v-68zM950 262l232 297q16 25 31.5 50.5t35.5 58.5h4q-2 -29 -4 -58.5t-2 -68.5v-281h-295z" />
<glyph unicode="&#xbd;" horiz-adv-x="1572" d="M63 1251l23 -90l147 72h5v-723h118v833h-104zM231 -80h107l817 1434h-106zM909 10v-65h549v96h-379v4l70 66q63 57 117.5 111t94.5 107.5t61.5 108t21.5 115.5q0 39 -14.5 81t-46 75.5t-83 55t-124.5 21.5q-78 0 -141.5 -26.5t-104.5 -61.5l39 -77q29 23 73.5 45 t102.5 22q92 0 133 -48t41 -114q0 -86 -68.5 -175t-203.5 -214z" />
<glyph unicode="&#xbe;" horiz-adv-x="1572" d="M66 561q35 -23 96 -42t137 -19q80 0 139.5 21.5t99.5 56t60 79.5t20 93q0 82 -54 139t-140 67v5q76 29 118 80t42 114q0 37 -13.5 73t-44 63.5t-78 45t-114.5 17.5q-74 0 -132.5 -21.5t-92.5 -46.5l32 -82q23 16 70 37t108 21q76 0 109 -37t33 -78t-21.5 -69.5t-52.5 -46 t-66.5 -26t-64.5 -8.5h-57v-82h55q45 0 88 -9t77 -28.5t55.5 -51t21.5 -74.5q0 -27 -11.5 -55.5t-35 -51t-61.5 -38t-91 -15.5q-59 0 -115.5 19.5t-81.5 35.5zM354 -80h107l817 1434h-107zM844 170h430v-225h112v225h134v90h-134v526h-116l-426 -548v-68zM973 260v2l235 297 q16 25 30.5 49.5t37.5 59.5h4q-6 -55 -6 -127v-281h-301z" />
<glyph unicode="&#xbf;" horiz-adv-x="1126" d="M233 180q0 -61 20.5 -121.5t63.5 -108.5t109 -77t156 -29q70 0 157.5 30t159.5 83l-78 143q-49 -41 -109.5 -63.5t-111.5 -22.5q-92 0 -136 48.5t-44 125.5q0 68 34.5 133.5t112.5 157.5q74 88 107 179.5t33 177.5v13t-1 21.5t-3.5 39t-8.5 63.5h-166q4 -47 5.5 -85 t1.5 -42q0 -133 -117 -277q-82 -104 -133.5 -194t-51.5 -195zM502 1247q0 -55 30.5 -89t85.5 -34t86 34t31 89q0 53 -30.5 88t-86.5 35q-55 0 -85.5 -35t-30.5 -88z" />
<glyph unicode="&#xc6;" horiz-adv-x="1527" d="M-4 0h139l238 508h418l65 -508h604v113h-487l-66 536h486v113h-502l-57 473h577v115h-786zM420 618l188 416q25 55 49.5 111.5t40.5 103.5h11q4 -51 11 -113.5t13 -109.5l45 -408h-358z" />
<glyph unicode="&#xd0;" horiz-adv-x="1323" d="M-8 629h172v-629q72 -8 147.5 -11t161.5 -3q199 0 348.5 51t241.5 149t138 229.5t46 291.5q0 166 -46 281.5t-134 201.5q-172 176 -545 176q-98 0 -188 -8t-170 -23v-596h-172v-110zM301 106v523h387v110h-387v496q74 20 223 20q150 0 260.5 -38.5t182 -110.5 t106.5 -173.5t35 -225.5q0 -295 -152.5 -453t-457.5 -158q-59 0 -110.5 2t-86.5 8z" />
<glyph unicode="&#xd7;" horiz-adv-x="1193" d="M70 94l106 -108l418 430l422 -430l108 108l-419 432l419 430l-108 109l-422 -430l-418 430l-106 -109l417 -430z" />
<glyph unicode="&#xd8;" horiz-adv-x="1361" d="M72 666q0 -154 45 -281t131 -219l-127 -176l78 -62l125 170q76 -59 167 -90t191 -31q117 0 225.5 44.5t193.5 132.5t136 221t51 311q0 154 -44 281t-130 219l127 172l-86 57l-119 -162q-152 119 -350 119q-129 0 -240.5 -49t-194.5 -140t-131 -222.5t-48 -294.5zM213 676 q0 106 28.5 211.5t87 188.5t146.5 134.5t207 51.5q86 0 156.5 -29t128.5 -80l-639 -870l-4 -4q-51 86 -81 177t-30 220zM395 199l639 870h4q61 -94 85 -193.5t24 -193.5q0 -117 -31 -224.5t-90 -189.5t-146 -131t-200 -49q-94 0 -161.5 28.5t-123.5 82.5z" />
<glyph unicode="&#xde;" horiz-adv-x="1034" d="M156 0h135v328q35 -6 75 -8.5t80 -2.5q111 0 203 27t158.5 80t103.5 131t37 180q0 74 -27.5 138.5t-76.5 111.5q-121 111 -352 111q-53 0 -105.5 -3t-95.5 -14v271h-135v-1350zM291 440v529q25 6 75 12t115 6q74 0 134.5 -15.5t104.5 -49t68.5 -85t24.5 -120.5 q0 -135 -93 -213t-271 -78q-41 0 -81 2t-77 12z" />
<glyph unicode="&#xdf;" horiz-adv-x="1064" d="M154 0h137v920q0 223 63.5 318t192.5 95q98 0 160.5 -58t62.5 -175q0 -53 -18 -92q-182 -84 -183 -244q0 -80 44 -139.5t110 -124.5q59 -53 90 -103.5t31 -122.5q0 -78 -54.5 -133t-160.5 -55q-94 0 -178 45l-31 -108q47 -23 101 -34.5t112 -11.5q80 0 143.5 23 t107.5 64.5t68.5 99t24.5 125.5q0 53 -13.5 96t-37 79t-53 67.5t-60.5 62.5q-49 53 -81 92t-32 96q0 55 42 98.5t112 71.5q14 23 29.5 67t15.5 97q0 80 -27.5 141.5t-73.5 103.5t-106.5 62.5t-126.5 20.5q-170 0 -270 -94q-66 -59 -103.5 -159.5t-37.5 -272.5v-918z" />
<glyph unicode="&#xe6;" horiz-adv-x="1529" d="M76 244q0 -49 17.5 -97.5t53 -86t91 -60.5t131.5 -23q123 0 219 58.5t137 169.5h6q39 -111 138.5 -169.5t228.5 -58.5q98 0 175 18.5t130 47.5l-31 98q-35 -16 -95 -35.5t-165 -19.5q-70 0 -131 25.5t-105.5 76t-69 125t-20.5 172.5h662q4 10 4 28.5v39.5q0 51 -15.5 125 t-56.5 142.5t-112.5 117.5t-182.5 49q-119 0 -205.5 -58.5t-134.5 -158.5h-4q-27 98 -100.5 157.5t-208.5 59.5q-61 0 -141 -20.5t-148 -65.5l37 -92q41 33 108.5 52.5t135.5 19.5q78 0 125 -31t71.5 -72t33 -82t8.5 -61v-43q-293 4 -439.5 -89t-146.5 -259zM213 256 q0 80 43 128t109.5 73.5t146.5 33t152 5.5v-156q0 -31 -11 -72q-27 -78 -88 -132t-172 -54q-74 0 -127 44t-53 130zM788 588q2 45 19.5 97t52.5 96t87 74t124 30q70 0 119 -32t77.5 -77t41 -97t10.5 -91h-531z" />
<glyph unicode="&#xf0;" horiz-adv-x="1062" d="M78 471q0 -113 33.5 -204t93 -155.5t140.5 -99.5t177 -35q84 0 166 30t146.5 94.5t104.5 162.5t40 238q0 117 -22.5 213t-65.5 182q-90 186 -258 326l215 100l-39 80l-250 -123q-61 47 -131 88t-139 74l-62 -90q59 -29 115.5 -60.5t99.5 -66.5l-237 -115l31 -76l284 133 q86 -66 147.5 -137.5t106.5 -148.5l-2 -7q-66 61 -127 81t-127 20q-82 0 -160.5 -34t-141 -98.5t-100.5 -158.5t-38 -213zM217 475q0 63 17.5 134t55.5 130.5t97 97t143 37.5q86 0 142.5 -30.5t93.5 -69.5q41 -53 57.5 -119.5t16.5 -167.5q0 -88 -22.5 -161.5t-64.5 -128 t-100.5 -84t-128.5 -29.5h-2q-66 0 -121 29.5t-96 83t-64.5 124t-23.5 154.5z" />
<glyph unicode="&#xf7;" horiz-adv-x="1193" d="M80 545h1034v151h-1034v-151zM479 246q0 -51 32 -85t85 -34q55 0 87 34t32 85q0 53 -32 90t-87 37q-53 0 -85 -37t-32 -90zM479 989q0 -47 32 -84t85 -37q57 0 88 37t31 84q0 57 -32 91t-87 34q-53 0 -85 -33.5t-32 -91.5z" />
<glyph unicode="&#xf8;" horiz-adv-x="1081" d="M78 475q0 -117 40 -210t105 -159l-84 -118l66 -54l86 117q106 -74 250 -74q82 0 164.5 31t148.5 93.5t108 159.5t42 233q0 111 -37 204t-105 162l84 121l-72 47l-81 -115q-109 74 -246 74h-2q-94 0 -179 -33.5t-148.5 -99.5t-101.5 -161t-38 -218zM213 481 q0 70 18.5 141.5t58.5 129t101.5 93.5t149.5 36q57 0 105 -15.5t83 -50.5l-430 -604h-4q-45 59 -63.5 129t-18.5 141zM354 145l430 605h4q47 -66 63.5 -137.5t16.5 -125.5q0 -88 -24.5 -161.5t-68.5 -128t-105.5 -84t-134.5 -29.5q-104 0 -181 61z" />
<glyph unicode="&#xfe;" horiz-adv-x="1122" d="M152 -397h137v538h4q49 -78 130 -121t179 -43q84 0 164 32t141.5 96.5t99 162t37.5 230.5q0 109 -31.5 198.5t-87 154t-130 100.5t-162.5 36q-123 0 -207 -49t-133 -135h-4v532h-137v-1732zM289 377v182q0 25 6 53.5t12 51.5q35 98 115 155.5t172 57.5q74 0 132 -31 t98 -83t61.5 -122t21.5 -145q0 -190 -87 -300t-228 -110q-98 0 -177 53.5t-110 151.5q-16 45 -16 86z" />
<glyph unicode="&#x152;" horiz-adv-x="1765" d="M72 666q0 -147 44 -273.5t128 -218.5t204.5 -144.5t272.5 -52.5q47 0 88 3.5t78 7.5t70.5 8t66.5 4h666v113h-592v536h530v113h-530v473h563v115h-623q-29 0 -61.5 4t-69.5 8t-80 7t-94 3q-145 0 -266 -48t-209 -138t-137 -221t-49 -299zM215 674q0 127 34 234.5 t100.5 185t162.5 122t219 44.5q80 0 134.5 -8.5t95.5 -22.5v-1110q-35 -14 -93.5 -22.5t-119.5 -8.5q-127 0 -226.5 42t-167 119t-103.5 184.5t-36 240.5z" />
<glyph unicode="&#x153;" horiz-adv-x="1724" d="M78 475q0 -115 33.5 -206t93 -156.5t140.5 -100.5t177 -35q55 0 112.5 14.5t109 45.5t92.5 77t65 111h4q53 -129 154.5 -188.5t236.5 -59.5q86 0 167 17.5t134 48.5l-28 98q-47 -18 -105.5 -35.5t-150.5 -17.5q-152 0 -246 96.5t-94 286.5h669q6 27 7 72q0 57 -15.5 133 t-58.5 145.5t-117 117.5t-190 48q-117 0 -211 -60.5t-148 -189.5h-4q-43 119 -143 184.5t-230 65.5q-94 0 -177 -36t-144 -101.5t-97 -160.5t-36 -214zM217 479q0 66 16.5 137.5t53.5 130t96 96.5t145 38h2q82 0 142.5 -35t98.5 -91.5t56.5 -128t18.5 -143.5 q0 -90 -23.5 -162.5t-64.5 -126t-99.5 -82t-128.5 -28.5q-68 0 -125 30.5t-99 84t-65.5 125t-23.5 155.5zM971 573q6 51 24.5 105.5t52 99.5t85 75t122.5 30q78 0 128.5 -32t80 -79t39.5 -100.5t8 -98.5h-540z" />
<glyph unicode="&#x2dc;" d="M412 1274l49 -47q68 53 128 73.5t140 20.5q47 0 84 -12.5t78 -38.5q55 -39 106.5 -56.5t110.5 -17.5q92 0 168 33t154 102l-54 47q-68 -47 -133 -63.5t-137 -16.5q-43 0 -88 17.5t-86 42.5q-43 29 -94.5 46t-110.5 17q-78 0 -161 -40t-154 -107z" />
<glyph unicode="&#x2000;" horiz-adv-x="806" />
<glyph unicode="&#x2001;" horiz-adv-x="1612" />
<glyph unicode="&#x2002;" horiz-adv-x="806" />
<glyph unicode="&#x2003;" horiz-adv-x="1612" />
<glyph unicode="&#x2004;" horiz-adv-x="537" />
<glyph unicode="&#x2005;" horiz-adv-x="403" />
<glyph unicode="&#x2006;" horiz-adv-x="268" />
<glyph unicode="&#x2007;" horiz-adv-x="268" />
<glyph unicode="&#x2008;" horiz-adv-x="201" />
<glyph unicode="&#x2009;" horiz-adv-x="322" />
<glyph unicode="&#x200a;" horiz-adv-x="89" />
<glyph unicode="&#x2010;" horiz-adv-x="819" d="M86 670h647v166h-647v-166z" />
<glyph unicode="&#x2011;" horiz-adv-x="819" d="M86 670h647v166h-647v-166z" />
<glyph unicode="&#x2012;" horiz-adv-x="819" d="M86 670h647v166h-647v-166z" />
<glyph unicode="&#x2013;" horiz-adv-x="1196" d="M86 670h1024v166h-1024v-166z" />
<glyph unicode="&#x2014;" horiz-adv-x="1730" d="M4 573h1722v105h-1722v-105z" />
<glyph unicode="&#x2018;" horiz-adv-x="450" d="M86 1305q0 -70 33 -118t98 -48q43 0 83 30.5t40 90.5q0 47 -28.5 83.5t-88.5 36.5q14 43 52 78t79 53l-57 95q-98 -49 -154.5 -129t-56.5 -172z" />
<glyph unicode="&#x2019;" horiz-adv-x="450" d="M84 1221l66 -93q92 47 150 128t58 174q0 70 -32.5 117.5t-98.5 47.5q-43 0 -83 -30.5t-40 -89.5q0 -43 30 -83t83 -40q-14 -43 -53 -78t-80 -53z" />
<glyph unicode="&#x201c;" horiz-adv-x="819" d="M106 1305q0 -70 33 -118t99 -48q43 0 82.5 30.5t39.5 90.5q0 43 -26.5 82.5t-79.5 39.5q14 43 49 73t76 48l-62 103q-98 -49 -154.5 -129t-56.5 -172zM440 1305q0 -70 33 -118t98 -48q43 0 83 30.5t40 90.5q0 43 -26.5 82.5t-79.5 39.5q14 43 49 73t76 48l-62 103 q-98 -49 -154.5 -129t-56.5 -172z" />
<glyph unicode="&#x201d;" horiz-adv-x="819" d="M106 1229l68 -101q92 47 150.5 128t58.5 174q0 70 -33 117.5t-98 47.5q-43 0 -83 -30.5t-40 -89.5q0 -43 26.5 -83t80.5 -40q-14 -43 -51.5 -74t-78.5 -49zM436 1229l68 -101q92 47 150.5 128t58.5 174q0 70 -33 117.5t-98 47.5q-43 0 -83 -30.5t-40 -89.5 q0 -43 26.5 -83t79.5 -40q-14 -43 -51 -74t-78 -49z" />
<glyph unicode="&#x2022;" d="M707 608q0 -41 14 -78.5t40.5 -66.5t66.5 -47.5t94 -18.5q51 0 90 17.5t65.5 46t41 65.5t16.5 76q2 41 -10.5 81t-39 71.5t-67.5 51t-96 19.5t-96.5 -18.5t-67 -49t-38.5 -69.5t-13 -80z" />
<glyph unicode="&#x2026;" d="M182 649q0 -55 36 -92t89 -37t89 37t36 92t-36 93t-89 38t-89 -38t-36 -93zM797 649q0 -55 35.5 -92t89.5 -37q53 0 89 37t36 92t-36 93t-89 38t-89 -38t-36 -93zM1411 649q0 -55 36 -92t89 -37t89 37t36 92t-36 93t-89 38t-89 -38t-36 -93z" />
<glyph unicode="&#x202f;" horiz-adv-x="322" />
<glyph unicode="&#x2039;" d="M238 600l1368 -838v74l-1233 764l1233 768v70z" />
<glyph unicode="&#x203a;" d="M238 -164v-74l1368 838l-1368 838v-70l1235 -768z" />
<glyph unicode="&#x205f;" horiz-adv-x="403" />
<glyph unicode="&#x20ac;" />
<glyph unicode="&#x2122;" d="M319 1339h181v-475h127v475h184v111h-492v-111zM825 864h133l21 363v73l20 -86l107 -342h121l112 336l25 97v-80l25 -361h133l-47 586h-166l-113 -340l-25 -94l-22 96l-107 338h-172z" />
<glyph unicode="&#x25fc;" horiz-adv-x="1054" d="M0 0v1055h1055v-1055h-1055z" />
</font>
</defs>
</svg>
